<?xml version="1.0" encoding="UTF-8" standalone="no"?>
<!-- Created with Inkscape (http://www.inkscape.org/) -->

<svg
   xmlns:dc="http://purl.org/dc/elements/1.1/"
   xmlns:cc="http://creativecommons.org/ns#"
   xmlns:rdf="http://www.w3.org/1999/02/22-rdf-syntax-ns#"
   xmlns:svg="http://www.w3.org/2000/svg"
   xmlns="http://www.w3.org/2000/svg"
   xmlns:xlink="http://www.w3.org/1999/xlink"
   xmlns:sodipodi="http://sodipodi.sourceforge.net/DTD/sodipodi-0.dtd"
   xmlns:inkscape="http://www.inkscape.org/namespaces/inkscape"
   width="1371.4286"
   height="1371.4286"
   viewBox="0 0 362.85715 362.85715"
   version="1.1"
   id="svg1620"
   inkscape:version="0.92.3 (2405546, 2018-03-11)"
   sodipodi:docname="logo-igreja.svg">
  <defs
     id="defs1614">
    <inkscape:path-effect
       effect="skeletal"
       id="path-effect880"
       is_visible="true"
       pattern="m 3.0238095,5 c 0,-2.76 2.24,-5 5.0000004,-5 2.7600001,0 5.0000001,2.24 5.0000001,5 0,2.76 -2.24,5 -5.0000001,5 C 5.2638095,10 3.0238095,7.76 3.0238095,5 Z"
       copytype="single_stretched"
       prop_scale="0.26458334"
       scale_y_rel="false"
       spacing="0"
       normal_offset="0"
       tang_offset="0"
       prop_units="false"
       vertical_pattern="false"
       fuse_tolerance="0" />
    <inkscape:path-effect
       effect="skeletal"
       id="path-effect875"
       is_visible="true"
       pattern="m 4.2763124,-7.8289371 c 0,-2.7599999 2.24,-4.9999999 5,-4.9999999 2.7599996,0 4.9999996,2.24 4.9999996,4.9999999 0,2.76 -2.24,5 -4.9999996,5 -2.76,0 -5,-2.24 -5,-5 z"
       copytype="single_stretched"
       prop_scale="0.26458334"
       scale_y_rel="false"
       spacing="0"
       normal_offset="0"
       tang_offset="0"
       prop_units="false"
       vertical_pattern="false"
       fuse_tolerance="0" />
    <inkscape:path-effect
       fuse_tolerance="0"
       vertical_pattern="false"
       prop_units="false"
       tang_offset="0"
       normal_offset="0"
       spacing="0"
       scale_y_rel="false"
       prop_scale="0.18716309"
       copytype="single_stretched"
       pattern="m -1.1103021,9.0788789 c 0,-2.76 2.24,-5 5,-5 2.76,0 5,2.24 5,5 0,2.7600001 -2.24,5.0000001 -5,5.0000001 -2.76,0 -5,-2.24 -5,-5.0000001 z"
       is_visible="true"
       id="path-effect888"
       effect="skeletal" />
    <inkscape:path-effect
       fuse_tolerance="0"
       vertical_pattern="false"
       prop_units="false"
       tang_offset="0"
       normal_offset="0"
       spacing="0"
       scale_y_rel="false"
       prop_scale="0.18716309"
       copytype="single_stretched"
       pattern="m -1.1103021,9.0788789 c 0,-2.76 2.24,-5 5,-5 2.76,0 5,2.24 5,5 0,2.7600001 -2.24,5.0000001 -5,5.0000001 -2.76,0 -5,-2.24 -5,-5.0000001 z"
       is_visible="true"
       id="path-effect885"
       effect="skeletal" />
    <inkscape:path-effect
       fuse_tolerance="0"
       vertical_pattern="false"
       prop_units="false"
       tang_offset="0"
       normal_offset="0"
       spacing="0"
       scale_y_rel="false"
       prop_scale="0.18716309"
       copytype="single_stretched"
       pattern="m -1.1103021,9.0788789 c 0,-2.76 2.24,-5 5,-5 2.76,0 5,2.24 5,5 0,2.7600001 -2.24,5.0000001 -5,5.0000001 -2.76,0 -5,-2.24 -5,-5.0000001 z"
       is_visible="true"
       id="path-effect882"
       effect="skeletal" />
    <inkscape:path-effect
       fuse_tolerance="0"
       vertical_pattern="false"
       prop_units="false"
       tang_offset="0"
       normal_offset="0"
       spacing="0"
       scale_y_rel="false"
       prop_scale="0.18716309"
       copytype="single_stretched"
       pattern="m -1.1103021,9.0788789 c 0,-2.76 2.24,-5 5,-5 2.76,0 5,2.24 5,5 0,2.7600001 -2.24,5.0000001 -5,5.0000001 -2.76,0 -5,-2.24 -5,-5.0000001 z"
       is_visible="true"
       id="path-effect879"
       effect="skeletal" />
    <inkscape:path-effect
       fuse_tolerance="0"
       vertical_pattern="false"
       prop_units="false"
       tang_offset="0"
       normal_offset="0"
       spacing="0"
       scale_y_rel="false"
       prop_scale="0.18716309"
       copytype="single_stretched"
       pattern="m -1.1103021,9.0788789 c 0,-2.76 2.24,-5 5,-5 2.76,0 5,2.24 5,5 0,2.7600001 -2.24,5.0000001 -5,5.0000001 -2.76,0 -5,-2.24 -5,-5.0000001 z"
       is_visible="true"
       id="path-effect876"
       effect="skeletal" />
    <inkscape:path-effect
       fuse_tolerance="0"
       vertical_pattern="false"
       prop_units="false"
       tang_offset="0"
       normal_offset="0"
       spacing="0"
       scale_y_rel="false"
       prop_scale="0.18716309"
       copytype="single_stretched"
       pattern="m -1.1103021,9.0788789 c 0,-2.76 2.24,-5 5,-5 2.76,0 5,2.24 5,5 0,2.7600001 -2.24,5.0000001 -5,5.0000001 -2.76,0 -5,-2.24 -5,-5.0000001 z"
       is_visible="true"
       id="path-effect873"
       effect="skeletal" />
    <inkscape:path-effect
       fuse_tolerance="0"
       vertical_pattern="false"
       prop_units="false"
       tang_offset="0"
       normal_offset="0"
       spacing="0"
       scale_y_rel="false"
       prop_scale="0.18716309"
       copytype="single_stretched"
       pattern="m -1.1103021,9.0788789 c 0,-2.76 2.24,-5 5,-5 2.76,0 5,2.24 5,5 0,2.7600001 -2.24,5.0000001 -5,5.0000001 -2.76,0 -5,-2.24 -5,-5.0000001 z"
       is_visible="true"
       id="path-effect870"
       effect="skeletal" />
    <inkscape:path-effect
       fuse_tolerance="0"
       vertical_pattern="false"
       prop_units="false"
       tang_offset="0"
       normal_offset="0"
       spacing="0"
       scale_y_rel="false"
       prop_scale="0.18716309"
       copytype="single_stretched"
       pattern="m -1.1103021,9.0788789 c 0,-2.76 2.24,-5 5,-5 2.76,0 5,2.24 5,5 0,2.7600001 -2.24,5.0000001 -5,5.0000001 -2.76,0 -5,-2.24 -5,-5.0000001 z"
       is_visible="true"
       id="path-effect867"
       effect="skeletal" />
    <inkscape:path-effect
       fuse_tolerance="0"
       vertical_pattern="false"
       prop_units="false"
       tang_offset="0"
       normal_offset="0"
       spacing="0"
       scale_y_rel="false"
       prop_scale="0.18716309"
       copytype="single_stretched"
       pattern="m -1.1103021,9.0788789 c 0,-2.76 2.24,-5 5,-5 2.76,0 5,2.24 5,5 0,2.7600001 -2.24,5.0000001 -5,5.0000001 -2.76,0 -5,-2.24 -5,-5.0000001 z"
       is_visible="true"
       id="path-effect864"
       effect="skeletal" />
    <inkscape:path-effect
       effect="skeletal"
       id="path-effect1412-9"
       is_visible="true"
       pattern="m -1.1103021,9.0788789 c 0,-2.76 2.24,-5 5,-5 2.76,0 5,2.24 5,5 0,2.7600001 -2.24,5.0000001 -5,5.0000001 -2.76,0 -5,-2.24 -5,-5.0000001 z"
       copytype="single_stretched"
       prop_scale="1"
       scale_y_rel="false"
       spacing="0"
       normal_offset="0"
       tang_offset="0"
       prop_units="false"
       vertical_pattern="false"
       fuse_tolerance="0" />
    <inkscape:path-effect
       effect="skeletal"
       id="path-effect1416-2"
       is_visible="true"
       pattern="m -1.1103021,9.0788789 c 0,-2.76 2.24,-5 5,-5 2.76,0 5,2.24 5,5 0,2.7600001 -2.24,5.0000001 -5,5.0000001 -2.76,0 -5,-2.24 -5,-5.0000001 z"
       copytype="single_stretched"
       prop_scale="1"
       scale_y_rel="false"
       spacing="0"
       normal_offset="0"
       tang_offset="0"
       prop_units="false"
       vertical_pattern="false"
       fuse_tolerance="0" />
    <inkscape:path-effect
       effect="skeletal"
       id="path-effect1432-6"
       is_visible="true"
       pattern="m -1.1103021,9.0788789 c 0,-2.76 2.24,-5 5,-5 2.76,0 5,2.24 5,5 0,2.7600001 -2.24,5.0000001 -5,5.0000001 -2.76,0 -5,-2.24 -5,-5.0000001 z"
       copytype="single_stretched"
       prop_scale="1"
       scale_y_rel="false"
       spacing="0"
       normal_offset="0"
       tang_offset="0"
       prop_units="false"
       vertical_pattern="false"
       fuse_tolerance="0" />
    <inkscape:path-effect
       effect="skeletal"
       id="path-effect1452-5"
       is_visible="true"
       pattern="m -1.1103021,9.0788789 c 0,-2.76 2.24,-5 5,-5 2.76,0 5,2.24 5,5 0,2.7600001 -2.24,5.0000001 -5,5.0000001 -2.76,0 -5,-2.24 -5,-5.0000001 z"
       copytype="single_stretched"
       prop_scale="1"
       scale_y_rel="false"
       spacing="0"
       normal_offset="0"
       tang_offset="0"
       prop_units="false"
       vertical_pattern="false"
       fuse_tolerance="0" />
    <inkscape:path-effect
       effect="skeletal"
       id="path-effect1456-3"
       is_visible="true"
       pattern="m -1.1103021,9.0788789 c 0,-2.76 2.24,-5 5,-5 2.76,0 5,2.24 5,5 0,2.7600001 -2.24,5.0000001 -5,5.0000001 -2.76,0 -5,-2.24 -5,-5.0000001 z"
       copytype="single_stretched"
       prop_scale="1"
       scale_y_rel="false"
       spacing="0"
       normal_offset="0"
       tang_offset="0"
       prop_units="false"
       vertical_pattern="false"
       fuse_tolerance="0" />
    <inkscape:path-effect
       effect="skeletal"
       id="path-effect1460-5"
       is_visible="true"
       pattern="m -1.1103021,9.0788789 c 0,-2.76 2.24,-5 5,-5 2.76,0 5,2.24 5,5 0,2.7600001 -2.24,5.0000001 -5,5.0000001 -2.76,0 -5,-2.24 -5,-5.0000001 z"
       copytype="single_stretched"
       prop_scale="1"
       scale_y_rel="false"
       spacing="0"
       normal_offset="0"
       tang_offset="0"
       prop_units="false"
       vertical_pattern="false"
       fuse_tolerance="0" />
    <inkscape:path-effect
       effect="skeletal"
       id="path-effect1464-7"
       is_visible="true"
       pattern="m -1.1103021,9.0788789 c 0,-2.76 2.24,-5 5,-5 2.76,0 5,2.24 5,5 0,2.7600001 -2.24,5.0000001 -5,5.0000001 -2.76,0 -5,-2.24 -5,-5.0000001 z"
       copytype="single_stretched"
       prop_scale="1"
       scale_y_rel="false"
       spacing="0"
       normal_offset="0"
       tang_offset="0"
       prop_units="false"
       vertical_pattern="false"
       fuse_tolerance="0" />
    <inkscape:path-effect
       effect="skeletal"
       id="path-effect1468-6"
       is_visible="true"
       pattern="m -1.1103021,9.0788789 c 0,-2.76 2.24,-5 5,-5 2.76,0 5,2.24 5,5 0,2.7600001 -2.24,5.0000001 -5,5.0000001 -2.76,0 -5,-2.24 -5,-5.0000001 z"
       copytype="single_stretched"
       prop_scale="1"
       scale_y_rel="false"
       spacing="0"
       normal_offset="0"
       tang_offset="0"
       prop_units="false"
       vertical_pattern="false"
       fuse_tolerance="0" />
    <inkscape:path-effect
       effect="skeletal"
       id="path-effect1476-3"
       is_visible="true"
       pattern="m -1.1103021,9.0788789 c 0,-2.76 2.24,-5 5,-5 2.76,0 5,2.24 5,5 0,2.7600001 -2.24,5.0000001 -5,5.0000001 -2.76,0 -5,-2.24 -5,-5.0000001 z"
       copytype="single_stretched"
       prop_scale="1"
       scale_y_rel="false"
       spacing="0"
       normal_offset="0"
       tang_offset="0"
       prop_units="false"
       vertical_pattern="false"
       fuse_tolerance="0" />
  </defs>
  <sodipodi:namedview
     id="base"
     pagecolor="#ffffff"
     bordercolor="#666666"
     borderopacity="1.0"
     inkscape:pageopacity="0.0"
     inkscape:pageshadow="2"
     inkscape:zoom="0.12374369"
     inkscape:cx="1235.712"
     inkscape:cy="1486.9082"
     inkscape:document-units="px"
     inkscape:current-layer="layer1"
     showgrid="false"
     inkscape:window-width="1366"
     inkscape:window-height="717"
     inkscape:window-x="0"
     inkscape:window-y="25"
     inkscape:window-maximized="1"
     showborder="false"
     inkscape:snap-nodes="false"
     inkscape:snap-others="false"
     fit-margin-top="0"
     fit-margin-left="0"
     fit-margin-right="0"
     fit-margin-bottom="0"
     showguides="true"
     units="px"
     inkscape:snap-global="true"
     inkscape:guide-bbox="true"
     inkscape:snap-bbox="true"
     inkscape:bbox-nodes="true">
    <sodipodi:guide
       position="675.34448,527.26626"
       orientation="0,1"
       id="guide859"
       inkscape:locked="false" />
  </sodipodi:namedview>
  <metadata
     id="metadata1617">
    <rdf:RDF>
      <cc:Work
         rdf:about="">
        <dc:format>image/svg+xml</dc:format>
        <dc:type
           rdf:resource="http://purl.org/dc/dcmitype/StillImage" />
        <dc:title />
      </cc:Work>
    </rdf:RDF>
  </metadata>
  <g
     inkscape:label="Camada 1"
     inkscape:groupmode="layer"
     id="layer1"
     transform="translate(-633.44336,101.02647)">
    <rect
       style="opacity:1;fill:#1f8163;fill-opacity:1;stroke:none;stroke-width:1.23798215;stroke-linecap:round;stroke-linejoin:miter;stroke-miterlimit:4;stroke-dasharray:none;stroke-dashoffset:0;stroke-opacity:1;paint-order:fill markers stroke"
       id="rect881"
       width="328.61249"
       height="644.52502"
       x="980.17535"
       y="-265.43558"
       inkscape:export-filename="/home/solucaocriativa/Development/MEU_COMPROMISSO/MOBILE/assets/splash.png"
       inkscape:export-xdpi="112"
       inkscape:export-ydpi="112" />
    <rect
       style="opacity:1;fill:#1f8163;fill-opacity:1;stroke:none;stroke-width:3.95111108;stroke-linecap:round;stroke-linejoin:miter;stroke-miterlimit:4;stroke-dasharray:none;stroke-dashoffset:0;stroke-opacity:1;paint-order:fill markers stroke"
       id="rect883"
       width="270.93335"
       height="270.93335"
       x="233.16125"
       y="-29.599232"
       inkscape:export-filename="/home/solucaocriativa/Development/MEU_COMPROMISSO/MOBILE/assets/icon.png"
       inkscape:export-xdpi="112"
       inkscape:export-ydpi="112"
       ry="0" />
    <path
       inkscape:connector-curvature="0"
       id="path851"
       d="m 367.44225,5.7829368 c -2.14864,0.026667 -3.86715,1.7955733 -3.83776,3.94416 l 0.17333,12.7086932 c 0.0267,2.148961 1.79536,3.867147 3.94411,3.837761 2.14906,-0.02667 3.8672,-1.795521 3.83792,-3.944054 L 371.38651,9.6207502 c -0.0267,-2.1485867 -1.79557,-3.8672001 -3.94416,-3.8378134 z M 326.06774,17.450297 c -0.62688,0.02133 -1.25659,0.202133 -1.83328,0.54576 -1.84651,1.09968 -2.45174,3.48816 -1.34998,5.334987 l 6.50523,10.918827 c 0.73787,1.2384 2.05461,1.918506 3.39915,1.90016 0.66021,-0.01067 1.32661,-0.186667 1.93477,-0.54864 1.84635,-1.099734 2.45157,-3.488214 1.34965,-5.334987 l -6.50416,-10.918827 c -0.75653,-1.269387 -2.12192,-1.952053 -3.50122,-1.89728 z m 83.05243,-1.134933 c -1.38027,-0.02133 -2.72619,0.70288 -3.44726,1.99216 l -6.20432,11.092533 c -1.04922,1.875734 -0.3792,4.2464 1.49675,5.295627 0.61776,0.3456 1.28885,0.504533 1.94891,0.495467 1.34453,-0.016 2.6432,-0.734294 3.34682,-1.99232 l 6.20432,-11.092481 c 1.04907,-1.875733 0.3792,-4.2464 -1.49669,-5.295626 -0.58635,-0.328 -1.22107,-0.488 -1.84853,-0.495467 z m -49.59787,18.30432 c -4.2488,0.056 -8.60347,2.236693 -10.75766,7.212907 -0.85365,1.97232 0.0587,4.262453 2.02566,5.116693 1.9721,0.85408 4.26288,-0.05333 5.11648,-2.024906 1.28341,-2.964374 4.19973,-2.73264 5.56282,-2.1944 1.22262,0.4816 3.09766,1.783893 1.91958,5.08768 l -10.55974,29.61696 c -4.4272,0.855627 -8.11968,4.471414 -9.33226,9.510241 -1.73547,7.210186 -3.29798,14.152911 -4.80827,20.867251 -0.76453,3.3984 -1.52869,6.79648 -2.3176,10.24048 -0.48,2.09488 0.82949,4.1816 2.92469,4.66123 2.09552,0.4816 4.18219,-0.82869 4.66208,-2.92389 0.79115,-3.45376 1.55755,-6.86278 2.32374,-10.27104 1.504,-6.68619 3.05946,-13.599791 4.78186,-20.752911 0.48374,-2.0104 1.93152,-3.933441 4.07936,-3.730027 0.0373,0.0037 0.0768,0.01067 0.11574,0.016 1.97936,0.251733 3.40245,2.053067 3.18208,4.04352 -0.22187,2.0112 -0.59446,5.932213 -0.95387,9.724053 -0.35733,3.761495 -0.72581,7.652005 -0.94219,9.601495 -1.18618,10.70315 -0.77333,11.98027 2.81334,18.75643 0.68144,1.28746 1.45354,2.74656 2.39003,4.62826 4.15466,8.20374 3.62944,19.53328 -1.65243,35.6559 -5.63494,17.19834 -34.9815,27.9865 -59.86342,30.73157 -2.1361,0.23627 -3.67717,2.15845 -3.44154,4.29445 0.22133,2.00944 1.93578,3.492 3.91626,3.46502 0.1248,-0.001 0.25174,-0.0107 0.3792,-0.0213 28.19451,-3.11104 59.66182,-15.46261 66.40491,-36.04442 0.80107,-2.44475 1.49808,-4.7975 2.09798,-7.06715 0.66154,2.25248 1.4225,4.58485 2.29013,7.0072 1.62693,4.54075 4.55045,8.83264 8.69024,12.75653 0.76672,0.72704 1.75088,1.07979 2.72976,1.06635 1.01328,-0.016 2.01957,-0.4208 2.77136,-1.21371 1.47872,-1.55978 1.41237,-4.02256 -0.1472,-5.50117 -3.24576,-3.07675 -5.50581,-6.35115 -6.71685,-9.73243 -5.72112,-15.97221 -6.55563,-27.28336 -2.61494,-35.62186 0.87302,-1.88192 1.60518,-3.36182 2.25126,-4.66736 3.4,-6.87126 3.77728,-8.15958 2.29904,-18.8263 -0.26934,-1.94597 -0.7455,-5.83146 -1.20582,-9.588851 -0.4624,-3.77408 -0.94042,-7.676427 -1.21765,-9.677654 -0.13387,-0.962506 0.12053,-1.925066 0.71653,-2.711093 0.58246,-0.770293 1.41734,-1.272267 2.35584,-1.417867 0.0373,-0.0037 0.0752,-0.01067 0.11307,-0.016 2.14229,-0.264 3.64171,1.619947 4.18043,3.617174 1.91504,7.094506 3.65642,13.955471 5.34069,20.590291 0.86171,3.39462 1.72283,6.78854 2.61072,10.2279 0.53728,2.0809 2.65925,3.33136 4.74021,2.79541 2.08107,-0.53707 3.33222,-2.6592 2.79552,-4.74011 -0.8848,-3.42976 -1.74368,-6.81386 -2.60288,-10.19834 -1.69093,-6.66283 -3.43946,-13.551738 -5.36933,-20.702351 -1.35077,-5.004907 -5.13952,-8.518934 -9.5888,-9.252374 L 372.64369,47.696364 c -1.26779,-3.26992 0.57157,-4.623573 1.78074,-5.138933 1.34758,-0.574987 4.25606,-0.88624 5.6199,2.042293 l 23.89285,51.445175 c 11.14907,25.675091 11.36165,26.166401 12.37819,64.305281 0.048,1.77083 1.28442,3.28613 3.01013,3.68635 l 18.87445,4.38016 c 2.09579,0.4832 4.18512,-0.81782 4.67136,-2.91115 0.48587,-2.09371 -0.8176,-4.18427 -2.91109,-4.67056 l -15.94581,-3.69963 c -1.00587,-36.70954 -1.72342,-38.36288 -12.9384,-64.189651 L 387.09947,41.313911 c -3.18496,-6.838454 -10.47994,-8.151094 -15.72661,-5.916 -1.26059,0.537173 -2.45749,1.3104 -3.49333,2.28624 -1.06219,-0.947147 -2.28038,-1.68736 -3.5552,-2.18992 -1.49238,-0.588214 -3.13857,-0.89136 -4.80139,-0.869334 z m -63.15259,13.565014 c -1.38011,-0.02133 -2.72661,0.702613 -3.448,1.99216 -1.04923,1.875786 -0.3792,4.245653 1.4968,5.294933 l 11.09259,6.204374 c 0.6177,0.3456 1.28853,0.504533 1.9489,0.495466 1.34464,-0.02133 2.64331,-0.734293 3.34672,-1.99232 1.04928,-1.875786 0.3792,-4.246453 -1.49685,-5.295733 l -11.09232,-6.20352 c -0.58592,-0.327467 -1.22043,-0.488 -1.84784,-0.495467 z m 143.27872,-1.95792 c -0.62698,0.02133 -1.25733,0.202133 -1.83418,0.54576 l -10.91883,6.50432 c -1.8464,1.10016 -2.45179,3.488267 -1.34987,5.33504 0.73798,1.2384 2.05488,1.91856 3.40006,1.90016 0.65973,-0.01067 1.32688,-0.186667 1.93456,-0.54864 l 10.91877,-6.50512 c 1.84635,-1.100107 2.45168,-3.487467 1.34965,-5.334294 -0.75637,-1.268853 -2.12101,-1.951786 -3.50032,-1.89728 z m -93.67893,7.547893 c -1.3791,0.06613 -2.68016,0.866453 -3.32283,2.197227 -0.93451,1.934507 -0.1232,4.2608 1.81163,5.195573 0.56256,0.271467 1.1584,0.395734 1.74298,0.387734 1.4272,-0.02133 2.7903,-0.82672 3.45344,-2.199787 l 0.002,-0.0024 c 0.93477,-1.93488 0.1232,-4.26 -1.81259,-5.194827 -0.60432,-0.2928 -1.24731,-0.4144 -1.87413,-0.384 z m 22.18208,3.861387 8.12848,20.966454 c -3.70363,2.32368 -5.90896,6.67744 -5.27067,11.28112 0.2688,1.93984 0.7423,5.811787 1.20086,9.555467 0.46346,3.787681 0.94346,7.704001 1.22186,9.711091 1.20598,8.7039 1.20598,8.704 -1.5656,14.30662 -0.63328,1.28005 -1.42128,2.87237 -2.32405,4.81733 -0.1424,0.3024 -0.28,0.60837 -0.41333,0.91621 -0.13814,-0.29546 -0.27947,-0.58938 -0.4272,-0.87968 -0.96758,-1.94389 -1.79851,-3.51461 -2.4664,-4.77616 -2.92374,-5.52469 -2.92384,-5.52485 -1.95611,-14.25856 0.22187,-2.0112 0.59451,-5.9321 0.95424,-9.723998 0.3568,-3.761547 0.72597,-7.651893 0.94197,-9.601493 0.512,-4.619414 -1.81296,-8.911254 -5.57776,-11.132907 z m -28.14902,10.417227 c -1.5168,-0.016 -2.96592,0.86704 -3.60597,2.34624 l -10.18736,23.699947 c -10.50544,26.123998 -11.17717,27.795838 -11.17952,64.519258 l -15.83936,4.13392 c -2.08011,0.54373 -3.32539,2.66864 -2.78256,4.74832 0.46187,1.76837 2.06667,2.93312 3.81515,2.90928 0.30773,-0.004 0.62133,-0.048 0.93328,-0.1264 l 18.74842,-4.89355 c 1.71398,-0.448 2.90971,-1.99648 2.90838,-3.768 -0.0267,-38.15243 0.17333,-38.64928 10.61637,-64.619521 L 343.5391,73.491738 c 0.85386,-1.971893 -0.0587,-4.2632 -2.02491,-5.11744 -0.49333,-0.213867 -1.00613,-0.317333 -1.51163,-0.3216 z m -54.27082,21.705014 c -2.14907,0.02667 -3.8672,1.795573 -3.83776,3.944213 0.0267,2.148533 1.7952,3.867093 3.94421,3.83776 l 12.70795,-0.173333 c 2.14885,-0.02667 3.86698,-1.795254 3.8377,-3.94416 -0.0267,-2.14864 -1.79504,-3.867147 -3.94421,-3.837867 z m 152.97808,-2.090454 c -2.14859,0.02667 -3.8672,1.795574 -3.83787,3.944107 0.0267,2.14864 1.79558,3.867253 3.944,3.837813 l 12.70811,-0.173333 c 2.14843,-0.02667 3.86699,-1.795627 3.83771,-3.94416 -0.0267,-2.148587 -1.79504,-3.867147 -3.94406,-3.837813 z M 396.1087,184.73281 c -1.51589,0.016 -2.94837,0.91856 -3.56315,2.4088 -0.81978,1.98661 0.1264,4.26229 2.11419,5.08202 0.5024,0.20747 1.02389,0.3024 1.53557,0.29494 1.50971,-0.0213 2.93339,-0.92486 3.54566,-2.40859 0.81904,-1.98704 -0.128,-4.2616 -2.11328,-5.08123 l -1.6e-4,5.9e-4 v -0.001 c -0.49654,-0.2048 -1.01131,-0.2992 -1.51648,-0.29494 z m 14.56208,5.90917 c -1.65851,-0.0107 -3.20357,1.04667 -3.73445,2.70981 -0.65291,2.04736 0.47733,4.23632 2.52496,4.88939 9.23146,2.94405 19.53077,4.94816 29.78282,5.79621 0.128,0.0107 0.25334,0.016 0.37867,0.016 1.98053,-0.0267 3.65349,-1.55568 3.82016,-3.56997 0.17653,-2.14165 -1.41515,-4.02181 -3.55691,-4.19877 -9.67616,-0.80027 -19.37872,-2.68624 -28.05957,-5.45488 -0.384,-0.12267 -0.77301,-0.18187 -1.15573,-0.18507 z"
       style="fill:#ffffff;fill-opacity:1;stroke-width:0.38913047"
       inkscape:export-filename="/home/solucaocriativa/Development/MEU_COMPROMISSO/MOBILE/assets/icon.png"
       inkscape:export-xdpi="112"
       inkscape:export-ydpi="112" />
    <path
       style="fill:#d3d176;fill-opacity:1;stroke-width:0.26458177"
       d="m 1143.6754,-18.882356 c -1.4609,0.0199 -2.6294,1.22084 -2.6094,2.68174 l 0.1181,8.6410354 c 0.02,1.461147 1.2207,2.629377 2.6817,2.60944 1.4612,-0.01997 2.6294,-1.220855 2.6095,-2.681727 l -0.1181,-8.6410584 c -0.02,-1.46087 -1.2209,-2.6294 -2.6818,-2.60943 z m -28.1318,7.932978 c -0.4262,0.01693 -0.8544,0.13723 -1.2465,0.371071 -1.2555,0.7477214 -1.667,2.3717464 -0.9179,3.6274344 l 4.4231,7.42404999 c 0.5017,0.84202901 1.397,1.30445501 2.3112,1.29196401 0.4489,-0.0061 0.902,-0.126846 1.3155,-0.373004 1.2554,-0.74773601 1.6669,-2.37176901 0.9177,-3.627452 l -4.4224,-7.424036 c -0.5144,-0.8631024 -1.4428,-1.3272304 -2.3806,-1.2900034 z m 56.4699,-0.771656 c -0.9385,-0.01151 -1.8536,0.477909 -2.3439,1.354544 l -4.2185,7.5421254 c -0.7134,1.275379 -0.2577,2.88726599 1.0177,3.60067699 0.42,0.23479901 0.8763,0.34307901 1.3251,0.33697001 0.9142,-0.01249 1.7972,-0.49926201 2.2756,-1.35465201 l 4.2185,-7.54214199 c 0.7133,-1.275352 0.2577,-2.8872484 -1.0176,-3.6006594 -0.3987,-0.223026 -0.8303,-0.331601 -1.2569,-0.336843 z m -33.7231,12.44568939 c -2.8889,0.03832 -5.8498,1.52079601 -7.3145,4.90426701 -0.5804,1.341025 0.04,2.898151 1.3773,3.478972 1.3409,0.580725 2.8985,-0.03577 3.4789,-1.376794 0.8726,-2.015536 2.8555,-1.858008 3.7823,-1.492044 0.8313,0.327591 2.1062,1.212936 1.3052,3.45928 l -7.1799,20.1375116 c -3.0102,0.581728 -5.5208,3.040231 -6.3453,6.466265 -1.18,4.902432 -2.2424,9.623029 -3.2693,14.188283 -0.5198,2.310694 -1.0394,4.621149 -1.5758,6.962826 -0.3264,1.424343 0.564,2.843219 1.9886,3.169311 1.4248,0.327438 2.8436,-0.56346 3.1699,-1.988062 0.5379,-2.348325 1.059,-4.666185 1.58,-6.983591 1.0226,-4.546145 2.0802,-9.246903 3.2513,-14.110504 0.329,-1.366935 1.3133,-2.674462 2.7737,-2.536186 0.026,0.0036 0.052,0.0061 0.079,0.0089 1.3458,0.171314 2.3134,1.39594 2.1636,2.749321 -0.1511,1.367507 -0.4042,4.033456 -0.6486,6.611675 -0.2427,2.557563 -0.4935,5.202779 -0.6406,6.528333 -0.8065,7.277388 -0.5258,8.145726 1.9129,12.753082 0.4633,0.875355 0.9883,1.867487 1.625,3.146903 2.8249,5.577913 2.4678,13.281268 -1.1235,24.243536 -3.8314,11.69369 -23.785,19.02889 -40.703,20.89535 -1.4524,0.16035 -2.5002,1.46757 -2.34,2.91993 0.1507,1.36623 1.3162,2.37433 2.6628,2.35593 0.085,-0.001 0.1712,-0.007 0.2577,-0.0159 19.1703,-2.11528 40.5659,-10.51349 45.1507,-24.507693 0.5447,-1.662276 1.0186,-3.261963 1.4265,-4.805156 0.4498,1.531476 0.9672,3.117339 1.5571,4.764392 1.1062,3.087395 3.094,6.005604 5.9088,8.673537 0.5213,0.49433 1.1905,0.73417 1.856,0.72506 0.689,-0.009 1.3732,-0.28615 1.8844,-0.82526 1.0054,-1.06051 0.9603,-2.735064 -0.1002,-3.740356 -2.2069,-2.091996 -3.7436,-4.318357 -4.567,-6.61739 -3.89,-10.860016 -4.4574,-18.550849 -1.778,-24.220403 0.5936,-1.279575 1.0914,-2.285833 1.5307,-3.173504 2.3118,-4.671993 2.5683,-5.547954 1.5632,-12.800578 -0.1833,-1.323143 -0.5069,-3.964998 -0.8199,-6.519744 -0.3143,-2.566097 -0.6394,-5.219427 -0.8279,-6.580116 -0.091,-0.654444 0.082,-1.308923 0.4872,-1.843353 0.396,-0.523784 0.9637,-0.865086 1.6018,-0.964055 0.026,-0.0033 0.051,-0.007 0.077,-0.01079 1.4566,-0.179725 2.4761,1.101437 2.8424,2.45942 1.3021,4.823739 2.4861,9.488717 3.6313,13.999939 0.5859,2.308096 1.1714,4.615719 1.7751,6.954256 0.3653,1.414897 1.8081,2.2651 3.223,1.900717 1.415,-0.365171 2.2657,-1.808084 1.9008,-3.222968 -0.6016,-2.331961 -1.1856,-4.632954 -1.7698,-6.934176 -1.1497,-4.530245 -2.3386,-9.214217 -3.6508,-14.07614 -0.9184,-3.402993 -3.4945,-5.792264 -6.5197,-6.290956 l -7.7286,-19.9333946 c -0.862,-2.223343 0.3886,-3.143703 1.2108,-3.494154 0.9162,-0.390927 2.8938,-0.602534 3.8211,1.388646 l 16.2455,34.9791506 c 7.5806,17.457272 7.7251,17.791317 8.4163,43.723106 0.031,1.204047 0.8733,2.234338 2.0467,2.506469 l 12.8333,2.978214 c 1.425,0.328759 2.8456,-0.556051 3.1762,-1.979389 0.3303,-1.423539 -0.5559,-2.844987 -1.9793,-3.175623 l -10.8421,-2.515515 c -0.6839,-24.959948 -1.1718,-26.084106 -8.7972,-43.644506 L 1157.0411,5.2728964 c -2.1655,-4.64967601 -7.1256,-5.54216401 -10.693,-4.022471 -0.8571,0.365223 -1.6709,0.890999 -2.3752,1.554465 -0.7222,-0.643969 -1.5505,-1.147295 -2.4173,-1.488965 -1.0147,-0.39993501 -2.134,-0.60606401 -3.2646,-0.59110001 z M 1095.351,9.9478924 c -0.9384,-0.01156 -1.8539,0.4777516 -2.3444,1.3545616 -0.7134,1.275354 -0.2576,2.886746 1.0177,3.600155 l 7.5422,4.218539 c 0.42,0.234799 0.8761,0.343061 1.3251,0.33697 0.9143,-0.01252 1.7973,-0.499262 2.2756,-1.354669 0.7134,-1.275377 0.2576,-2.887267 -1.0178,-3.600695 l -7.542,-4.217983 c -0.3984,-0.222786 -0.8298,-0.3316096 -1.2564,-0.3368646 z m 97.4196,-1.331253 c -0.4263,0.01687 -0.8549,0.137404 -1.2471,0.371084 l -7.4241,4.4225016 c -1.2554,0.748011 -1.667,2.371758 -0.9178,3.627453 0.5018,0.841999 1.3972,1.30447 2.3118,1.291969 0.4486,-0.0061 0.9022,-0.126869 1.3154,-0.373028 l 7.424,-4.423034 c 1.2554,-0.748011 1.667,-2.371249 0.9177,-3.6269556 -0.5143,-0.862732 -1.4422,-1.32709 -2.38,-1.290015 z m -63.6952,5.1320516 c -0.9377,0.0449 -1.8223,0.589147 -2.2593,1.493956 -0.6354,1.315322 -0.084,2.897059 1.2318,3.532651 0.3825,0.184759 0.7876,0.269362 1.1851,0.263918 0.9704,-0.01327 1.8972,-0.562092 2.3481,-1.4957 l 10e-4,-0.0016 c 0.6356,-1.315578 0.084,-2.896515 -1.2324,-3.532117 -0.4109,-0.198872 -0.8481,-0.281548 -1.2743,-0.261138 z m 15.0823,2.625501 5.5268,14.255712 c -2.5182,1.579953 -4.0177,4.540227 -3.5837,7.670391 0.1826,1.318947 0.5047,3.951593 0.8165,6.497076 0.3154,2.57533 0.6415,5.23816 0.8308,6.602806 0.82,5.918106 0.82,5.918149 -1.0645,9.727531 -0.4306,0.87034 -0.9664,1.953009 -1.5802,3.275431 -0.097,0.205648 -0.1905,0.413667 -0.2809,0.622967 -0.094,-0.200859 -0.1901,-0.400736 -0.2903,-0.598104 -0.6579,-1.321699 -1.2229,-2.389725 -1.677,-3.247478 -1.9879,-3.756426 -1.988,-3.7565 -1.33,-9.694807 0.1512,-1.367486 0.4042,-4.033433 0.6488,-6.611647 0.2425,-2.55757 0.4936,-5.202761 0.6405,-6.528341 0.3479,-3.140879 -1.2327,-6.059024 -3.7925,-7.56962 z m -19.1394,7.08297 c -1.0313,-0.0087 -2.0166,0.589543 -2.4518,1.595289 l -6.9267,16.114306 c -7.143,17.762485 -7.5997,18.899235 -7.6013,43.868602 l -10.7697,2.810824 c -1.4143,0.369664 -2.261,1.814482 -1.8919,3.22852 0.3139,1.202334 1.4052,1.99432 2.594,1.978064 0.2096,-0.0028 0.4225,-0.03065 0.6346,-0.08566 l 12.7476,-3.327284 c 1.1654,-0.30435 1.9784,-1.357496 1.9775,-2.56198 -0.018,-25.941 0.1177,-26.278849 7.2184,-43.93677 l 6.8739,-15.985899 c 0.5806,-1.340776 -0.04,-2.898696 -1.3768,-3.479496 -0.3353,-0.145124 -0.6841,-0.215636 -1.0278,-0.218507 z m -36.9004,14.757923 c -1.4612,0.01996 -2.6294,1.220855 -2.6094,2.681753 0.02,1.460872 1.2206,2.629395 2.6818,2.609433 l 8.6405,-0.118078 c 1.4611,-0.01997 2.6293,-1.2206 2.6094,-2.681727 -0.02,-1.460898 -1.2205,-2.629404 -2.6818,-2.609458 z m 104.0145,-1.421358 c -1.4609,0.01996 -2.6294,1.220854 -2.6095,2.681727 0.02,1.460897 1.2209,2.62942 2.6817,2.60944 l 8.6406,-0.118059 c 1.4608,-0.01998 2.6293,-1.220873 2.6094,-2.681746 -0.02,-1.460898 -1.2205,-2.629384 -2.6817,-2.60944 z m -28.9658,65.997423 c -1.0307,0.009 -2.0047,0.62455 -2.4227,1.63781 -0.5574,1.35076 0.086,2.89807 1.4375,3.45541 0.3418,0.14111 0.6962,0.20546 1.0441,0.20069 1.0265,-0.014 1.9945,-0.62884 2.4108,-1.63765 0.5569,-1.35104 -0.087,-2.89758 -1.4369,-3.45489 l -10e-5,4e-4 v -0.001 c -0.3376,-0.13941 -0.6876,-0.20346 -1.0311,-0.20043 z m 9.9012,4.01781 c -1.1277,-0.008 -2.1782,0.71166 -2.5392,1.84251 -0.4439,1.39203 0.3247,2.88041 1.7168,3.32445 6.2768,2.00171 13.2796,3.36439 20.2503,3.94099 0.087,0.007 0.1724,0.0101 0.2575,0.009 1.3466,-0.0184 2.4841,-1.05774 2.5974,-2.4273 0.1203,-1.4562 -0.9622,-2.73456 -2.4184,-2.8549 -6.5791,-0.54409 -13.1762,-1.82645 -19.0786,-3.70892 -0.261,-0.0831 -0.5256,-0.12391 -0.7858,-0.1257 z"
       id="path2"
       inkscape:connector-curvature="0" />
    <path
       inkscape:export-ydpi="112"
       inkscape:export-xdpi="112"
       inkscape:export-filename="/home/brunolgb/App/meu_compromisso/assets/icon.png"
       style="fill:#ffffff;fill-opacity:1;stroke:none;stroke-width:0.09768584px;stroke-linecap:butt;stroke-linejoin:miter;stroke-opacity:1"
       d="m 1150,231.6973 c 0,0 0.024,3.00963 -2.5412,6.19198 -2.5655,3.18236 -10.5091,9.30048 -13.3709,11.98942 -2.8615,2.68899 -5.9461,6.3269 -6.7833,10.02502 -0.8373,3.69814 -0.3839,4.32615 -0.3839,5.6868 0,1.36062 0.1809,1.58092 0.1809,1.58092 l 0.045,-0.55619 c 0,0 0.4278,-4.6239 4.0049,-8.47236 3.577,-3.84843 9.9172,-9.00441 11.8413,-10.82995 1.9242,-1.82554 4.7612,-4.73653 6.2907,-8.97966 1.5295,-4.24316 0.7155,-6.63598 0.7155,-6.63598 z m 0.058,7.16541 c -0.076,-0.002 -0.1221,1.6486 -1.5327,3.89161 -0.8321,1.31726 -1.8695,2.56631 -3.3631,4.12916 -1.3703,1.43201 -2.7781,2.75565 -4.5065,4.3575 -1.4479,1.34157 -3.1639,2.91053 -4.7294,4.43248 -4e-4,2.7e-4 -0.1188,0.11639 -0.1205,0.11656 -1.6193,1.57873 -3.0741,3.09643 -4.382,4.70666 -1.3157,1.61792 -2.36,3.18258 -3.0966,4.83565 -0.7896,1.76781 -1.0783,3.4393 -0.9558,4.92268 0.2345,2.72142 1.4554,3.97664 1.9403,4.48991 -0.024,-0.0348 -0.055,-0.0833 -0.085,-0.12452 0.042,0.0587 0.079,0.10977 0.1136,0.15455 -0.017,-0.0119 -0.017,-0.0177 -0.028,-0.03 0.102,0.14336 0.172,0.23765 0.1852,0.27299 4e-4,0.007 8e-4,0.008 0,0.0136 0.072,0.68228 0.2827,1.29886 0.5594,1.81615 0.3847,0.71725 0.8982,1.28072 1.3455,1.69065 1.0173,0.93292 1.8096,1.30195 2.1058,1.43418 0.017,0.007 0.061,0.038 0.061,0.038 v -0.0119 c 0.044,0.0206 0.075,0.0341 0.071,0.0387 0,-0.007 -0.028,-0.0295 -0.075,-0.0609 l -0.079,-0.68629 c 0.017,0.0206 0.034,0.0396 0.049,0.0584 -0.4189,-0.65212 -0.9954,-1.8283 -1.0735,-3.58271 -0.054,-1.09013 0.2289,-2.33016 0.9428,-3.59089 0.6643,-1.17301 1.576,-2.22891 2.7326,-3.37151 1.1674,-1.1511 2.3709,-2.1724 3.7995,-3.38848 1.2855,-1.09377 2.7499,-2.33579 4.1042,-3.63498 1.2653,-1.21305 2.5457,-2.57843 3.6413,-4.12799 1.0163,-1.43711 1.885,-3.07692 2.3909,-4.87744 0.411,-1.86548 0.4044,-3.87469 -0.017,-5.86231 -0.017,0.0404 -0.028,0.0807 -0.042,0.12097 0,-0.0205 -0.017,-0.0674 -0.017,-0.0674 0,0 -0.045,0.18113 -0.1324,0.4684 -0.049,0.12691 -0.1,0.25386 -0.1526,0.37984 -0.5585,1.30955 -1.3401,2.54095 -2.1893,3.68747 -1.0963,1.65849 -2.3794,3.1801 -3.6625,4.59085 -3.007,3.30486 -6.1195,6.13315 -8.715,8.86902 -1.3647,1.43747 -2.5296,2.76119 -3.535,4.18541 -0.9472,1.3366 -1.6427,2.61646 -1.9701,3.98035 -0.1493,0.62478 -0.199,1.23702 -0.151,1.81841 -0.082,-0.37631 -0.6232,-2.05347 -0.034,-4.53208 0.3138,-1.32899 0.9469,-2.70855 1.9752,-4.21441 0.9411,-1.37564 2.0741,-2.66619 3.4482,-4.0702 1.3437,-1.37194 2.7053,-2.63079 4.2558,-4.07478 0.1187,-0.11011 0.6417,-0.59699 0.76,-0.70725 3.0489,-2.84171 5.4422,-5.20901 7.3935,-8.03983 1.2092,-1.75475 2.0017,-3.40291 2.4684,-4.96519 0.8333,-2.7952 0.4781,-4.64797 0.3429,-5.24964 0,-0.14777 -0.027,-0.23088 -0.044,-0.23118 z m -16.5222,40.48758 c 0.2595,0.40373 0.4588,0.60755 0.4409,0.62024 0.1055,-0.0748 -0.1187,-0.24708 -0.4409,-0.62024 z m 16.5145,-32.29492 c 0,0.0716 0.017,0.14319 0.017,0.2147 -0.017,-0.0557 -0.024,-0.10694 -0.032,-0.14845 0,-0.0236 0,-0.0441 0.017,-0.0663 z m 5.2376,4.99361 c 0,0.007 0,0.0119 0,0.0205 -0.017,-0.008 -0.017,-0.0177 0,-0.0205 z m 0,0 c -0.017,0.0119 0,0.0324 0.024,0.066 -0.024,-0.0372 -0.032,-0.0595 -0.024,-0.066 z m 0.024,0.066 c 0.1611,0.26886 1.0335,1.3457 1.3173,3.23946 0.1204,0.77862 0.048,1.70154 -0.341,2.61672 -0.3512,0.83399 -0.9041,1.59891 -1.6033,2.40592 -0.7317,0.84104 -1.5111,1.59163 -2.4006,2.46121 -0.4659,0.45394 -0.9489,0.92912 -1.4235,1.41644 -1.479,1.51925 -2.6951,2.97776 -3.6106,4.60441 -0.7872,1.40323 -1.2517,2.78266 -1.4868,4.03353 -0.5794,3.09356 0.1408,4.94259 0.1154,4.94594 0.024,-0.003 0.02,-0.12284 0,-0.33065 0,0.0338 0.017,0.0679 0.02,0.0972 -0.049,0.60121 0.1187,0.90719 0.134,0.90398 0.049,-0.0119 -0.062,-0.54163 0.2386,-1.38591 0.1646,-0.45939 0.4133,-0.9266 0.8055,-1.50402 0.764,-1.12244 1.6241,-2.04825 2.9585,-3.42169 1.4847,-1.52354 3.9833,-3.89132 5.7129,-6.07084 0.5046,-0.63603 0.9702,-1.28021 1.3935,-1.94283 1.3808,-2.14697 2.1575,-4.28591 2.0612,-6.37744 -0.062,-1.24342 -0.4737,-2.31629 -0.9892,-3.13052 -1.17,-1.83908 -2.4603,-2.36779 -2.8242,-2.54824 l -0.1066,-0.078 c 0,0 0.017,0.0264 0.02,0.0315 0,-0.003 -0.017,-0.008 -0.017,-0.0119 0,0.007 0.017,0.0153 0.027,0.0236 0.017,0.0206 0.024,0.0345 0.065,0.0981 -0.031,-0.0301 -0.058,-0.0572 -0.075,-0.0776 z m 4.2415,4.90298 c 0.1123,1.2083 0.02,2.43457 -0.2847,3.60524 -0.19,1.09852 -0.5822,2.14933 -1.0845,3.11603 -1.1161,2.15339 -2.8236,4.02571 -4.3438,5.66136 -2.0136,2.16029 -3.5754,3.7248 -5.0643,5.74594 -1.865,2.52767 -2.756,4.85376 -3.037,6.88626 -0.017,0.13589 -0.02,0.26625 -0.02,0.38312 -4e-4,0.0548 -4e-4,0.10908 3e-4,0.16253 0,0.0177 4e-4,0.036 8e-4,0.0538 0,0.007 2e-4,0.0136 3e-4,0.0206 0.1089,2.21823 0.1983,3.53357 0.2554,3.70175 -0.017,0.0497 -0.02,0.0841 -0.02,0.0848 h 3e-4 c 0.089,0.0338 1.3341,-3.6648 5.3458,-8.23291 1.6136,-1.8372 3.7053,-3.7571 5.8172,-6.08722 0.8098,-0.89269 1.6309,-1.88254 2.3256,-2.98512 0.6339,-1.00582 1.1648,-2.13378 1.4784,-3.35529 0.3261,-1.27876 0.4041,-2.63472 0.2584,-3.99254 -0.2652,-1.5078 -0.7899,-2.98562 -1.4681,-4.43287 -0.052,-0.11284 -0.1066,-0.22501 -0.1611,-0.33655 z m 2.1979,8.12816 c -0.065,-0.007 -0.1561,0.67954 -0.5067,1.80471 -0.3575,1.15109 -0.9809,2.6627 -2.1535,4.3285 -1.1332,1.60937 -2.5011,3.04606 -4.2477,4.72383 -0.099,0.094 -0.1958,0.18761 -0.2934,0.28097 -1.9489,1.85747 -3.3418,3.09816 -4.788,4.76026 -1.2728,1.45816 -2.0296,2.68503 -2.4926,3.73457 -0.4384,0.99363 -0.5196,1.61067 -0.4734,1.6248 0,0.001 0.017,-0.003 0.027,-0.0177 0,0.0643 0.017,0.10943 0.066,0.14167 -0.058,0.007 -0.099,0.0136 -0.099,0.0264 0,-0.0496 1.274,0.33717 3.5001,0.15879 1.088,-1.08404 2.5621,-2.43539 4.1909,-4.06655 1.1562,-1.17216 2.4199,-2.52225 3.5997,-3.99941 0.3321,-0.41554 0.6502,-0.83231 0.9549,-1.2516 1.5194,-2.08702 2.5559,-4.04561 3.1108,-6.03037 1.0407,-3.72088 -0.2289,-5.89011 -0.3814,-6.18226 0,-0.007 0,-0.008 0,-0.0153 0,-0.0136 0,-0.0236 0,-0.0236 z m -23.1736,16.822 c -5.877,10e-4 -21.2912,3.20131 -21.2912,3.20131 l -8.9974,12.17906 c 0,0 10.2131,-1.86444 22.3718,-4.05302 12.159,-2.18856 12.3211,4.13409 12.3211,4.13409 l 0.1222,-8.43016 -4.2557,0.12164 v -2.95862 l 4.2062,-0.038 c -0.431,-0.10286 0.7002,-3.02872 -2.7888,-4.00055 -0.3879,-0.10807 -0.9659,-0.15608 -1.6876,-0.15574 z m 17.7789,0.58707 c 0,0 -5.3498,5.1067 -7.8626,8.268 -2.5128,3.1613 -2.5252,6.60526 -2.5252,6.60526 0,0 1.4106,-3.64651 4.7744,-4.09233 3.364,-0.44583 6.5658,-0.0206 10.1526,0.72941 3.5869,0.74977 19.7782,3.24231 19.7782,3.24231 l -8.8351,-12.07774 z m -10.3337,3.63689 c 0,0.008 0,0.0177 0,0.0264 9e-4,-0.008 0,-0.0136 0,-0.0236 0,3.8e-4 0,-1.7e-4 0,-3.6e-4 z m 1.863,2.92885 -2.0263,0.0206 0.2026,4.29609 c 0,0 0.3649,-2.45209 1.0944,-3.38427 z"
       id="path854"
       inkscape:connector-curvature="0" />
    <path
       style="opacity:1;fill:none;fill-opacity:1;stroke:none;stroke-width:0.26458335;stroke-linecap:round;stroke-linejoin:miter;stroke-miterlimit:4;stroke-dasharray:none;stroke-dashoffset:0;stroke-opacity:1;paint-order:fill markers stroke"
       id="path860"
       sodipodi:type="arc"
       sodipodi:cx="1144.8369"
       sodipodi:cy="38.940933"
       sodipodi:rx="94.07888"
       sodipodi:ry="94.07888"
       sodipodi:start="3.1772918"
       sodipodi:end="6.1551025"
       sodipodi:open="true"
       d="m 1050.818,35.583111 a 94.07888,94.07888 0 0 1 89.6748,-90.620709 94.07888,94.07888 0 0 1 97.6524,81.961564" />
    <text
       xml:space="preserve"
       style="font-style:normal;font-variant:normal;font-weight:normal;font-stretch:normal;font-size:32.88864136px;line-height:1.25;font-family:Brayles;-inkscape-font-specification:'Brayles, Normal';font-variant-ligatures:normal;font-variant-caps:normal;font-variant-numeric:normal;font-feature-settings:normal;text-align:start;letter-spacing:0px;word-spacing:0px;writing-mode:lr-tb;text-anchor:start;fill:#ffffff;fill-opacity:1;stroke:none;stroke-width:0.82221615;"
       id="text858"><textPath
         xlink:href="#path860"
         id="textPath862"
         startOffset="70"><tspan
   style="font-style:normal;font-variant:normal;font-weight:normal;font-stretch:normal;font-size:32.88864136px;font-family:Brayles;-inkscape-font-specification:'Brayles, Normal';font-variant-ligatures:normal;font-variant-caps:normal;font-variant-numeric:normal;font-feature-settings:normal;text-align:start;writing-mode:lr-tb;text-anchor:start;fill:#ffffff;fill-opacity:1;stroke:none;stroke-width:0.82221615;"
   id="tspan856">Compromisso</tspan></textPath></text>
    <text
       xml:space="preserve"
       style="font-style:normal;font-variant:normal;font-weight:normal;font-stretch:normal;font-size:19.30858612px;line-height:1.25;font-family:'Gobold Extra1';-inkscape-font-specification:'Gobold Extra1, Normal';font-variant-ligatures:normal;font-variant-caps:normal;font-variant-numeric:normal;font-feature-settings:normal;text-align:start;letter-spacing:0px;word-spacing:0px;writing-mode:lr-tb;text-anchor:start;fill:#d9d477;fill-opacity:1;stroke:none;stroke-width:0.48271617;stroke-opacity:1;"
       x="1122.8632"
       y="-98.002716"
       id="text873"><tspan
         sodipodi:role="line"
         id="tspan871"
         x="1122.8632"
         y="-98.002716"
         style="font-style:normal;font-variant:normal;font-weight:normal;font-stretch:normal;font-size:19.30858612px;font-family:'Gobold Extra1';-inkscape-font-specification:'Gobold Extra1, Normal';font-variant-ligatures:normal;font-variant-caps:normal;font-variant-numeric:normal;font-feature-settings:normal;text-align:start;writing-mode:lr-tb;text-anchor:start;fill:#d9d477;fill-opacity:1;stroke:none;stroke-width:0.48271617;stroke-opacity:1;">MEU</tspan></text>
    <text
       xml:space="preserve"
       style="font-style:normal;font-variant:normal;font-weight:bold;font-stretch:normal;font-size:7.05555582px;line-height:1.25;font-family:sans-serif;-inkscape-font-specification:'sans-serif, Bold';font-variant-ligatures:normal;font-variant-caps:normal;font-variant-numeric:normal;font-feature-settings:normal;text-align:start;letter-spacing:0px;word-spacing:0px;writing-mode:lr-tb;text-anchor:start;fill:#ffffff;fill-opacity:1;stroke:none;stroke-width:0.26458335;"
       x="1033.2412"
       y="330.25168"
       id="text877"><tspan
         sodipodi:role="line"
         id="tspan875"
         x="1033.2412"
         y="330.25168"
         style="font-style:normal;font-variant:normal;font-weight:bold;font-stretch:normal;font-size:7.05555582px;font-family:sans-serif;-inkscape-font-specification:'sans-serif, Bold';font-variant-ligatures:normal;font-variant-caps:normal;font-variant-numeric:normal;font-feature-settings:normal;text-align:start;letter-spacing:2.64583325px;writing-mode:lr-tb;text-anchor:start;fill:#ffffff;stroke-width:0.26458335;">IGREJA ADVENTISTA DO SÉTIMO DIA</tspan></text>
  </g>
</svg>
