<?xml version="1.0" encoding="UTF-8" standalone="no"?>
<!-- Created with Inkscape (http://www.inkscape.org/) -->

<svg
   xmlns:dc="http://purl.org/dc/elements/1.1/"
   xmlns:cc="http://creativecommons.org/ns#"
   xmlns:rdf="http://www.w3.org/1999/02/22-rdf-syntax-ns#"
   xmlns:svg="http://www.w3.org/2000/svg"
   xmlns="http://www.w3.org/2000/svg"
   xmlns:sodipodi="http://sodipodi.sourceforge.net/DTD/sodipodi-0.dtd"
   xmlns:inkscape="http://www.inkscape.org/namespaces/inkscape"
   width="939.6781"
   height="939.6781"
   viewBox="0 0 248.62317 248.62317"
   version="1.1"
   id="svg1620"
   inkscape:version="0.92.3 (2405546, 2018-03-11)"
   sodipodi:docname="logo-app.svg">
  <defs
     id="defs1614">
    <inkscape:path-effect
       effect="skeletal"
       id="path-effect880"
       is_visible="true"
       pattern="m 3.0238095,5 c 0,-2.76 2.24,-5 5.0000004,-5 2.7600001,0 5.0000001,2.24 5.0000001,5 0,2.76 -2.24,5 -5.0000001,5 C 5.2638095,10 3.0238095,7.76 3.0238095,5 Z"
       copytype="single_stretched"
       prop_scale="0.26458334"
       scale_y_rel="false"
       spacing="0"
       normal_offset="0"
       tang_offset="0"
       prop_units="false"
       vertical_pattern="false"
       fuse_tolerance="0" />
    <inkscape:path-effect
       effect="skeletal"
       id="path-effect875"
       is_visible="true"
       pattern="m 4.2763124,-7.8289371 c 0,-2.7599999 2.24,-4.9999999 5,-4.9999999 2.7599996,0 4.9999996,2.24 4.9999996,4.9999999 0,2.76 -2.24,5 -4.9999996,5 -2.76,0 -5,-2.24 -5,-5 z"
       copytype="single_stretched"
       prop_scale="0.26458334"
       scale_y_rel="false"
       spacing="0"
       normal_offset="0"
       tang_offset="0"
       prop_units="false"
       vertical_pattern="false"
       fuse_tolerance="0" />
    <inkscape:path-effect
       fuse_tolerance="0"
       vertical_pattern="false"
       prop_units="false"
       tang_offset="0"
       normal_offset="0"
       spacing="0"
       scale_y_rel="false"
       prop_scale="0.18716309"
       copytype="single_stretched"
       pattern="m -1.1103021,9.0788789 c 0,-2.76 2.24,-5 5,-5 2.76,0 5,2.24 5,5 0,2.7600001 -2.24,5.0000001 -5,5.0000001 -2.76,0 -5,-2.24 -5,-5.0000001 z"
       is_visible="true"
       id="path-effect888"
       effect="skeletal" />
    <inkscape:path-effect
       fuse_tolerance="0"
       vertical_pattern="false"
       prop_units="false"
       tang_offset="0"
       normal_offset="0"
       spacing="0"
       scale_y_rel="false"
       prop_scale="0.18716309"
       copytype="single_stretched"
       pattern="m -1.1103021,9.0788789 c 0,-2.76 2.24,-5 5,-5 2.76,0 5,2.24 5,5 0,2.7600001 -2.24,5.0000001 -5,5.0000001 -2.76,0 -5,-2.24 -5,-5.0000001 z"
       is_visible="true"
       id="path-effect885"
       effect="skeletal" />
    <inkscape:path-effect
       fuse_tolerance="0"
       vertical_pattern="false"
       prop_units="false"
       tang_offset="0"
       normal_offset="0"
       spacing="0"
       scale_y_rel="false"
       prop_scale="0.18716309"
       copytype="single_stretched"
       pattern="m -1.1103021,9.0788789 c 0,-2.76 2.24,-5 5,-5 2.76,0 5,2.24 5,5 0,2.7600001 -2.24,5.0000001 -5,5.0000001 -2.76,0 -5,-2.24 -5,-5.0000001 z"
       is_visible="true"
       id="path-effect882"
       effect="skeletal" />
    <inkscape:path-effect
       fuse_tolerance="0"
       vertical_pattern="false"
       prop_units="false"
       tang_offset="0"
       normal_offset="0"
       spacing="0"
       scale_y_rel="false"
       prop_scale="0.18716309"
       copytype="single_stretched"
       pattern="m -1.1103021,9.0788789 c 0,-2.76 2.24,-5 5,-5 2.76,0 5,2.24 5,5 0,2.7600001 -2.24,5.0000001 -5,5.0000001 -2.76,0 -5,-2.24 -5,-5.0000001 z"
       is_visible="true"
       id="path-effect879"
       effect="skeletal" />
    <inkscape:path-effect
       fuse_tolerance="0"
       vertical_pattern="false"
       prop_units="false"
       tang_offset="0"
       normal_offset="0"
       spacing="0"
       scale_y_rel="false"
       prop_scale="0.18716309"
       copytype="single_stretched"
       pattern="m -1.1103021,9.0788789 c 0,-2.76 2.24,-5 5,-5 2.76,0 5,2.24 5,5 0,2.7600001 -2.24,5.0000001 -5,5.0000001 -2.76,0 -5,-2.24 -5,-5.0000001 z"
       is_visible="true"
       id="path-effect876"
       effect="skeletal" />
    <inkscape:path-effect
       fuse_tolerance="0"
       vertical_pattern="false"
       prop_units="false"
       tang_offset="0"
       normal_offset="0"
       spacing="0"
       scale_y_rel="false"
       prop_scale="0.18716309"
       copytype="single_stretched"
       pattern="m -1.1103021,9.0788789 c 0,-2.76 2.24,-5 5,-5 2.76,0 5,2.24 5,5 0,2.7600001 -2.24,5.0000001 -5,5.0000001 -2.76,0 -5,-2.24 -5,-5.0000001 z"
       is_visible="true"
       id="path-effect873"
       effect="skeletal" />
    <inkscape:path-effect
       fuse_tolerance="0"
       vertical_pattern="false"
       prop_units="false"
       tang_offset="0"
       normal_offset="0"
       spacing="0"
       scale_y_rel="false"
       prop_scale="0.18716309"
       copytype="single_stretched"
       pattern="m -1.1103021,9.0788789 c 0,-2.76 2.24,-5 5,-5 2.76,0 5,2.24 5,5 0,2.7600001 -2.24,5.0000001 -5,5.0000001 -2.76,0 -5,-2.24 -5,-5.0000001 z"
       is_visible="true"
       id="path-effect870"
       effect="skeletal" />
    <inkscape:path-effect
       fuse_tolerance="0"
       vertical_pattern="false"
       prop_units="false"
       tang_offset="0"
       normal_offset="0"
       spacing="0"
       scale_y_rel="false"
       prop_scale="0.18716309"
       copytype="single_stretched"
       pattern="m -1.1103021,9.0788789 c 0,-2.76 2.24,-5 5,-5 2.76,0 5,2.24 5,5 0,2.7600001 -2.24,5.0000001 -5,5.0000001 -2.76,0 -5,-2.24 -5,-5.0000001 z"
       is_visible="true"
       id="path-effect867"
       effect="skeletal" />
    <inkscape:path-effect
       fuse_tolerance="0"
       vertical_pattern="false"
       prop_units="false"
       tang_offset="0"
       normal_offset="0"
       spacing="0"
       scale_y_rel="false"
       prop_scale="0.18716309"
       copytype="single_stretched"
       pattern="m -1.1103021,9.0788789 c 0,-2.76 2.24,-5 5,-5 2.76,0 5,2.24 5,5 0,2.7600001 -2.24,5.0000001 -5,5.0000001 -2.76,0 -5,-2.24 -5,-5.0000001 z"
       is_visible="true"
       id="path-effect864"
       effect="skeletal" />
    <inkscape:path-effect
       effect="skeletal"
       id="path-effect1412-9"
       is_visible="true"
       pattern="m -1.1103021,9.0788789 c 0,-2.76 2.24,-5 5,-5 2.76,0 5,2.24 5,5 0,2.7600001 -2.24,5.0000001 -5,5.0000001 -2.76,0 -5,-2.24 -5,-5.0000001 z"
       copytype="single_stretched"
       prop_scale="1"
       scale_y_rel="false"
       spacing="0"
       normal_offset="0"
       tang_offset="0"
       prop_units="false"
       vertical_pattern="false"
       fuse_tolerance="0" />
    <inkscape:path-effect
       effect="skeletal"
       id="path-effect1416-2"
       is_visible="true"
       pattern="m -1.1103021,9.0788789 c 0,-2.76 2.24,-5 5,-5 2.76,0 5,2.24 5,5 0,2.7600001 -2.24,5.0000001 -5,5.0000001 -2.76,0 -5,-2.24 -5,-5.0000001 z"
       copytype="single_stretched"
       prop_scale="1"
       scale_y_rel="false"
       spacing="0"
       normal_offset="0"
       tang_offset="0"
       prop_units="false"
       vertical_pattern="false"
       fuse_tolerance="0" />
    <inkscape:path-effect
       effect="skeletal"
       id="path-effect1432-6"
       is_visible="true"
       pattern="m -1.1103021,9.0788789 c 0,-2.76 2.24,-5 5,-5 2.76,0 5,2.24 5,5 0,2.7600001 -2.24,5.0000001 -5,5.0000001 -2.76,0 -5,-2.24 -5,-5.0000001 z"
       copytype="single_stretched"
       prop_scale="1"
       scale_y_rel="false"
       spacing="0"
       normal_offset="0"
       tang_offset="0"
       prop_units="false"
       vertical_pattern="false"
       fuse_tolerance="0" />
    <inkscape:path-effect
       effect="skeletal"
       id="path-effect1452-5"
       is_visible="true"
       pattern="m -1.1103021,9.0788789 c 0,-2.76 2.24,-5 5,-5 2.76,0 5,2.24 5,5 0,2.7600001 -2.24,5.0000001 -5,5.0000001 -2.76,0 -5,-2.24 -5,-5.0000001 z"
       copytype="single_stretched"
       prop_scale="1"
       scale_y_rel="false"
       spacing="0"
       normal_offset="0"
       tang_offset="0"
       prop_units="false"
       vertical_pattern="false"
       fuse_tolerance="0" />
    <inkscape:path-effect
       effect="skeletal"
       id="path-effect1456-3"
       is_visible="true"
       pattern="m -1.1103021,9.0788789 c 0,-2.76 2.24,-5 5,-5 2.76,0 5,2.24 5,5 0,2.7600001 -2.24,5.0000001 -5,5.0000001 -2.76,0 -5,-2.24 -5,-5.0000001 z"
       copytype="single_stretched"
       prop_scale="1"
       scale_y_rel="false"
       spacing="0"
       normal_offset="0"
       tang_offset="0"
       prop_units="false"
       vertical_pattern="false"
       fuse_tolerance="0" />
    <inkscape:path-effect
       effect="skeletal"
       id="path-effect1460-5"
       is_visible="true"
       pattern="m -1.1103021,9.0788789 c 0,-2.76 2.24,-5 5,-5 2.76,0 5,2.24 5,5 0,2.7600001 -2.24,5.0000001 -5,5.0000001 -2.76,0 -5,-2.24 -5,-5.0000001 z"
       copytype="single_stretched"
       prop_scale="1"
       scale_y_rel="false"
       spacing="0"
       normal_offset="0"
       tang_offset="0"
       prop_units="false"
       vertical_pattern="false"
       fuse_tolerance="0" />
    <inkscape:path-effect
       effect="skeletal"
       id="path-effect1464-7"
       is_visible="true"
       pattern="m -1.1103021,9.0788789 c 0,-2.76 2.24,-5 5,-5 2.76,0 5,2.24 5,5 0,2.7600001 -2.24,5.0000001 -5,5.0000001 -2.76,0 -5,-2.24 -5,-5.0000001 z"
       copytype="single_stretched"
       prop_scale="1"
       scale_y_rel="false"
       spacing="0"
       normal_offset="0"
       tang_offset="0"
       prop_units="false"
       vertical_pattern="false"
       fuse_tolerance="0" />
    <inkscape:path-effect
       effect="skeletal"
       id="path-effect1468-6"
       is_visible="true"
       pattern="m -1.1103021,9.0788789 c 0,-2.76 2.24,-5 5,-5 2.76,0 5,2.24 5,5 0,2.7600001 -2.24,5.0000001 -5,5.0000001 -2.76,0 -5,-2.24 -5,-5.0000001 z"
       copytype="single_stretched"
       prop_scale="1"
       scale_y_rel="false"
       spacing="0"
       normal_offset="0"
       tang_offset="0"
       prop_units="false"
       vertical_pattern="false"
       fuse_tolerance="0" />
    <inkscape:path-effect
       effect="skeletal"
       id="path-effect1476-3"
       is_visible="true"
       pattern="m -1.1103021,9.0788789 c 0,-2.76 2.24,-5 5,-5 2.76,0 5,2.24 5,5 0,2.7600001 -2.24,5.0000001 -5,5.0000001 -2.76,0 -5,-2.24 -5,-5.0000001 z"
       copytype="single_stretched"
       prop_scale="1"
       scale_y_rel="false"
       spacing="0"
       normal_offset="0"
       tang_offset="0"
       prop_units="false"
       vertical_pattern="false"
       fuse_tolerance="0" />
  </defs>
  <sodipodi:namedview
     id="base"
     pagecolor="#ffffff"
     bordercolor="#666666"
     borderopacity="1.0"
     inkscape:pageopacity="0.0"
     inkscape:pageshadow="2"
     inkscape:zoom="0.24748737"
     inkscape:cx="-414.87616"
     inkscape:cy="256.58961"
     inkscape:document-units="px"
     inkscape:current-layer="layer1"
     showgrid="false"
     inkscape:window-width="1366"
     inkscape:window-height="717"
     inkscape:window-x="0"
     inkscape:window-y="25"
     inkscape:window-maximized="1"
     showborder="false"
     inkscape:snap-nodes="false"
     inkscape:snap-others="false"
     fit-margin-top="0"
     fit-margin-left="0"
     fit-margin-right="0"
     fit-margin-bottom="0"
     showguides="true"
     units="px"
     inkscape:snap-global="true"
     inkscape:guide-bbox="true"
     inkscape:snap-bbox="true"
     inkscape:bbox-nodes="true" />
  <metadata
     id="metadata1617">
    <rdf:RDF>
      <cc:Work
         rdf:about="">
        <dc:format>image/svg+xml</dc:format>
        <dc:type
           rdf:resource="http://purl.org/dc/dcmitype/StillImage" />
        <dc:title />
      </cc:Work>
    </rdf:RDF>
  </metadata>
  <g
     inkscape:label="Camada 1"
     inkscape:groupmode="layer"
     id="layer1"
     transform="translate(-1662.7151,125.55232)">
    <rect
       style="fill:#1f8163;fill-opacity:1;stroke:none;stroke-width:1.61144638;stroke-miterlimit:4;stroke-dasharray:none;stroke-opacity:1"
       id="rect883"
       width="248.62317"
       height="248.62317"
       x="1662.7151"
       y="-125.55232" />
    <path
       inkscape:connector-curvature="0"
       id="path862"
       d="m 1786.2205,-18.882356 c -1.4609,0.0199 -2.6294,1.22084 -2.6094,2.68174 l 0.1181,8.6410354 c 0.02,1.461147 1.2207,2.629377 2.6817,2.60944 1.4612,-0.01997 2.6294,-1.220855 2.6095,-2.681727 l -0.1181,-8.6410584 c -0.02,-1.46087 -1.2209,-2.6294 -2.6818,-2.60943 z m -28.1318,7.932978 c -0.4262,0.01693 -0.8544,0.13723 -1.2465,0.371071 -1.2555,0.7477214 -1.667,2.3717464 -0.9179,3.6274344 l 4.4231,7.42404999 c 0.5017,0.84202901 1.397,1.30445501 2.3112,1.29196401 0.4489,-0.0061 0.902,-0.126846 1.3155,-0.373004 1.2554,-0.74773601 1.6669,-2.37176901 0.9177,-3.627452 l -4.4224,-7.424036 c -0.5144,-0.8631024 -1.4428,-1.3272304 -2.3806,-1.2900034 z m 56.4699,-0.771656 c -0.9385,-0.01151 -1.8536,0.477909 -2.3439,1.354544 l -4.2185,7.5421254 c -0.7134,1.275379 -0.2577,2.88726599 1.0177,3.60067699 0.42,0.23479901 0.8763,0.34307901 1.3251,0.33697001 0.9142,-0.01249 1.7972,-0.49926201 2.2756,-1.35465201 l 4.2185,-7.54214199 c 0.7133,-1.275352 0.2577,-2.8872484 -1.0176,-3.6006594 -0.3987,-0.223026 -0.8303,-0.331601 -1.2569,-0.336843 z m -33.7231,12.44568939 c -2.8889,0.03832 -5.8498,1.52079601 -7.3145,4.90426701 -0.5804,1.341025 0.04,2.898151 1.3773,3.478972 1.3409,0.580725 2.8985,-0.03577 3.4789,-1.376794 0.8726,-2.015536 2.8555,-1.858008 3.7823,-1.492044 0.8313,0.327591 2.1062,1.212936 1.3052,3.45928 l -7.1799,20.1375116 c -3.0102,0.581728 -5.5208,3.040231 -6.3453,6.466265 -1.18,4.902432 -2.2424,9.623029 -3.2693,14.188283 -0.5198,2.310694 -1.0394,4.621149 -1.5758,6.962826 -0.3264,1.424343 0.564,2.843219 1.9886,3.169311 1.4248,0.327438 2.8436,-0.56346 3.1699,-1.988062 0.5379,-2.348325 1.059,-4.666185 1.58,-6.983591 1.0226,-4.546145 2.0802,-9.246903 3.2513,-14.110504 0.329,-1.366935 1.3133,-2.674462 2.7737,-2.536186 0.026,0.0036 0.052,0.0061 0.079,0.0089 1.3458,0.171314 2.3134,1.39594 2.1636,2.749321 -0.1511,1.367507 -0.4042,4.033456 -0.6486,6.611675 -0.2427,2.557563 -0.4935,5.202779 -0.6406,6.528333 -0.8065,7.277388 -0.5258,8.145726 1.9129,12.753082 0.4633,0.875355 0.9883,1.867487 1.625,3.146903 2.8249,5.577913 2.4678,13.281268 -1.1235,24.243536 -3.8314,11.69369 -23.785,19.02889 -40.703,20.89535 -1.4524,0.16035 -2.5002,1.46757 -2.34,2.91993 0.1507,1.36623 1.3162,2.37433 2.6628,2.35593 0.085,-0.001 0.1712,-0.007 0.2577,-0.0159 19.1703,-2.11528 40.5659,-10.51349 45.1507,-24.507693 0.5447,-1.662276 1.0186,-3.261963 1.4265,-4.805156 0.4498,1.531476 0.9672,3.117339 1.5571,4.764392 1.1062,3.087395 3.094,6.005604 5.9088,8.673537 0.5213,0.49433 1.1905,0.73417 1.856,0.72506 0.689,-0.009 1.3732,-0.28615 1.8844,-0.82526 1.0054,-1.06051 0.9603,-2.735064 -0.1002,-3.740356 -2.2069,-2.091996 -3.7436,-4.318357 -4.567,-6.61739 -3.89,-10.860016 -4.4574,-18.550849 -1.778,-24.220403 0.5936,-1.279575 1.0914,-2.285833 1.5307,-3.173504 2.3118,-4.671993 2.5683,-5.547954 1.5632,-12.800578 -0.1833,-1.323143 -0.5069,-3.964998 -0.8199,-6.519744 -0.3143,-2.566097 -0.6394,-5.219427 -0.8279,-6.580116 -0.091,-0.654444 0.082,-1.308923 0.4872,-1.843353 0.396,-0.523784 0.9637,-0.865086 1.6018,-0.964055 0.026,-0.0033 0.051,-0.007 0.077,-0.01079 1.4566,-0.179725 2.4761,1.101437 2.8424,2.45942 1.3021,4.823739 2.4861,9.488717 3.6313,13.999939 0.5859,2.308096 1.1714,4.615719 1.7751,6.954256 0.3653,1.414897 1.8081,2.2651 3.223,1.900717 1.415,-0.365171 2.2657,-1.808084 1.9008,-3.222968 -0.6016,-2.331961 -1.1856,-4.632954 -1.7698,-6.934176 -1.1497,-4.530245 -2.3386,-9.214217 -3.6508,-14.07614 -0.9184,-3.402993 -3.4945,-5.792264 -6.5197,-6.290956 l -7.7286,-19.9333946 c -0.862,-2.223343 0.3886,-3.143703 1.2108,-3.494154 0.9162,-0.390927 2.8938,-0.602534 3.8211,1.388646 l 16.2455,34.9791506 c 7.5806,17.457272 7.7251,17.791317 8.4163,43.723106 0.031,1.204047 0.8733,2.234338 2.0467,2.506469 l 12.8333,2.978214 c 1.425,0.328759 2.8456,-0.556051 3.1762,-1.979389 0.3303,-1.423539 -0.5559,-2.844987 -1.9793,-3.175623 l -10.8421,-2.515515 c -0.6839,-24.959948 -1.1718,-26.084106 -8.7972,-43.644506 L 1799.5862,5.2728964 c -2.1655,-4.64967601 -7.1256,-5.54216401 -10.693,-4.022471 -0.8571,0.365223 -1.6709,0.890999 -2.3752,1.554465 -0.7222,-0.643969 -1.5505,-1.147295 -2.4173,-1.488965 -1.0147,-0.39993501 -2.134,-0.60606401 -3.2646,-0.59110001 z m -42.9394,9.22323701 c -0.9384,-0.01156 -1.8539,0.4777516 -2.3444,1.3545616 -0.7134,1.275354 -0.2576,2.886746 1.0177,3.600155 l 7.5422,4.218539 c 0.42,0.234799 0.8761,0.343061 1.3251,0.33697 0.9143,-0.01252 1.7973,-0.499262 2.2756,-1.354669 0.7134,-1.275377 0.2576,-2.887267 -1.0178,-3.600695 l -7.542,-4.217983 c -0.3984,-0.222786 -0.8298,-0.3316096 -1.2564,-0.3368646 z m 97.4196,-1.331253 c -0.4263,0.01687 -0.8549,0.137404 -1.2471,0.371084 l -7.4241,4.4225016 c -1.2554,0.748011 -1.667,2.371758 -0.9178,3.627453 0.5018,0.841999 1.3972,1.30447 2.3118,1.291969 0.4486,-0.0061 0.9022,-0.126869 1.3154,-0.373028 l 7.424,-4.423034 c 1.2554,-0.748011 1.667,-2.371249 0.9177,-3.6269556 -0.5143,-0.862732 -1.4422,-1.32709 -2.38,-1.290015 z m -63.6952,5.1320516 c -0.9377,0.0449 -1.8223,0.589147 -2.2593,1.493956 -0.6354,1.315322 -0.084,2.897059 1.2318,3.532651 0.3825,0.184759 0.7876,0.269362 1.1851,0.263918 0.9704,-0.01327 1.8972,-0.562092 2.3481,-1.4957 l 10e-4,-0.0016 c 0.6356,-1.315578 0.084,-2.896515 -1.2324,-3.532117 -0.4109,-0.198872 -0.8481,-0.281548 -1.2743,-0.261138 z m 15.0823,2.625501 5.5268,14.255712 c -2.5182,1.579953 -4.0177,4.540227 -3.5837,7.670391 0.1826,1.318947 0.5047,3.951593 0.8165,6.497076 0.3154,2.57533 0.6415,5.23816 0.8308,6.602806 0.82,5.918106 0.82,5.918149 -1.0645,9.727531 -0.4306,0.87034 -0.9664,1.953009 -1.5802,3.275431 -0.097,0.205648 -0.1905,0.413667 -0.2809,0.622967 -0.094,-0.200859 -0.1901,-0.400736 -0.2903,-0.598104 -0.6579,-1.321699 -1.2229,-2.389725 -1.677,-3.247478 -1.9879,-3.756426 -1.988,-3.7565 -1.33,-9.694807 0.1512,-1.367486 0.4042,-4.033433 0.6488,-6.611647 0.2425,-2.55757 0.4936,-5.202761 0.6405,-6.528341 0.3479,-3.140879 -1.2327,-6.059024 -3.7925,-7.56962 z m -19.1394,7.08297 c -1.0313,-0.0087 -2.0166,0.589543 -2.4518,1.595289 l -6.9267,16.114306 c -7.143,17.762485 -7.5997,18.899235 -7.6013,43.868602 l -10.7697,2.810824 c -1.4143,0.369664 -2.261,1.814482 -1.8919,3.22852 0.3139,1.202334 1.4052,1.99432 2.594,1.978064 0.2096,-0.0028 0.4225,-0.03065 0.6346,-0.08566 l 12.7476,-3.327284 c 1.1654,-0.30435 1.9784,-1.357496 1.9775,-2.56198 -0.018,-25.941 0.1177,-26.278849 7.2184,-43.93677 l 6.8739,-15.985899 c 0.5806,-1.340776 -0.04,-2.898696 -1.3768,-3.479496 -0.3353,-0.145124 -0.6841,-0.215636 -1.0278,-0.218507 z m -36.9004,14.757923 c -1.4612,0.01996 -2.6294,1.220855 -2.6094,2.681753 0.02,1.460872 1.2206,2.629395 2.6818,2.609433 l 8.6405,-0.118078 c 1.4611,-0.01997 2.6293,-1.2206 2.6094,-2.681727 -0.02,-1.460898 -1.2205,-2.629404 -2.6818,-2.609458 z m 104.0145,-1.421358 c -1.4609,0.01996 -2.6294,1.220854 -2.6095,2.681727 0.02,1.460897 1.2209,2.62942 2.6817,2.60944 l 8.6406,-0.118059 c 1.4608,-0.01998 2.6293,-1.220873 2.6094,-2.681746 -0.02,-1.460898 -1.2205,-2.629384 -2.6817,-2.60944 z m -28.9658,65.997423 c -1.0307,0.009 -2.0047,0.62455 -2.4227,1.63781 -0.5574,1.35076 0.086,2.89807 1.4375,3.45541 0.3418,0.14111 0.6962,0.20546 1.0441,0.20069 1.0265,-0.014 1.9945,-0.62884 2.4108,-1.63765 0.5569,-1.35104 -0.087,-2.89758 -1.4369,-3.45489 l -10e-5,4e-4 v -0.001 c -0.3376,-0.13941 -0.6876,-0.20346 -1.0311,-0.20043 z m 9.9012,4.01781 c -1.1277,-0.008 -2.1782,0.71166 -2.5392,1.84251 -0.4439,1.39203 0.3247,2.88041 1.7168,3.32445 6.2768,2.00171 13.2796,3.36439 20.2503,3.94099 0.087,0.007 0.1724,0.0101 0.2575,0.009 1.3466,-0.0184 2.4841,-1.05774 2.5974,-2.4273 0.1203,-1.4562 -0.9622,-2.73456 -2.4184,-2.8549 -6.5791,-0.54409 -13.1762,-1.82645 -19.0786,-3.70892 -0.261,-0.0831 -0.5256,-0.12391 -0.7858,-0.1257 z"
       style="fill:#d9d477;fill-opacity:1;stroke-width:0.26458177" />
    <g
       aria-label="Compromisso"
       style="font-style:normal;font-variant:normal;font-weight:normal;font-stretch:normal;font-size:32.88864136px;line-height:1.25;font-family:Brayles;-inkscape-font-specification:'Brayles, Normal';font-variant-ligatures:normal;font-variant-caps:normal;font-variant-numeric:normal;font-feature-settings:normal;text-align:start;letter-spacing:0px;word-spacing:0px;writing-mode:lr-tb;text-anchor:start;fill:#ffffff;fill-opacity:1;stroke:none;stroke-width:0.82221615"
       id="text870"
       transform="translate(2.5095939)">
      <path
         d="m 1723.4572,-34.148875 q 1.2685,-1.097352 1.7652,-2.483722 0.5001,-1.43276 0.5725,-2.756561 0.072,-1.323801 -0.1105,-2.339654 -0.2044,-1.040727 -0.2952,-1.397046 -0.061,-0.121011 0.063,-0.228595 0.075,-0.06455 0.1889,-0.03296 0.1177,-0.0148 0.1325,0.102851 0.1802,0.409424 0.5588,1.299534 0.382,0.84372 0.762,2.037045 0.3833,1.146935 0.6322,2.540624 0.2523,1.347299 0.13,2.714134 -0.076,1.370191 -0.637,2.68194 -0.5149,1.315106 -1.7337,2.369425 -1.7909,1.549202 -3.7278,1.572258 -1.937,0.02306 -3.7934,-1.067254 -1.8564,-1.09031 -3.5562,-3.055322 -1.7213,-1.989885 -3.0595,-4.441691 -1.3381,-2.451807 -2.2171,-5.12687 -0.8757,-2.721453 -1.0904,-5.231865 -0.2147,-2.510413 0.3108,-4.61751 0.5504,-2.128615 2.0677,-3.441133 1.1193,-0.968252 2.2394,-0.980468 1.1201,-0.01222 2.1683,0.646549 1.0482,0.658764 2.0098,1.870855 0.94,1.187218 1.6743,2.639349 0.7343,1.452132 1.2481,3.051524 0.5172,1.553001 0.6948,2.96485 0.2025,1.390333 0.054,2.475469 -0.1485,1.085136 -0.7455,1.601536 -0.8705,0.753085 -1.7916,0.593167 -0.9178,-0.206308 -1.6231,-0.770311 -0.7053,-0.564002 -1.0792,-1.197288 -0.3954,-0.658158 -0.1715,-0.851809 0.1788,0.106208 0.3644,0.119636 0.1856,0.01343 0.4242,-0.06257 0.2387,-0.076 0.5372,-0.334197 0.4974,-0.430334 0.4536,-1.436117 -0.065,-1.030656 -0.4668,-2.248855 -0.4015,-1.218199 -1.078,-2.502929 -0.6764,-1.28473 -1.3764,-2.244729 -0.7,-0.959998 -1.3656,-1.427864 -0.6623,-0.514255 -1.0603,-0.169988 -0.597,0.516401 -0.6446,1.818685 -0.048,1.302285 0.3385,3.05565 0.3861,1.753365 1.1265,3.765537 0.7189,1.987298 1.698,3.923473 1.004,1.914659 2.1673,3.561047 1.1666,1.599997 2.3984,2.621795 1.2567,1.00028 2.4776,1.205213 1.2458,0.183416 2.3652,-0.784836 z"
         style="font-style:normal;font-variant:normal;font-weight:normal;font-stretch:normal;font-size:32.88864136px;font-family:Brayles;-inkscape-font-specification:'Brayles, Normal';font-variant-ligatures:normal;font-variant-caps:normal;font-variant-numeric:normal;font-feature-settings:normal;text-align:start;writing-mode:lr-tb;text-anchor:start;fill:#ffffff;fill-opacity:1;stroke-width:0.82221615"
         id="path858"
         inkscape:connector-curvature="0" />
      <path
         d="m 1737.2261,-49.620715 q 0.083,-0.05308 0.1917,-0.0053 0.1363,0.03008 0.1339,0.148643 0.094,0.330314 0.246,0.935496 0.1521,0.605181 0.2642,1.392033 0.1398,0.769157 0.1586,1.654511 0.029,0.839935 -0.078,1.649785 -0.1251,0.782127 -0.4672,1.468694 -0.3144,0.668873 -0.952,1.075847 -0.8317,0.530837 -1.9217,0.290153 -0.5457,1.284662 -1.5991,1.957055 -1.1644,0.743171 -2.2214,0.676491 -1.0747,-0.0944 -2.0013,-0.751509 -0.9166,-0.702526 -1.6698,-1.821475 -0.7709,-1.146672 -1.3277,-2.508041 -0.529,-1.379064 -0.8564,-2.808849 -0.3172,-1.475203 -0.3644,-2.771676 -0.019,-1.314168 0.2112,-2.358772 0.2584,-1.062299 0.853,-1.59786 -0.062,-1.442755 0.7692,-1.973591 0.998,-0.637004 2.0349,-0.479489 1.0193,0.129791 1.9813,0.842345 0.962,0.712553 1.806,1.851559 0.8441,1.139007 1.4917,2.520433 0.6476,1.381426 1.0103,2.866657 0.3905,1.467536 0.4453,2.837151 -0.012,0.163975 -0.2796,0.295503 -0.2395,0.113834 -0.6152,0.197581 -0.348,0.06605 -0.7137,0.104384 -0.338,0.02064 -0.492,-0.03717 0.742,0.306736 1.5088,0.285522 0.7491,-0.04894 1.4699,-0.508996 0.4713,-0.300807 0.6772,-1.01746 0.2159,-0.76207 0.2779,-1.581949 0.044,-0.847601 0.013,-1.568979 -0.049,-0.7491 -0.08,-1.041662 -0.015,-0.146282 0.096,-0.21706 z m -9.6261,-4.078413 q -0.3881,0.247724 -0.4099,0.885932 -0.022,0.638208 0.2164,1.500563 0.2383,0.862355 0.729,1.875716 0.5007,0.967943 1.1655,1.948277 0.647,0.952612 1.4604,1.799056 0.7956,0.81872 1.6615,1.319518 -0.036,-0.913076 -0.3255,-1.977158 -0.279,-1.1095 -0.7042,-2.203667 -0.443,-1.121891 -0.9614,-2.117557 -0.5362,-1.023389 -1.0694,-1.736522 -0.5231,-0.75855 -0.9903,-1.123674 -0.4671,-0.365124 -0.7721,-0.170484 z m -0.9332,3.795019 q -0.087,0.719015 0.1032,1.689899 0.1728,0.943162 0.5272,1.926437 0.3822,0.965581 0.903,1.842689 0.5209,0.877108 1.1018,1.481711 0.581,0.604603 1.1968,0.835837 0.6158,0.231233 1.1703,-0.122658 0.1108,-0.07078 0.194,-0.123861 0.065,-0.08081 0.1587,-0.179308 -0.8081,-0.654745 -1.5937,-1.518884 -0.758,-0.881833 -1.4781,-1.826778 -0.7102,-0.990362 -1.274,-1.996057 -0.5816,-1.033418 -1.0092,-2.009027 z"
         style="font-style:normal;font-variant:normal;font-weight:normal;font-stretch:normal;font-size:32.88864136px;font-family:Brayles;-inkscape-font-specification:'Brayles, Normal';font-variant-ligatures:normal;font-variant-caps:normal;font-variant-numeric:normal;font-feature-settings:normal;text-align:start;writing-mode:lr-tb;text-anchor:start;fill:#ffffff;fill-opacity:1;stroke-width:0.82221615"
         id="path860"
         inkscape:connector-curvature="0" />
      <path
         d="m 1757.1751,-58.295858 q 0.1217,-0.05014 0.2201,0.01601 0.098,0.06615 0.1056,0.169903 0.034,0.341667 0.047,0.976723 0.043,0.622522 0.015,1.416808 -0.028,0.794286 -0.1353,1.656583 -0.1195,0.831891 -0.3982,1.622703 -0.2609,0.747871 -0.7186,1.363444 -0.4273,0.603038 -1.0962,0.878806 -1.0338,0.426188 -1.8068,0.104504 -0.7425,-0.334218 -1.3314,-1.15866 -0.5585,-0.836977 -0.974,-2.017484 -0.3851,-1.193041 -0.6611,-2.466628 -0.2582,-1.316528 -0.4609,-2.584779 -0.1722,-1.280786 -0.3354,-2.280717 -0.1328,-1.012466 -0.2672,-1.597383 -0.1344,-0.584917 -0.3169,-0.509707 -0.2736,0.112814 -0.5844,1.34371 -0.2929,1.187955 -0.3887,3.112858 -0.065,1.912368 0.2165,4.321908 0.3122,2.397006 1.2972,4.872445 l 0.025,0.06081 0.1128,0.273656 q 0.1379,0.334469 -0.1213,0.65479 -0.2718,0.289916 -0.88,0.540614 -1.0338,0.426187 -1.8067,0.104504 -0.7425,-0.334218 -1.301,-1.171195 -0.5585,-0.836978 -0.9436,-2.030019 -0.3547,-1.205576 -0.6003,-2.491698 -0.2278,-1.329063 -0.4,-2.609849 -0.1419,-1.293321 -0.2747,-2.305787 -0.1328,-1.012466 -0.2672,-1.597383 -0.1344,-0.584917 -0.3169,-0.509707 -0.2736,0.112814 -0.6577,1.338374 -0.3967,1.195154 -0.5533,3.145126 -0.1262,1.937438 0.1629,4.450732 0.289,2.513294 1.3921,5.189042 0.088,0.212843 -0.1054,0.434748 -0.1627,0.209369 -0.4595,0.438472 -0.279,0.186161 -0.6314,0.366987 -0.3523,0.180825 -0.626,0.293639 -0.9426,0.388583 -1.5493,-0.392918 -0.6372,-0.768966 -1.0618,-2.230327 -0.4675,-1.479232 -0.7867,-3.375341 -0.3192,-1.896109 -0.6437,-3.71887 -0.3371,-1.853168 -0.7868,-3.375341 -0.4496,-1.522174 -1.1172,-2.278605 -0.1379,-0.334468 0.2502,-0.601176 0.406,-0.309649 0.6796,-0.422463 0.4078,-0.132548 0.8658,-0.143471 0.4758,-0.05386 0.8802,0.06404 0.4222,0.07496 0.73,0.303812 0.3256,0.185912 0.451,0.489974 0.088,0.212843 0.181,0.95699 0.1238,0.731611 0.3067,1.865702 0.1829,1.134091 0.4304,2.597314 0.2475,1.463224 0.6131,3.126755 -0.3139,-1.969456 -0.2861,-3.973043 0.028,-2.003586 0.2794,-3.636962 0.282,-1.64591 0.7466,-2.76238 0.4647,-1.11647 1.0728,-1.367168 0.2737,-0.112815 0.7673,-0.20962 0.5116,-0.139746 1.068,-0.08452 0.5564,0.05523 1.0359,0.355563 0.51,0.287803 0.7857,0.95674 0.112,2.515156 0.3203,4.31471 0.2386,1.787019 0.5093,3.133954 -0.1904,-1.842495 -0.1429,-3.711922 0.065,-1.912368 0.2938,-3.429455 0.2462,-1.560029 0.6322,-2.608487 0.4164,-1.060994 0.9637,-1.286623 0.2736,-0.112814 0.8103,-0.191748 0.5545,-0.121875 1.1538,-0.04878 0.5993,0.0731 1.1522,0.378772 0.5529,0.305674 0.8287,0.974611 -0.062,0.452619 -0.026,1.576037 0.054,1.080478 0.221,2.434611 0.1544,1.323726 0.4198,2.744008 0.2653,1.420282 0.5949,2.565046 0.3171,1.114358 0.7271,1.763561 0.4099,0.649203 0.8964,0.448645 0.3953,-0.162954 0.6634,-0.807071 0.2859,-0.687059 0.4305,-1.458137 0.1624,-0.81402 0.2283,-1.517087 0.084,-0.746009 0.1051,-1.039399 0.072,-0.171764 0.1323,-0.196834 z"
         style="font-style:normal;font-variant:normal;font-weight:normal;font-stretch:normal;font-size:32.88864136px;font-family:Brayles;-inkscape-font-specification:'Brayles, Normal';font-variant-ligatures:normal;font-variant-caps:normal;font-variant-numeric:normal;font-feature-settings:normal;text-align:start;writing-mode:lr-tb;text-anchor:start;fill:#ffffff;fill-opacity:1;stroke-width:0.82221615"
         id="path863"
         inkscape:connector-curvature="0" />
      <path
         d="m 1772.2419,-61.291063 q 0.097,-0.02025 0.1812,0.06281 0.085,0.08306 0.073,0.186377 -0.041,0.445452 -0.1619,1.310922 -0.1209,0.86547 -0.4281,1.803638 -0.3141,0.90598 -0.8939,1.666095 -0.5477,0.753362 -1.4168,0.935661 -0.2897,0.06077 -0.8062,0.0011 -0.5166,-0.05966 -1.1433,-0.163448 -0.6334,-0.135973 -1.299,-0.265194 -0.6401,-0.16816 -1.2346,-0.278697 -0.012,0.103317 0.364,0.293304 0.4013,0.151047 0.8416,0.32753 0.4724,0.169732 0.8483,0.359719 0.4014,0.151047 0.3505,0.228927 -0.38,0.751791 -0.9105,1.266333 -0.4984,0.50779 -1.1422,0.642826 -0.9012,0.189051 -1.5938,-0.06892 -0.6672,-0.296913 -1.0784,-0.815533 -0.418,-0.550809 -0.592,-1.220008 -0.1807,-0.701387 -0.1091,-1.321284 0.065,-0.652085 0.3701,-1.119364 0.3307,-0.50622 0.8779,-0.621 0.354,-0.07427 0.6894,-0.07741 0.3354,-0.0031 0.6708,-0.0063 0.2771,-1.402306 0.358,-3.099486 0.081,-1.69718 -0.016,-3.121781 -0.072,-1.46354 -0.3641,-2.376741 -0.2669,-0.95214 -0.7176,-0.857615 -0.1931,0.04051 -0.6224,1.037875 -0.3971,0.990612 -0.8081,2.555429 -0.3856,1.525878 -0.6835,3.470201 -0.2724,1.905383 -0.2027,3.839813 l -0.039,-0.02544 q 0.051,2.005558 0.1986,3.99086 0.1798,1.978551 0.453,3.601461 0.28,1.655098 0.6907,2.8123 0.4108,1.157202 0.9949,1.538747 0.047,0.225317 -0.1832,0.408084 -0.1983,0.176015 -0.5389,0.314661 -0.3016,0.164082 -0.6811,0.277292 -0.3795,0.11321 -0.6692,0.173976 -1.191,0.249817 -1.9272,-0.53667 -0.7363,-0.786487 -1.118,-2.285826 -0.4072,-1.460399 -0.5293,-3.484641 -0.1154,-1.992054 -0.1037,-4.178808 0.01,-2.218942 0.074,-4.451388 0.069,-2.232445 0.071,-4.148191 0.027,-1.954685 -0.1093,-3.404722 -0.1361,-1.450036 -0.5354,-2.071973 -0.074,-0.354069 0.3561,-0.545159 0.4558,-0.230029 0.7455,-0.290796 0.8826,-0.117922 1.731,0.241797 0.8416,0.32753 0.9834,1.003481 0.014,0.06438 0.026,0.767334 0.01,0.67077 -0.022,1.819181 0.2362,-0.956853 0.5637,-1.798457 0.353,-0.880544 0.7465,-1.567959 0.4256,-0.694167 0.9375,-1.137581 0.5373,-0.482354 1.1811,-0.61739 0.8047,-0.168795 1.4615,0.399127 0.65,0.535734 1.1049,1.582868 0.4803,1.008194 0.7706,2.392284 0.2904,1.384089 0.3824,2.944194 0.1174,1.521165 0.01,3.089593 -0.082,1.529487 -0.3731,2.867417 0.6147,0.207101 0.9688,0.132831 0.6759,-0.141788 1.1608,-0.713954 0.4849,-0.572166 0.814,-1.246078 0.3545,-0.712852 0.5616,-1.327568 0.2004,-0.646904 0.2429,-0.924665 0.1017,-0.155759 0.1983,-0.176015 z m -9.0565,6.167448 q 0.2897,-0.06077 0.5,-0.340098 0.2424,-0.286083 0.4511,-0.733107 -0.581,-0.04616 -0.7741,-0.0056 -0.2897,0.06077 -0.4491,0.262218 -0.1593,0.201451 -0.1832,0.408084 -0.031,0.174444 0.068,0.321881 0.1303,0.140685 0.3878,0.08667 z"
         style="font-style:normal;font-variant:normal;font-weight:normal;font-stretch:normal;font-size:32.88864136px;font-family:Brayles;-inkscape-font-specification:'Brayles, Normal';font-variant-ligatures:normal;font-variant-caps:normal;font-variant-numeric:normal;font-feature-settings:normal;text-align:start;writing-mode:lr-tb;text-anchor:start;fill:#ffffff;fill-opacity:1;stroke-width:0.82221615"
         id="path865"
         inkscape:connector-curvature="0" />
      <path
         d="m 1769.5401,-56.955725 q 0.5905,-0.04166 1.2073,-0.645667 0.6145,-0.636816 1.2058,-1.601703 0.5586,-0.962572 1.0399,-2.084551 0.5119,-1.157101 0.8971,-2.23933 0.418,-1.084543 0.6531,-1.958357 0.2351,-0.873814 0.2707,-1.304936 -0.525,0.03703 -0.8503,-0.368632 -0.2949,-0.440785 -0.4068,-1.092298 -0.1119,-0.651514 0,-1.417649 0.1108,-0.766135 0.4254,-1.447736 0.3474,-0.683915 0.8751,-1.149752 0.5581,-0.500958 1.3455,-0.556503 0.4593,-0.0324 0.7402,0.21154 0.281,0.243942 0.3744,0.632999 0.1239,0.353935 0.088,0.785056 -0.038,0.398314 -0.2138,0.707464 -0.1455,0.274029 -0.5369,0.334609 -0.3914,0.06058 -0.7592,-0.01238 0.6604,0.480941 1.2698,0.240125 0.6095,-0.240816 1.1371,-0.706653 0.5276,-0.465837 0.9897,-0.927045 0.4597,-0.494016 0.8533,-0.521788 0.3937,-0.02777 0.9182,0.396811 0.555,0.389462 0.9927,0.985025 0.4377,0.595562 0.6152,1.242447 0.1752,0.614077 -0.1907,1.035535 -0.3073,0.318408 -0.5729,1.227344 -0.2679,0.876128 -0.4821,2.045207 -0.2166,1.136271 -0.3255,2.396827 -0.1112,1.22775 -0.1051,2.249399 0.039,1.019334 0.2516,1.696712 0.2431,0.642256 0.7024,0.609854 0.4265,-0.03009 0.8534,-0.521788 0.4597,-0.494015 0.8446,-1.11463 0.3825,-0.653422 0.6712,-1.234286 0.2864,-0.613672 0.3686,-0.850265 0.089,-0.138172 0.2204,-0.147429 0.2625,-0.01852 0.2177,0.281377 -0.075,0.335015 -0.2633,0.941743 -0.1551,0.604414 -0.4323,1.349315 -0.2772,0.7449 -0.6832,1.531865 -0.3756,0.751843 -0.8565,1.412208 -0.4833,0.627558 -1.0789,1.065217 -0.5955,0.437659 -1.3173,0.488575 -1.2795,0.09026 -2.017,-0.550086 -0.7071,-0.675469 -1.0482,-1.772395 -0.3107,-1.132049 -0.279,-2.552012 0.032,-1.419963 0.2603,-2.853812 0.2591,-1.468971 0.6914,-2.818286 0.4323,-1.349314 0.8948,-2.272136 -0.3752,0.290229 -0.7573,0.482037 -0.3493,0.189494 -0.7994,0.353124 -0.4172,0.161315 -0.8765,0.193716 -0.884,3.3594 -2.0158,6.01093 -0.4813,1.121979 -1.0634,2.218094 -0.5821,1.096116 -1.246,1.96721 -0.6967,0.873408 -1.4493,1.42106 -0.7527,0.547652 -1.5729,0.605512 -0.4265,0.03009 -0.5832,-0.321534 -0.1566,-0.351621 -0.088,-0.785056 0.033,-0.463929 0.303,-0.845636 0.2675,-0.414515 0.694,-0.444602 z"
         style="font-style:normal;font-variant:normal;font-weight:normal;font-stretch:normal;font-size:32.88864136px;font-family:Brayles;-inkscape-font-specification:'Brayles, Normal';font-variant-ligatures:normal;font-variant-caps:normal;font-variant-numeric:normal;font-feature-settings:normal;text-align:start;writing-mode:lr-tb;text-anchor:start;fill:#ffffff;fill-opacity:1;stroke-width:0.82221615"
         id="path867"
         inkscape:connector-curvature="0" />
      <path
         d="m 1798.414,-61.325204 q 0.099,0.0058 0.1584,0.108109 0.093,0.104264 0.021,0.198917 -0.1177,0.322557 -0.3493,0.902006 -0.2316,0.579449 -0.6022,1.282538 -0.3378,0.705012 -0.8416,1.433244 -0.4692,0.697323 -1.031,1.29038 -0.5599,0.560226 -1.2396,0.915767 -0.6469,0.357464 -1.4021,0.31325 -0.9849,-0.05767 -1.7268,-0.891786 -1.1953,0.720695 -2.4429,0.647645 -1.3789,-0.08074 -2.1961,-0.754537 -0.8152,-0.70663 -1.1805,-1.782258 -0.3305,-1.106538 -0.2845,-2.45459 0.048,-1.380883 0.3951,-2.81013 0.3801,-1.427325 0.9533,-2.777451 0.608,-1.381036 1.33,-2.45889 0.7549,-1.075932 1.5542,-1.786863 0.8322,-0.709009 1.6279,-0.794201 0.7953,-1.20534 1.7803,-1.147669 1.182,0.06921 1.9296,0.804823 0.7495,0.702785 1.111,1.844078 0.3614,1.141293 0.3773,2.558854 0.016,1.41756 -0.2696,2.916317 -0.2854,1.498757 -0.8625,2.914547 -0.5443,1.417713 -1.3029,2.55931 -0.1062,0.125563 -0.3998,0.07543 -0.2607,-0.04821 -0.6142,-0.200687 -0.3206,-0.150553 -0.6393,-0.333939 -0.2859,-0.181464 -0.3767,-0.31856 0.4212,0.683561 1.0548,1.115997 0.6355,0.399604 1.4891,0.449586 0.5581,0.03268 1.1451,-0.427126 0.6218,-0.490715 1.1527,-1.118528 0.5329,-0.660645 0.9305,-1.263315 0.3997,-0.635502 0.5464,-0.890472 0.073,-0.127485 0.2046,-0.119795 z m -5.4061,-8.948119 q -0.4597,-0.02691 -0.8516,0.47726 -0.3919,0.504172 -0.7046,1.342436 -0.3126,0.838263 -0.5093,1.946876 -0.1619,1.077702 -0.1983,2.261592 -0.034,1.151056 0.1281,2.313647 0.1645,1.129759 0.5722,2.043147 0.5058,-0.761064 0.8956,-1.792478 0.4246,-1.062323 0.7218,-2.198001 0.299,-1.16851 0.4628,-2.279045 0.1658,-1.143368 0.1521,-2.033687 0.021,-0.92123 -0.1434,-1.490915 -0.1643,-0.569686 -0.5254,-0.590832 z m -2.9812,2.526934 q -0.4924,0.531238 -0.9074,1.429399 -0.413,0.865329 -0.7024,1.869677 -0.2566,1.006271 -0.3491,2.022153 -0.092,1.015883 0.024,1.846305 0.1161,0.830422 0.4793,1.378809 0.3633,0.548387 1.0199,0.586834 0.1314,0.0077 0.2299,0.01346 0.1004,-0.02707 0.2336,-0.05221 -0.2706,-1.004196 -0.4003,-2.164865 -0.097,-1.158746 -0.1262,-2.34648 0.01,-1.218644 0.1384,-2.363934 0.1349,-1.178122 0.3606,-2.219147 z"
         style="font-style:normal;font-variant:normal;font-weight:normal;font-stretch:normal;font-size:32.88864136px;font-family:Brayles;-inkscape-font-specification:'Brayles, Normal';font-variant-ligatures:normal;font-variant-caps:normal;font-variant-numeric:normal;font-feature-settings:normal;text-align:start;writing-mode:lr-tb;text-anchor:start;fill:#ffffff;fill-opacity:1;stroke-width:0.82221615"
         id="path869"
         inkscape:connector-curvature="0" />
      <path
         d="m 1819.6607,-56.65516 q 0.1279,0.03071 0.1688,0.141998 0.041,0.111294 -0.014,0.199558 -0.1727,0.296774 -0.5347,0.818685 -0.3301,0.529587 -0.8187,1.15639 -0.4887,0.626803 -1.081,1.262558 -0.5846,0.603774 -1.2742,1.080902 -0.6498,0.452825 -1.3815,0.683063 -0.6998,0.237914 -1.4033,0.06903 -1.0874,-0.260993 -1.5248,-0.974811 -0.4055,-0.706141 -0.3991,-1.719283 0.038,-1.005466 0.3941,-2.205364 0.3876,-1.192221 0.9108,-2.385717 0.5629,-1.217801 1.1424,-2.363965 0.6116,-1.138487 1.0657,-2.044161 0.4861,-0.897998 0.7202,-1.450614 0.2342,-0.552616 0.042,-0.598673 -0.2878,-0.06909 -1.2614,0.745747 -0.9338,0.79053 -2.1402,2.293577 -1.1743,1.510724 -2.3589,3.627797 -1.1527,2.12475 -1.8064,4.707475 l -0.015,0.06396 -0.069,0.287822 q -0.084,0.351783 -0.4823,0.459226 -0.3901,0.07546 -1.0297,-0.07806 -1.0874,-0.260993 -1.5248,-0.974811 -0.4055,-0.706141 -0.3671,-1.711607 0.038,-1.005466 0.426,-2.197687 0.4196,-1.184545 0.9749,-2.370365 0.5948,-1.210124 1.2063,-2.348612 0.6435,-1.130811 1.1296,-2.028809 0.4862,-0.897998 0.7203,-1.450614 0.2341,-0.552616 0.042,-0.598673 -0.2878,-0.06909 -1.3176,0.698414 -1.0221,0.735521 -2.2924,2.223216 -1.2384,1.495371 -2.478,3.700709 -1.2396,2.205338 -1.9151,5.019601 -0.054,0.223862 -0.3403,0.290373 -0.2546,0.07419 -0.6294,0.08569 -0.3351,-0.0128 -0.7266,-0.07294 -0.3914,-0.06014 -0.6792,-0.129222 -0.9914,-0.237964 -1.0247,-1.226802 -0.065,-0.996515 0.4478,-2.429225 0.4887,-1.472368 1.342,-3.195452 0.8533,-1.723083 1.6593,-3.389883 0.8136,-1.698779 1.342,-3.195451 0.5283,-1.496671 0.4312,-2.500862 0.084,-0.351783 0.5551,-0.340256 0.5105,-0.01278 0.7983,0.05631 0.408,0.131772 0.7854,0.391465 0.417,0.235389 0.6754,0.567994 0.2981,0.308301 0.4132,0.674161 0.1548,0.341556 0.078,0.661359 -0.054,0.223862 -0.4145,0.88137 -0.3288,0.665185 -0.8456,1.691103 -0.5168,1.025919 -1.1744,2.356288 -0.6576,1.330369 -1.3369,2.892276 0.9006,-1.779367 2.098,-3.386032 1.1974,-1.606664 2.359,-2.782232 1.1936,-1.167892 2.2246,-1.799796 1.0311,-0.631904 1.6707,-0.478378 0.2878,0.06909 0.7445,0.280171 0.4963,0.186781 0.9146,0.557767 0.4183,0.370987 0.6307,0.895473 0.2443,0.532163 0.075,1.235729 -1.3842,2.102996 -2.2707,3.682806 -0.8546,1.587486 -1.4252,2.837267 0.9262,-1.604114 2.0609,-3.090534 1.1744,-1.510723 2.249,-2.605703 1.1142,-1.119284 2.0417,-1.742237 0.9594,-0.615276 1.5351,-0.477103 0.2878,0.06909 0.7688,0.319828 0.5206,0.226438 0.9632,0.637081 0.4426,0.410642 0.7112,0.982462 0.2686,0.571819 0.1,1.275385 -0.316,0.330029 -0.9454,1.261282 -0.5898,0.90695 -1.2486,2.101721 -0.6512,1.162792 -1.2691,2.468857 -0.6179,1.306065 -1.0221,2.426649 -0.3966,1.088605 -0.4453,1.854856 -0.049,0.766251 0.4631,0.889071 0.4157,0.09979 1.0106,-0.264768 0.6345,-0.388864 1.2038,-0.928677 0.6089,-0.564118 1.0745,-1.09498 0.5053,-0.555167 0.6947,-0.780304 0.1586,-0.09722 0.2226,-0.08186 z"
         style="font-style:normal;font-variant:normal;font-weight:normal;font-stretch:normal;font-size:32.88864136px;font-family:Brayles;-inkscape-font-specification:'Brayles, Normal';font-variant-ligatures:normal;font-variant-caps:normal;font-variant-numeric:normal;font-feature-settings:normal;text-align:start;writing-mode:lr-tb;text-anchor:start;fill:#ffffff;fill-opacity:1;stroke-width:0.82221615"
         id="path871"
         inkscape:connector-curvature="0" />
      <path
         d="m 1822.6338,-50.63938 q 0.3963,0.160246 1.0386,-0.112225 0.6851,-0.290636 1.328,-0.740217 0.6857,-0.467745 1.2249,-0.923814 0.5696,-0.443743 0.7902,-0.638367 0.08,-0.109638 0.2322,-0.048 0.091,0.03698 0.1155,0.153106 0.067,0.09796 -0.043,0.195274 -0.2147,0.267934 -0.65,0.730491 -0.4049,0.474884 -0.981,1.022427 -0.5761,0.547543 -1.256,1.088597 -0.6675,0.510563 -1.4201,0.880346 -0.7097,0.351619 -1.437,0.48331 -0.7272,0.131691 -1.398,-0.139493 -0.8538,-0.345144 -1.1315,-1.23783 -0.2471,-0.88036 -0.078,-2.088986 0.1817,-1.239116 0.7182,-2.654042 0.5489,-1.445417 1.3235,-2.83504 0.7869,-1.420114 1.7198,-2.674795 0.9758,-1.272845 1.9379,-2.16098 1.0049,-0.9063 1.9469,-1.305924 0.9725,-0.387298 1.7653,-0.06681 1.2196,0.493062 1.4986,1.031529 0.3218,0.520303 -0.064,0.683785 -0.6423,0.272471 -1.5739,1.172933 -0.8888,0.882297 -1.8399,2.094159 -0.9206,1.22419 -1.8172,2.564506 -0.8537,1.322152 -1.4383,2.504824 -0.5845,1.182672 -0.783,2.024752 -0.1862,0.811588 0.2712,0.996486 z m 8.6174,-13.331155 q -0.1109,0.274422 -0.5319,0.175159 -0.3906,-0.08694 -0.811,-0.363308 -0.408,-0.306864 -0.6935,-0.74153 -0.2426,-0.452832 -0.082,-0.849219 0.1603,-0.396386 0.5658,-1.04838 0.4054,-0.651993 0.8901,-1.236516 0.4969,-0.615014 0.9686,-0.991935 0.5021,-0.364595 0.868,-0.216677 0.4269,0.172572 0.8168,0.436618 0.4204,0.276372 0.6818,0.594912 0.3043,0.300375 0.4314,0.6001 0.1272,0.299725 0.041,0.513164 -0.1726,0.426878 -0.6196,0.742817 -0.4042,0.297774 -0.894,0.631878 -0.4593,0.34643 -0.9433,0.753843 -0.4411,0.389248 -0.6877,0.999074 z"
         style="font-style:normal;font-variant:normal;font-weight:normal;font-stretch:normal;font-size:32.88864136px;font-family:Brayles;-inkscape-font-specification:'Brayles, Normal';font-variant-ligatures:normal;font-variant-caps:normal;font-variant-numeric:normal;font-feature-settings:normal;text-align:start;writing-mode:lr-tb;text-anchor:start;fill:#ffffff;fill-opacity:1;stroke-width:0.82221615"
         id="path873"
         inkscape:connector-curvature="0" />
      <path
         d="m 1841.3403,-58.757612 q 0.4079,0.213558 0.8131,0.574172 0.4343,0.375869 0.6924,0.733742 0.2872,0.373126 0.3553,0.668611 0.1124,0.281602 -0.1095,0.351017 -0.5771,0.18048 -1.3803,0.65096 -0.7879,0.441343 -1.609,1.088017 -0.8212,0.646675 -1.6021,1.500051 -0.7656,0.82424 -1.2842,1.814904 -0.1373,0.262234 -0.5466,0.122205 -0.3801,-0.124775 -0.7562,-0.470136 -0.376,-0.34536 -0.6175,-0.805898 -0.1971,-0.474421 0,-0.853204 0.1678,-0.320509 0.7545,-1.015688 0.6019,-0.724316 1.3814,-1.504164 -0.7867,-0.411862 -1.626,-0.368669 -0.8241,0.01405 -1.5801,0.323596 -0.7117,0.295657 -1.3095,0.799388 -0.5978,0.50373 -0.8724,1.028199 -0.2288,0.437058 -0.016,0.882342 0.2415,0.460538 0.673,0.983463 0.4469,0.493789 0.9506,1.091614 0.5481,0.583942 0.8882,1.281691 0.34,0.697748 0.3693,1.492678 0.074,0.781047 -0.4144,1.713437 -0.4424,0.844977 -1.4647,1.237816 -1.0072,0.363701 -2.1989,0.370902 -1.1625,0.02245 -2.3349,-0.220069 -1.1571,-0.271659 -1.8855,-0.653012 -1.1946,-0.625419 -1.3544,-1.525757 -0.1306,-0.885084 0.2369,-1.657904 0.3827,-0.801958 1.0097,-1.290434 0.6269,-0.488477 0.9766,-0.305427 -0.2746,0.524469 0.3776,1.051507 0.6965,0.513156 1.6164,0.883368 0.9643,0.356329 1.83,0.475448 0.8948,0.134372 1.0321,-0.127862 0.1983,-0.378783 -0.1625,-0.753281 -0.3607,-0.374498 -0.9712,-0.768363 -0.6106,-0.393865 -1.382,-0.834863 -0.7271,-0.454881 -1.2918,-0.936158 -0.5648,-0.481276 -0.834,-1.030597 -0.254,-0.578458 0.082,-1.219475 0.7932,-1.515133 2.0221,-2.727926 1.2733,-1.226675 2.6701,-1.980301 1.4122,-0.782762 2.7842,-0.992552 1.4011,-0.194535 2.4792,0.369868 0.2914,0.152541 0.4329,0.449397 0.1708,0.31211 0.193,0.695006 0.067,0.369014 2e-4,0.779676 -0.051,0.381526 -0.1455,0.703405 0.4938,-0.446827 0.9723,-0.864517 0.4938,-0.446827 0.8961,-0.718832 0.4466,-0.285887 0.7435,-0.42746 0.3412,-0.155456 0.5161,-0.06393 z"
         style="font-style:normal;font-variant:normal;font-weight:normal;font-stretch:normal;font-size:32.88864136px;font-family:Brayles;-inkscape-font-specification:'Brayles, Normal';font-variant-ligatures:normal;font-variant-caps:normal;font-variant-numeric:normal;font-feature-settings:normal;text-align:start;writing-mode:lr-tb;text-anchor:start;fill:#ffffff;fill-opacity:1;stroke-width:0.82221615"
         id="path875"
         inkscape:connector-curvature="0" />
      <path
         d="m 1852.4595,-51.539631 q 0.38,0.260042 0.74,0.665798 0.3871,0.42433 0.6013,0.810071 0.2414,0.404316 0.2743,0.705752 0.079,0.292869 -0.1501,0.335704 -0.5943,0.11137 -1.4472,0.484147 -0.8343,0.345636 -1.7258,0.891269 -0.8915,0.545633 -1.7673,1.30127 -0.8572,0.728496 -1.4888,1.651303 -0.1671,0.244272 -0.5571,0.05709 -0.3629,-0.16861 -0.6957,-0.555792 -0.3328,-0.387181 -0.5185,-0.872921 -0.1399,-0.494307 0.1015,-0.847145 0.2043,-0.298555 0.8687,-0.919926 0.6829,-0.648512 1.5487,-1.331292 -0.7328,-0.501509 -1.5714,-0.557308 -0.82,-0.08294 -1.6071,0.135556 -0.7415,0.209929 -1.3944,0.63987 -0.6529,0.42994 -0.9873,0.918485 -0.2786,0.407121 -0.1201,0.874286 0.1857,0.48574 0.5528,1.055784 0.3857,0.542903 0.8156,1.195813 0.4757,0.644342 0.7313,1.377235 0.2557,0.732893 0.1913,1.525754 -0.019,0.784295 -0.613,1.652819 -0.5387,0.7871 -1.6002,1.056998 -1.0429,0.242756 -2.2272,0.109779 -1.1571,-0.114403 -2.2928,-0.493093 -1.1171,-0.405832 -1.7956,-0.870192 -1.1128,-0.76155 -1.1656,-1.674426 -0.026,-0.8943 0.4302,-1.61855 0.4743,-0.751392 1.1544,-1.162758 0.68,-0.411367 1.0057,-0.188474 -0.3343,0.488545 0.2513,1.088612 0.6314,0.5915 1.5014,1.067308 0.9157,0.46724 1.7614,0.687328 0.8728,0.238662 1.04,-0.0056 0.2415,-0.352838 -0.073,-0.767161 -0.3142,-0.414323 -0.8742,-0.877243 -0.56,-0.462919 -1.2742,-0.991569 -0.6685,-0.537218 -1.1728,-1.081561 -0.5042,-0.544344 -0.707,-1.121515 -0.1842,-0.604313 0.2244,-1.201423 0.9659,-1.411352 2.3288,-2.47123 1.4087,-1.068446 2.8845,-1.652592 1.4944,-0.611288 2.8816,-0.658292 1.4143,-0.02843 2.4185,0.658822 0.2714,0.185744 0.3771,0.497187 0.1328,0.330018 0.1099,0.712878 0.023,0.374294 -0.092,0.774288 -0.096,0.372852 -0.2272,0.681415 0.5429,-0.385665 1.0673,-0.744189 0.5429,-0.385666 0.9743,-0.608483 0.4772,-0.231384 0.7886,-0.337069 0.3572,-0.114251 0.52,-0.0028 z"
         style="font-style:normal;font-variant:normal;font-weight:normal;font-stretch:normal;font-size:32.88864136px;font-family:Brayles;-inkscape-font-specification:'Brayles, Normal';font-variant-ligatures:normal;font-variant-caps:normal;font-variant-numeric:normal;font-feature-settings:normal;text-align:start;writing-mode:lr-tb;text-anchor:start;fill:#ffffff;fill-opacity:1;stroke-width:0.82221615"
         id="path877"
         inkscape:connector-curvature="0" />
      <path
         d="m 1857.7538,-32.073184 q 0.074,0.06552 0.058,0.18297 0.01,0.139291 -0.1065,0.169383 -0.2921,0.180384 -0.8328,0.491973 -0.5407,0.311588 -1.267,0.634179 -0.7018,0.344431 -1.5484,0.604253 -0.8002,0.257072 -1.6086,0.374853 -0.7865,0.09319 -1.5404,-0.04852 -0.7293,-0.119871 -1.2949,-0.622185 -0.7377,-0.655193 -0.8037,-1.769517 -1.3848,-0.174222 -2.3193,-1.004133 -1.0327,-0.917271 -1.2571,-1.952322 -0.2026,-1.059642 0.1766,-2.130451 0.4256,-1.07356 1.2965,-2.103606 0.8926,-1.054636 2.0503,-1.961895 1.1823,-0.88542 2.4684,-1.59062 1.3326,-0.70795 2.5669,-1.107228 1.259,-0.377439 2.3269,-0.440703 1.0925,-0.04143 1.77,0.384368 1.3709,-0.45396 2.1086,0.201233 0.8852,0.786231 1.0168,1.826784 0.1534,1.015962 -0.2695,2.135953 -0.4229,1.11999 -1.2882,2.242896 -0.8654,1.122906 -2.0175,2.123026 -1.1522,1.000119 -2.482,1.7545 -1.3052,0.77622 -2.6079,1.202839 -0.1611,0.03284 -0.3606,-0.188306 -0.1749,-0.199308 -0.358,-0.537907 -0.1585,-0.316759 -0.2952,-0.658109 -0.1122,-0.31951 -0.099,-0.483391 -0.092,0.797565 0.1372,1.529445 0.2516,0.707289 0.891,1.275123 0.418,0.371276 1.1636,0.373697 0.7921,-3.31e-4 1.5977,-0.164542 0.8275,-0.188802 1.513,-0.415782 0.7073,-0.251571 0.9803,-0.360935 0.1366,-0.05468 0.2349,0.03268 z m 1.2958,-10.37384 q -0.3443,-0.305757 -0.9642,-0.152548 -0.6199,0.153209 -1.3845,0.617841 -0.7645,0.464632 -1.6055,1.213346 -0.7944,0.745964 -1.5561,1.653058 -0.7398,0.882503 -1.332,1.896045 -0.5705,0.988952 -0.8159,1.958649 0.8684,-0.284412 1.8132,-0.852907 0.9912,-0.571246 1.9278,-1.279031 0.9583,-0.732376 1.7746,-1.50293 0.8382,-0.795144 1.3787,-1.502764 0.5869,-0.710371 0.8107,-1.259446 0.2237,-0.549076 -0.047,-0.789313 z m -3.9056,0.138192 q -0.7156,0.11228 -1.5976,0.560574 -0.8602,0.423703 -1.7093,1.033127 -0.8246,0.631263 -1.5262,1.371726 -0.7016,0.740462 -1.1247,1.464421 -0.423,0.723958 -0.4774,1.379482 -0.054,0.655523 0.4375,1.092319 0.098,0.08736 0.1721,0.152878 0.096,0.04093 0.2158,0.103697 0.4093,-0.956109 1.0262,-1.947811 0.6414,-0.969863 1.3539,-1.920636 0.7589,-0.953524 1.5724,-1.770508 0.8354,-0.841575 1.6573,-1.519269 z"
         style="font-style:normal;font-variant:normal;font-weight:normal;font-stretch:normal;font-size:32.88864136px;font-family:Brayles;-inkscape-font-specification:'Brayles, Normal';font-variant-ligatures:normal;font-variant-caps:normal;font-variant-numeric:normal;font-feature-settings:normal;text-align:start;writing-mode:lr-tb;text-anchor:start;fill:#ffffff;fill-opacity:1;stroke-width:0.82221615"
         id="path879"
         inkscape:connector-curvature="0" />
    </g>
    <g
       aria-label="MEU"
       style="font-style:normal;font-variant:normal;font-weight:normal;font-stretch:normal;font-size:19.30858612px;line-height:1.25;font-family:'Gobold Extra1';-inkscape-font-specification:'Gobold Extra1, Normal';font-variant-ligatures:normal;font-variant-caps:normal;font-variant-numeric:normal;font-feature-settings:normal;text-align:start;letter-spacing:0px;word-spacing:0px;writing-mode:lr-tb;text-anchor:start;fill:#d9d477;fill-opacity:1;stroke:none;stroke-width:0.48271617;stroke-opacity:1"
       id="text876">
      <path
         d="m 1777.5845,-103.82923 3.1018,-12.67126 h 2.6681 v 18.497774 h -2.555 v -10.380254 l -2.2816,10.380254 h -1.8102 l -2.3475,-10.380254 v 10.380254 h -2.5833 v -18.497774 h 2.6681 z"
         style="font-style:normal;font-variant:normal;font-weight:normal;font-stretch:normal;font-size:19.30858612px;font-family:'Gobold Extra1';-inkscape-font-specification:'Gobold Extra1, Normal';font-variant-ligatures:normal;font-variant-caps:normal;font-variant-numeric:normal;font-feature-settings:normal;text-align:start;writing-mode:lr-tb;text-anchor:start;fill:#d9d477;fill-opacity:1;stroke:none;stroke-width:0.48271617;stroke-opacity:1"
         id="path848" />
      <path
         d="m 1785.8057,-116.50049 h 6.9202 v 2.63042 h -4.2521 v 7.75926 h 3.6581 v 2.63984 h -3.6581 v 2.83784 h 4.2521 v 2.630414 h -6.9202 z"
         style="font-style:normal;font-variant:normal;font-weight:normal;font-stretch:normal;font-size:19.30858612px;font-family:'Gobold Extra1';-inkscape-font-specification:'Gobold Extra1, Normal';font-variant-ligatures:normal;font-variant-caps:normal;font-variant-numeric:normal;font-feature-settings:normal;text-align:start;writing-mode:lr-tb;text-anchor:start;fill:#d9d477;fill-opacity:1;stroke:none;stroke-width:0.48271617;stroke-opacity:1"
         id="path850" />
      <path
         d="m 1802.2764,-101.59479 q 0,3.884343 -3.8372,3.893771 -3.8277,0 -3.8277,-3.893771 v -14.9057 h 2.6681 v 14.9057 q 0,1.25392 1.1596,1.25392 1.1691,0 1.1691,-1.25392 v -14.9057 h 2.6681 z"
         style="font-style:normal;font-variant:normal;font-weight:normal;font-stretch:normal;font-size:19.30858612px;font-family:'Gobold Extra1';-inkscape-font-specification:'Gobold Extra1, Normal';font-variant-ligatures:normal;font-variant-caps:normal;font-variant-numeric:normal;font-feature-settings:normal;text-align:start;writing-mode:lr-tb;text-anchor:start;fill:#d9d477;fill-opacity:1;stroke:none;stroke-width:0.48271617;stroke-opacity:1"
         id="path852" />
    </g>
  </g>
</svg>
