<?xml version="1.0" encoding="UTF-8" standalone="no"?>
<!-- Created with Inkscape (http://www.inkscape.org/) -->

<svg
   xmlns:dc="http://purl.org/dc/elements/1.1/"
   xmlns:cc="http://creativecommons.org/ns#"
   xmlns:rdf="http://www.w3.org/1999/02/22-rdf-syntax-ns#"
   xmlns:svg="http://www.w3.org/2000/svg"
   xmlns="http://www.w3.org/2000/svg"
   xmlns:xlink="http://www.w3.org/1999/xlink"
   xmlns:sodipodi="http://sodipodi.sourceforge.net/DTD/sodipodi-0.dtd"
   xmlns:inkscape="http://www.inkscape.org/namespaces/inkscape"
   width="1371.4286"
   height="1371.4286"
   viewBox="0 0 362.85715 362.85715"
   version="1.1"
   id="svg1620"
   inkscape:version="0.92.3 (2405546, 2018-03-11)"
   sodipodi:docname="logo-igreja.svg">
  <defs
     id="defs1614">
    <inkscape:path-effect
       effect="skeletal"
       id="path-effect880"
       is_visible="true"
       pattern="m 3.0238095,5 c 0,-2.76 2.24,-5 5.0000004,-5 2.7600001,0 5.0000001,2.24 5.0000001,5 0,2.76 -2.24,5 -5.0000001,5 C 5.2638095,10 3.0238095,7.76 3.0238095,5 Z"
       copytype="single_stretched"
       prop_scale="0.26458334"
       scale_y_rel="false"
       spacing="0"
       normal_offset="0"
       tang_offset="0"
       prop_units="false"
       vertical_pattern="false"
       fuse_tolerance="0" />
    <inkscape:path-effect
       effect="skeletal"
       id="path-effect875"
       is_visible="true"
       pattern="m 4.2763124,-7.8289371 c 0,-2.7599999 2.24,-4.9999999 5,-4.9999999 2.7599996,0 4.9999996,2.24 4.9999996,4.9999999 0,2.76 -2.24,5 -4.9999996,5 -2.76,0 -5,-2.24 -5,-5 z"
       copytype="single_stretched"
       prop_scale="0.26458334"
       scale_y_rel="false"
       spacing="0"
       normal_offset="0"
       tang_offset="0"
       prop_units="false"
       vertical_pattern="false"
       fuse_tolerance="0" />
    <inkscape:path-effect
       fuse_tolerance="0"
       vertical_pattern="false"
       prop_units="false"
       tang_offset="0"
       normal_offset="0"
       spacing="0"
       scale_y_rel="false"
       prop_scale="0.18716309"
       copytype="single_stretched"
       pattern="m -1.1103021,9.0788789 c 0,-2.76 2.24,-5 5,-5 2.76,0 5,2.24 5,5 0,2.7600001 -2.24,5.0000001 -5,5.0000001 -2.76,0 -5,-2.24 -5,-5.0000001 z"
       is_visible="true"
       id="path-effect888"
       effect="skeletal" />
    <inkscape:path-effect
       fuse_tolerance="0"
       vertical_pattern="false"
       prop_units="false"
       tang_offset="0"
       normal_offset="0"
       spacing="0"
       scale_y_rel="false"
       prop_scale="0.18716309"
       copytype="single_stretched"
       pattern="m -1.1103021,9.0788789 c 0,-2.76 2.24,-5 5,-5 2.76,0 5,2.24 5,5 0,2.7600001 -2.24,5.0000001 -5,5.0000001 -2.76,0 -5,-2.24 -5,-5.0000001 z"
       is_visible="true"
       id="path-effect885"
       effect="skeletal" />
    <inkscape:path-effect
       fuse_tolerance="0"
       vertical_pattern="false"
       prop_units="false"
       tang_offset="0"
       normal_offset="0"
       spacing="0"
       scale_y_rel="false"
       prop_scale="0.18716309"
       copytype="single_stretched"
       pattern="m -1.1103021,9.0788789 c 0,-2.76 2.24,-5 5,-5 2.76,0 5,2.24 5,5 0,2.7600001 -2.24,5.0000001 -5,5.0000001 -2.76,0 -5,-2.24 -5,-5.0000001 z"
       is_visible="true"
       id="path-effect882"
       effect="skeletal" />
    <inkscape:path-effect
       fuse_tolerance="0"
       vertical_pattern="false"
       prop_units="false"
       tang_offset="0"
       normal_offset="0"
       spacing="0"
       scale_y_rel="false"
       prop_scale="0.18716309"
       copytype="single_stretched"
       pattern="m -1.1103021,9.0788789 c 0,-2.76 2.24,-5 5,-5 2.76,0 5,2.24 5,5 0,2.7600001 -2.24,5.0000001 -5,5.0000001 -2.76,0 -5,-2.24 -5,-5.0000001 z"
       is_visible="true"
       id="path-effect879"
       effect="skeletal" />
    <inkscape:path-effect
       fuse_tolerance="0"
       vertical_pattern="false"
       prop_units="false"
       tang_offset="0"
       normal_offset="0"
       spacing="0"
       scale_y_rel="false"
       prop_scale="0.18716309"
       copytype="single_stretched"
       pattern="m -1.1103021,9.0788789 c 0,-2.76 2.24,-5 5,-5 2.76,0 5,2.24 5,5 0,2.7600001 -2.24,5.0000001 -5,5.0000001 -2.76,0 -5,-2.24 -5,-5.0000001 z"
       is_visible="true"
       id="path-effect876"
       effect="skeletal" />
    <inkscape:path-effect
       fuse_tolerance="0"
       vertical_pattern="false"
       prop_units="false"
       tang_offset="0"
       normal_offset="0"
       spacing="0"
       scale_y_rel="false"
       prop_scale="0.18716309"
       copytype="single_stretched"
       pattern="m -1.1103021,9.0788789 c 0,-2.76 2.24,-5 5,-5 2.76,0 5,2.24 5,5 0,2.7600001 -2.24,5.0000001 -5,5.0000001 -2.76,0 -5,-2.24 -5,-5.0000001 z"
       is_visible="true"
       id="path-effect873"
       effect="skeletal" />
    <inkscape:path-effect
       fuse_tolerance="0"
       vertical_pattern="false"
       prop_units="false"
       tang_offset="0"
       normal_offset="0"
       spacing="0"
       scale_y_rel="false"
       prop_scale="0.18716309"
       copytype="single_stretched"
       pattern="m -1.1103021,9.0788789 c 0,-2.76 2.24,-5 5,-5 2.76,0 5,2.24 5,5 0,2.7600001 -2.24,5.0000001 -5,5.0000001 -2.76,0 -5,-2.24 -5,-5.0000001 z"
       is_visible="true"
       id="path-effect870"
       effect="skeletal" />
    <inkscape:path-effect
       fuse_tolerance="0"
       vertical_pattern="false"
       prop_units="false"
       tang_offset="0"
       normal_offset="0"
       spacing="0"
       scale_y_rel="false"
       prop_scale="0.18716309"
       copytype="single_stretched"
       pattern="m -1.1103021,9.0788789 c 0,-2.76 2.24,-5 5,-5 2.76,0 5,2.24 5,5 0,2.7600001 -2.24,5.0000001 -5,5.0000001 -2.76,0 -5,-2.24 -5,-5.0000001 z"
       is_visible="true"
       id="path-effect867"
       effect="skeletal" />
    <inkscape:path-effect
       fuse_tolerance="0"
       vertical_pattern="false"
       prop_units="false"
       tang_offset="0"
       normal_offset="0"
       spacing="0"
       scale_y_rel="false"
       prop_scale="0.18716309"
       copytype="single_stretched"
       pattern="m -1.1103021,9.0788789 c 0,-2.76 2.24,-5 5,-5 2.76,0 5,2.24 5,5 0,2.7600001 -2.24,5.0000001 -5,5.0000001 -2.76,0 -5,-2.24 -5,-5.0000001 z"
       is_visible="true"
       id="path-effect864"
       effect="skeletal" />
    <inkscape:path-effect
       effect="skeletal"
       id="path-effect1412-9"
       is_visible="true"
       pattern="m -1.1103021,9.0788789 c 0,-2.76 2.24,-5 5,-5 2.76,0 5,2.24 5,5 0,2.7600001 -2.24,5.0000001 -5,5.0000001 -2.76,0 -5,-2.24 -5,-5.0000001 z"
       copytype="single_stretched"
       prop_scale="1"
       scale_y_rel="false"
       spacing="0"
       normal_offset="0"
       tang_offset="0"
       prop_units="false"
       vertical_pattern="false"
       fuse_tolerance="0" />
    <inkscape:path-effect
       effect="skeletal"
       id="path-effect1416-2"
       is_visible="true"
       pattern="m -1.1103021,9.0788789 c 0,-2.76 2.24,-5 5,-5 2.76,0 5,2.24 5,5 0,2.7600001 -2.24,5.0000001 -5,5.0000001 -2.76,0 -5,-2.24 -5,-5.0000001 z"
       copytype="single_stretched"
       prop_scale="1"
       scale_y_rel="false"
       spacing="0"
       normal_offset="0"
       tang_offset="0"
       prop_units="false"
       vertical_pattern="false"
       fuse_tolerance="0" />
    <inkscape:path-effect
       effect="skeletal"
       id="path-effect1432-6"
       is_visible="true"
       pattern="m -1.1103021,9.0788789 c 0,-2.76 2.24,-5 5,-5 2.76,0 5,2.24 5,5 0,2.7600001 -2.24,5.0000001 -5,5.0000001 -2.76,0 -5,-2.24 -5,-5.0000001 z"
       copytype="single_stretched"
       prop_scale="1"
       scale_y_rel="false"
       spacing="0"
       normal_offset="0"
       tang_offset="0"
       prop_units="false"
       vertical_pattern="false"
       fuse_tolerance="0" />
    <inkscape:path-effect
       effect="skeletal"
       id="path-effect1452-5"
       is_visible="true"
       pattern="m -1.1103021,9.0788789 c 0,-2.76 2.24,-5 5,-5 2.76,0 5,2.24 5,5 0,2.7600001 -2.24,5.0000001 -5,5.0000001 -2.76,0 -5,-2.24 -5,-5.0000001 z"
       copytype="single_stretched"
       prop_scale="1"
       scale_y_rel="false"
       spacing="0"
       normal_offset="0"
       tang_offset="0"
       prop_units="false"
       vertical_pattern="false"
       fuse_tolerance="0" />
    <inkscape:path-effect
       effect="skeletal"
       id="path-effect1456-3"
       is_visible="true"
       pattern="m -1.1103021,9.0788789 c 0,-2.76 2.24,-5 5,-5 2.76,0 5,2.24 5,5 0,2.7600001 -2.24,5.0000001 -5,5.0000001 -2.76,0 -5,-2.24 -5,-5.0000001 z"
       copytype="single_stretched"
       prop_scale="1"
       scale_y_rel="false"
       spacing="0"
       normal_offset="0"
       tang_offset="0"
       prop_units="false"
       vertical_pattern="false"
       fuse_tolerance="0" />
    <inkscape:path-effect
       effect="skeletal"
       id="path-effect1460-5"
       is_visible="true"
       pattern="m -1.1103021,9.0788789 c 0,-2.76 2.24,-5 5,-5 2.76,0 5,2.24 5,5 0,2.7600001 -2.24,5.0000001 -5,5.0000001 -2.76,0 -5,-2.24 -5,-5.0000001 z"
       copytype="single_stretched"
       prop_scale="1"
       scale_y_rel="false"
       spacing="0"
       normal_offset="0"
       tang_offset="0"
       prop_units="false"
       vertical_pattern="false"
       fuse_tolerance="0" />
    <inkscape:path-effect
       effect="skeletal"
       id="path-effect1464-7"
       is_visible="true"
       pattern="m -1.1103021,9.0788789 c 0,-2.76 2.24,-5 5,-5 2.76,0 5,2.24 5,5 0,2.7600001 -2.24,5.0000001 -5,5.0000001 -2.76,0 -5,-2.24 -5,-5.0000001 z"
       copytype="single_stretched"
       prop_scale="1"
       scale_y_rel="false"
       spacing="0"
       normal_offset="0"
       tang_offset="0"
       prop_units="false"
       vertical_pattern="false"
       fuse_tolerance="0" />
    <inkscape:path-effect
       effect="skeletal"
       id="path-effect1468-6"
       is_visible="true"
       pattern="m -1.1103021,9.0788789 c 0,-2.76 2.24,-5 5,-5 2.76,0 5,2.24 5,5 0,2.7600001 -2.24,5.0000001 -5,5.0000001 -2.76,0 -5,-2.24 -5,-5.0000001 z"
       copytype="single_stretched"
       prop_scale="1"
       scale_y_rel="false"
       spacing="0"
       normal_offset="0"
       tang_offset="0"
       prop_units="false"
       vertical_pattern="false"
       fuse_tolerance="0" />
    <inkscape:path-effect
       effect="skeletal"
       id="path-effect1476-3"
       is_visible="true"
       pattern="m -1.1103021,9.0788789 c 0,-2.76 2.24,-5 5,-5 2.76,0 5,2.24 5,5 0,2.7600001 -2.24,5.0000001 -5,5.0000001 -2.76,0 -5,-2.24 -5,-5.0000001 z"
       copytype="single_stretched"
       prop_scale="1"
       scale_y_rel="false"
       spacing="0"
       normal_offset="0"
       tang_offset="0"
       prop_units="false"
       vertical_pattern="false"
       fuse_tolerance="0" />
  </defs>
  <sodipodi:namedview
     id="base"
     pagecolor="#ffffff"
     bordercolor="#666666"
     borderopacity="1.0"
     inkscape:pageopacity="0.0"
     inkscape:pageshadow="2"
     inkscape:zoom="0.175"
     inkscape:cx="1353.176"
     inkscape:cy="819.10438"
     inkscape:document-units="px"
     inkscape:current-layer="layer1"
     showgrid="false"
     inkscape:window-width="1280"
     inkscape:window-height="710"
     inkscape:window-x="0"
     inkscape:window-y="25"
     inkscape:window-maximized="1"
     showborder="false"
     inkscape:snap-nodes="false"
     inkscape:snap-others="false"
     fit-margin-top="0"
     fit-margin-left="0"
     fit-margin-right="0"
     fit-margin-bottom="0"
     showguides="false"
     units="px"
     inkscape:snap-global="false" />
  <metadata
     id="metadata1617">
    <rdf:RDF>
      <cc:Work
         rdf:about="">
        <dc:format>image/svg+xml</dc:format>
        <dc:type
           rdf:resource="http://purl.org/dc/dcmitype/StillImage" />
        <dc:title />
      </cc:Work>
    </rdf:RDF>
  </metadata>
  <g
     inkscape:label="Camada 1"
     inkscape:groupmode="layer"
     id="layer1"
     transform="translate(-633.44336,101.02647)">
    <rect
       style="opacity:1;fill:#469d28;fill-opacity:1;stroke:none;stroke-width:0.38585067;stroke-linecap:round;stroke-linejoin:miter;stroke-miterlimit:4;stroke-dasharray:none;stroke-dashoffset:0;stroke-opacity:1;paint-order:fill markers stroke"
       id="rect850"
       width="26.458334"
       height="26.458334"
       x="761.73273"
       y="107.08297"
       inkscape:export-filename="/home/brunolgb/App/meu_compromisso/src/assets/logoIgreja.png"
       inkscape:export-xdpi="112"
       inkscape:export-ydpi="112" />
    <path
       inkscape:connector-curvature="0"
       id="path844"
       d="m 776.83609,109.15226 c 0,0 0.008,1.02194 -0.86281,2.10253 -0.87117,1.08059 -3.56849,3.15803 -4.54018,4.07108 -0.9717,0.91306 -2.01905,2.14834 -2.30337,3.40406 -0.28431,1.25572 -0.13028,1.46897 -0.13028,1.93098 0,0.46201 0.0614,0.53681 0.0614,0.53681 l 0.0156,-0.18885 c 0,0 0.14528,-1.57008 1.3599,-2.87684 1.21461,-1.30676 3.36743,-3.05751 4.02081,-3.67738 0.65337,-0.61988 1.61667,-1.60832 2.13602,-3.0491 0.51935,-1.44079 0.24294,-2.25329 0.24294,-2.25329 z m 0.0196,2.43306 c -0.0257,-6.7e-4 -0.0417,0.55979 -0.52042,1.32142 -0.28256,0.44728 -0.63477,0.87141 -1.14197,1.40208 -0.46525,0.48625 -0.94333,0.9357 -1.53021,1.47962 -0.49162,0.45554 -1.07426,0.98829 -1.60589,1.50508 -9e-5,9e-5 -0.0405,0.0395 -0.0406,0.0396 -0.54984,0.53607 -1.04384,1.05141 -1.48792,1.59818 -0.44675,0.54937 -0.80137,1.08066 -1.05146,1.64197 -0.26815,0.60027 -0.36616,1.16783 -0.32457,1.67152 0.0796,0.92408 0.49422,1.3503 0.65887,1.52458 -0.008,-0.0118 -0.0192,-0.0283 -0.0288,-0.0423 0.0143,0.0199 0.0269,0.0373 0.0383,0.0525 -0.003,-0.004 -0.006,-0.006 -0.01,-0.0102 0.0344,0.0487 0.0584,0.0807 0.0629,0.0927 1.2e-4,0.002 2.5e-4,0.003 5e-4,0.005 0.0239,0.23167 0.096,0.44103 0.18995,0.61669 0.13057,0.24354 0.30499,0.43487 0.45686,0.57406 0.34545,0.31678 0.61444,0.44209 0.71503,0.48699 0.004,0.002 0.0206,0.0129 0.0206,0.0129 l -5e-4,-0.004 c 0.0151,0.007 0.0253,0.0116 0.0244,0.0131 10e-4,-0.002 -0.01,-0.01 -0.0253,-0.0207 l -0.0271,-0.23303 c 0.006,0.007 0.0113,0.0134 0.0168,0.0198 -0.14224,-0.22143 -0.33798,-0.62081 -0.36455,-1.21653 -0.0181,-0.37016 0.0778,-0.79122 0.32011,-1.21931 0.22562,-0.3983 0.53518,-0.75684 0.92791,-1.14482 0.39641,-0.39086 0.80506,-0.73765 1.29013,-1.15058 0.43647,-0.37139 0.93375,-0.79313 1.39365,-1.23428 0.42962,-0.41189 0.86439,-0.87552 1.23635,-1.40168 0.34513,-0.48798 0.64008,-1.04479 0.81189,-1.65617 0.13956,-0.63343 0.13735,-1.31567 -0.005,-1.99058 -0.005,0.0137 -0.01,0.0274 -0.0143,0.0411 -0.002,-0.007 -0.005,-0.0229 -0.005,-0.0229 0,0 -0.0153,0.0615 -0.045,0.15905 -0.0168,0.0431 -0.0338,0.0862 -0.0521,0.12898 -0.18964,0.44466 -0.45501,0.86279 -0.74334,1.2521 -0.37227,0.56315 -0.80797,1.07982 -1.24368,1.55885 -1.02103,1.12219 -2.07788,2.08255 -2.95924,3.01153 -0.46334,0.4881 -0.85896,0.93758 -1.20034,1.42118 -0.32159,0.45385 -0.55775,0.88843 -0.6689,1.35155 -0.0507,0.21215 -0.0676,0.42004 -0.0511,0.61746 -0.0278,-0.12778 -0.2116,-0.69727 -0.0115,-1.5389 0.10648,-0.45127 0.32149,-0.91971 0.67065,-1.43103 0.31957,-0.46711 0.70428,-0.90532 1.17086,-1.38206 0.45627,-0.46585 0.91858,-0.8933 1.44503,-1.38361 0.0402,-0.0374 0.21794,-0.20272 0.2581,-0.24016 1.03528,-0.96492 1.84796,-1.76875 2.51048,-2.72997 0.41065,-0.59584 0.67975,-1.15548 0.83819,-1.68596 0.28294,-0.94913 0.16237,-1.57825 0.11648,-1.78255 -0.002,-0.0502 -0.009,-0.0784 -0.0152,-0.0785 z m -5.61018,13.74781 c 0.0881,0.13709 0.15576,0.2063 0.14972,0.21061 0.0355,-0.0254 -0.0402,-0.0839 -0.14972,-0.21061 z m 5.60758,-10.96594 c 0.002,0.0243 0.004,0.0486 0.006,0.0729 -0.004,-0.0189 -0.008,-0.0363 -0.0107,-0.0504 10e-4,-0.008 0.003,-0.015 0.005,-0.0225 z m 1.77848,1.69561 c -10e-4,0.002 -5e-4,0.004 0.002,0.007 -0.003,-0.003 -0.003,-0.006 -0.002,-0.007 z m 0,0 c -0.005,0.004 -0.002,0.011 0.008,0.0224 -0.008,-0.0126 -0.0107,-0.0202 -0.008,-0.0224 z m 0.008,0.0224 c 0.0546,0.0913 0.35093,0.45694 0.44734,1.09998 0.0409,0.26439 0.0161,0.57777 -0.11577,0.88853 -0.11926,0.28318 -0.30704,0.54292 -0.54439,0.81694 -0.24848,0.28558 -0.51315,0.54045 -0.81519,0.83572 -0.15816,0.15414 -0.32219,0.31549 -0.4833,0.48096 -0.50225,0.51587 -0.91517,1.01112 -1.22605,1.56346 -0.26728,0.47647 -0.425,0.94487 -0.50487,1.36961 -0.19669,1.05044 0.0477,1.67829 0.0394,1.67942 0.008,-0.001 0.007,-0.0417 0.003,-0.11227 0.002,0.0115 0.005,0.023 0.007,0.033 -0.0169,0.20415 0.0403,0.30804 0.0455,0.30695 0.017,-0.004 -0.0212,-0.18391 0.081,-0.47059 0.0559,-0.15599 0.14036,-0.31464 0.27353,-0.5107 0.25942,-0.38113 0.55149,-0.6955 1.00455,-1.16186 0.50416,-0.51733 1.35261,-1.32132 1.93986,-2.06139 0.17137,-0.21597 0.32945,-0.4347 0.47318,-0.6597 0.46884,-0.72902 0.73259,-1.45531 0.69987,-2.1655 -0.0214,-0.42221 -0.16085,-0.78651 -0.33584,-1.06299 -0.39725,-0.62447 -0.83542,-0.804 -0.95901,-0.86527 l -0.0363,-0.0265 c 0,0 0.006,0.009 0.007,0.0107 -0.002,-0.001 -0.005,-0.003 -0.006,-0.004 0.002,0.002 0.005,0.005 0.009,0.008 0.005,0.007 0.008,0.0117 0.022,0.0333 -0.0105,-0.0102 -0.0195,-0.0194 -0.0255,-0.0263 z m 1.44029,1.66484 c 0.0378,0.41029 0.007,0.82668 -0.0967,1.22418 -0.0645,0.37301 -0.19768,0.72982 -0.36823,1.05807 -0.37897,0.7312 -0.95875,1.36696 -1.47496,1.92236 -0.68375,0.73353 -1.21403,1.26477 -1.71959,1.95106 -0.63329,0.85829 -0.93584,1.64813 -1.03124,2.33828 -0.006,0.0461 -0.007,0.0904 -0.007,0.13009 -1.3e-4,0.0186 -1.2e-4,0.037 1.2e-4,0.0552 0,0.006 9e-5,0.0122 2.5e-4,0.0183 2e-5,0.002 7e-5,0.005 1.3e-4,0.007 0.0372,0.75321 0.0673,1.19984 0.0867,1.25695 -0.004,0.0169 -0.007,0.0286 -0.007,0.0288 h 1.3e-4 c 0.0301,0.0115 0.45296,-1.24441 1.81514,-2.79553 0.54794,-0.62384 1.25819,-1.27575 1.97529,-2.06696 0.27496,-0.30312 0.55375,-0.63923 0.78966,-1.01362 0.21522,-0.34153 0.39557,-0.72454 0.50202,-1.13931 0.11068,-0.43421 0.13718,-0.89463 0.0877,-1.35569 -0.09,-0.51198 -0.26819,-1.01379 -0.49845,-1.50521 -0.018,-0.0383 -0.0361,-0.0764 -0.0545,-0.11428 z m 0.74626,2.75997 c -0.022,-0.002 -0.0533,0.23074 -0.172,0.6128 -0.12143,0.39086 -0.33309,0.90414 -0.73129,1.46977 -0.38472,0.54647 -0.84926,1.03431 -1.44231,1.60401 -0.0332,0.0319 -0.0665,0.0637 -0.0996,0.0954 -0.6618,0.63071 -1.13474,1.052 -1.62578,1.61638 -0.43222,0.49513 -0.68918,0.91172 -0.84642,1.2681 -0.14886,0.33739 -0.17644,0.54691 -0.16079,0.55171 0.002,7.4e-4 0.005,-10e-4 0.009,-0.006 -0.002,0.0218 0.005,0.0372 0.0227,0.0481 -0.0198,0.002 -0.0333,0.005 -0.0333,0.009 0,-0.0168 0.43264,0.11449 1.18855,0.0539 0.36943,-0.3681 0.86993,-0.82696 1.423,-1.38083 0.3926,-0.39801 0.82173,-0.85644 1.22236,-1.35802 0.1127,-0.1411 0.22075,-0.28262 0.32418,-0.42499 0.51594,-0.70866 0.8679,-1.37371 1.05632,-2.04765 0.35337,-1.26345 -0.0777,-2.00003 -0.12951,-2.09923 -9.9e-4,-0.002 -10e-4,-0.003 -0.002,-0.005 -0.001,-0.005 -0.002,-0.008 -0.003,-0.008 z m -7.8687,5.71202 c -1.99558,7.4e-4 -7.2296,1.08702 -7.2296,1.08702 l -3.05513,4.13548 c 0,0 3.46796,-0.63308 7.59654,-1.37623 4.1286,-0.74314 4.18368,1.40376 4.18368,1.40376 l 0.0413,-2.86252 -1.44503,0.0413 v -1.00462 l 1.42825,-0.0129 c -0.14632,-0.0349 0.2378,-1.02842 -0.94696,-1.35841 -0.13169,-0.0367 -0.32795,-0.053 -0.57302,-0.0529 z m 6.03691,0.19934 c 0,0 -1.81655,1.73402 -2.66978,2.80745 -0.85324,1.07344 -0.85743,2.24286 -0.85743,2.24286 0,0 0.47894,-1.2382 1.62118,-1.38958 1.14225,-0.15138 2.22945,-0.007 3.44739,0.24768 1.21793,0.25459 6.7158,1.10095 6.7158,1.10095 l -3.00006,-4.10108 z m -3.50881,1.23493 c -9.9e-4,0.003 -0.002,0.006 -0.003,0.009 2.5e-4,-0.003 5e-4,-0.005 7.4e-4,-0.008 7.5e-4,1.3e-4 10e-4,-6e-5 0.002,-1.2e-4 z m 0.63256,0.99451 -0.68808,0.007 0.0688,1.45876 c 0,0 0.1239,-0.83262 0.37161,-1.14915 z"
       style="fill:white;fill-opacity:1;stroke:none;stroke-width:0.03316985px;stroke-linecap:butt;stroke-linejoin:miter;stroke-opacity:1"
       inkscape:export-filename="/home/brunolgb/App/meu_compromisso/src/assets/logoIgreja.png"
       inkscape:export-xdpi="112"
       inkscape:export-ydpi="112" />
    <rect
       inkscape:export-ydpi="112"
       inkscape:export-xdpi="112"
       inkscape:export-filename="/home/brunolgb/App/meu_compromisso/src/assets/logoIgreja.png"
       y="80.624641"
       x="798.08142"
       height="52.916668"
       width="52.916668"
       id="rect851"
       style="opacity:1;fill:#469d28;fill-opacity:1;stroke:none;stroke-width:0.77170134;stroke-linecap:round;stroke-linejoin:miter;stroke-miterlimit:4;stroke-dasharray:none;stroke-dashoffset:0;stroke-opacity:1;paint-order:fill markers stroke" />
    <path
       inkscape:export-ydpi="112"
       inkscape:export-xdpi="112"
       inkscape:export-filename="/home/brunolgb/App/meu_compromisso/src/assets/logoIgreja.png"
       style="fill:white;stroke:none;stroke-width:0.0663397px;stroke-linecap:butt;stroke-linejoin:miter;stroke-opacity:1"
       d="m 828.28814,84.76322 c 0,0 0.016,2.04388 -1.72562,4.20506 -1.74234,2.16118 -7.13698,6.31606 -9.08036,8.14216 -1.9434,1.82612 -4.0381,4.29668 -4.60674,6.80812 -0.56862,2.51144 -0.26056,2.93794 -0.26056,3.86196 0,0.92402 0.1228,1.07362 0.1228,1.07362 l 0.0312,-0.3777 c 0,0 0.29056,-3.14016 2.7198,-5.75368 2.42922,-2.61352 6.73486,-6.11502 8.04162,-7.35476 1.30674,-1.23976 3.23334,-3.21664 4.27204,-6.0982 1.0387,-2.88158 0.48588,-4.50658 0.48588,-4.50658 z m 0.0392,4.86612 c -0.0514,-0.0013 -0.0834,1.11958 -1.04084,2.64284 -0.56512,0.89456 -1.26954,1.74282 -2.28394,2.80416 -0.9305,0.9725 -1.88666,1.8714 -3.06042,2.95924 -0.98324,0.91108 -2.14852,1.97658 -3.21178,3.01016 -1.8e-4,1.8e-4 -0.081,0.079 -0.0812,0.0792 -1.09968,1.07214 -2.08768,2.10282 -2.97584,3.19636 -0.8935,1.09874 -1.60274,2.16132 -2.10292,3.28394 -0.5363,1.20054 -0.73232,2.33566 -0.64914,3.34304 0.1592,1.84816 0.98844,2.7006 1.31774,3.04916 -0.016,-0.0236 -0.0384,-0.0566 -0.0576,-0.0846 0.0286,0.0398 0.0538,0.0746 0.0766,0.105 -0.006,-0.008 -0.012,-0.012 -0.02,-0.0204 0.0688,0.0974 0.1168,0.1614 0.1258,0.1854 2.4e-4,0.004 5e-4,0.006 10e-4,0.01 0.0478,0.46334 0.192,0.88206 0.3799,1.23338 0.26114,0.48708 0.60998,0.86974 0.91372,1.14812 0.6909,0.63356 1.22888,0.88418 1.43006,0.97398 0.008,0.004 0.0412,0.0258 0.0412,0.0258 l -10e-4,-0.008 c 0.0302,0.014 0.0506,0.0232 0.0488,0.0262 0.002,-0.004 -0.02,-0.02 -0.0506,-0.0414 l -0.0542,-0.46606 c 0.012,0.014 0.0226,0.0268 0.0336,0.0396 -0.28448,-0.44286 -0.67596,-1.24162 -0.7291,-2.43306 -0.0362,-0.74032 0.1556,-1.58244 0.64022,-2.43862 0.45124,-0.7966 1.07036,-1.51368 1.85582,-2.28964 0.79282,-0.78172 1.61012,-1.4753 2.58026,-2.30116 0.87294,-0.74278 1.8675,-1.58626 2.7873,-2.46856 0.85924,-0.82378 1.72878,-1.75104 2.4727,-2.80336 0.69026,-0.97596 1.28016,-2.08958 1.62378,-3.31234 0.27912,-1.26686 0.2747,-2.63134 -0.01,-3.98116 -0.01,0.0274 -0.02,0.0548 -0.0286,0.0822 -0.004,-0.014 -0.01,-0.0458 -0.01,-0.0458 0,0 -0.0306,0.123 -0.09,0.3181 -0.0336,0.0862 -0.0676,0.1724 -0.1042,0.25796 -0.37928,0.88932 -0.91002,1.72558 -1.48668,2.5042 -0.74454,1.1263 -1.61594,2.15964 -2.48736,3.1177 -2.04206,2.24438 -4.15576,4.1651 -5.91848,6.02306 -0.92668,0.9762 -1.71792,1.87516 -2.40068,2.84236 -0.64318,0.9077 -1.1155,1.77686 -1.3378,2.7031 -0.1014,0.4243 -0.1352,0.84008 -0.1022,1.23492 -0.0556,-0.25556 -0.4232,-1.39454 -0.023,-3.0778 0.21296,-0.90254 0.64298,-1.83942 1.3413,-2.86206 0.63914,-0.93422 1.40856,-1.81064 2.34172,-2.76412 0.91254,-0.9317 1.83716,-1.7866 2.89006,-2.76722 0.0804,-0.0748 0.43588,-0.40544 0.5162,-0.48032 2.07056,-1.92984 3.69592,-3.5375 5.02096,-5.45994 0.8213,-1.19168 1.3595,-2.31096 1.67638,-3.37192 0.56588,-1.89826 0.32474,-3.1565 0.23296,-3.5651 -0.004,-0.1004 -0.018,-0.1568 -0.0304,-0.157 z m -11.22036,27.49562 c 0.1762,0.27418 0.31152,0.4126 0.29944,0.42122 0.071,-0.0508 -0.0804,-0.1678 -0.29944,-0.42122 z m 11.21516,-21.93188 c 0.004,0.0486 0.008,0.0972 0.012,0.1458 -0.008,-0.0378 -0.016,-0.0726 -0.0214,-0.1008 0.002,-0.016 0.006,-0.03 0.01,-0.045 z m 3.55696,3.39122 c -0.002,0.004 -10e-4,0.008 0.004,0.014 -0.006,-0.006 -0.006,-0.012 -0.004,-0.014 z m 0,0 c -0.01,0.008 -0.004,0.022 0.016,0.0448 -0.016,-0.0252 -0.0214,-0.0404 -0.016,-0.0448 z m 0.016,0.0448 c 0.1092,0.1826 0.70186,0.91388 0.89468,2.19996 0.0818,0.52878 0.0322,1.15554 -0.23154,1.77706 -0.23852,0.56636 -0.61408,1.08584 -1.08878,1.63388 -0.49696,0.57116 -1.0263,1.0809 -1.63038,1.67144 -0.31632,0.30828 -0.64438,0.63098 -0.9666,0.96192 -1.0045,1.03174 -1.83034,2.02224 -2.4521,3.12692 -0.53456,0.95294 -0.85,1.88974 -1.00974,2.73922 -0.39338,2.10088 0.0954,3.35658 0.0788,3.35884 0.016,-0.002 0.014,-0.0834 0.006,-0.22454 0.004,0.023 0.01,0.046 0.014,0.066 -0.0338,0.4083 0.0806,0.61608 0.091,0.6139 0.034,-0.008 -0.0424,-0.36782 0.162,-0.94118 0.1118,-0.31198 0.28072,-0.62928 0.54706,-1.0214 0.51884,-0.76226 1.10298,-1.391 2.0091,-2.32372 1.00832,-1.03466 2.70522,-2.64264 3.87972,-4.12278 0.34274,-0.43194 0.6589,-0.8694 0.94636,-1.3194 0.93768,-1.45804 1.46518,-2.91062 1.39974,-4.331 -0.0428,-0.84442 -0.3217,-1.57302 -0.67168,-2.12598 -0.7945,-1.24894 -1.67084,-1.608 -1.91802,-1.73054 l -0.0726,-0.053 c 0,0 0.012,0.018 0.014,0.0214 -0.004,-0.002 -0.01,-0.006 -0.012,-0.008 0.004,0.004 0.01,0.01 0.018,0.016 0.01,0.014 0.016,0.0234 0.044,0.0666 -0.021,-0.0204 -0.039,-0.0388 -0.051,-0.0526 z m 2.88058,3.32968 c 0.0756,0.82058 0.014,1.65336 -0.1934,2.44836 -0.129,0.74602 -0.39536,1.45964 -0.73646,2.11614 -0.75794,1.4624 -1.9175,2.73392 -2.94992,3.84472 -1.3675,1.46706 -2.42806,2.52954 -3.43918,3.90212 -1.26658,1.71658 -1.87168,3.29626 -2.06248,4.67656 -0.012,0.0922 -0.014,0.1808 -0.014,0.26018 -2.6e-4,0.0372 -2.4e-4,0.074 2.4e-4,0.1104 0,0.012 1.8e-4,0.0244 5e-4,0.0366 4e-5,0.004 1.4e-4,0.01 2.6e-4,0.014 0.0744,1.50642 0.1346,2.39968 0.1734,2.5139 -0.008,0.0338 -0.014,0.0572 -0.014,0.0576 h 2.6e-4 c 0.0602,0.023 0.90592,-2.48882 3.63028,-5.59106 1.09588,-1.24768 2.51638,-2.5515 3.95058,-4.13392 0.54992,-0.60624 1.1075,-1.27846 1.57932,-2.02724 0.43044,-0.68306 0.79114,-1.44908 1.00404,-2.27862 0.22136,-0.86842 0.27436,-1.78926 0.1754,-2.71138 -0.18,-1.02396 -0.53638,-2.02758 -0.9969,-3.01042 -0.036,-0.0766 -0.0722,-0.1528 -0.109,-0.22856 z m 1.49252,5.51994 c -0.044,-0.004 -0.1066,0.46148 -0.344,1.2256 -0.24286,0.78172 -0.66618,1.80828 -1.46258,2.93954 -0.76944,1.09294 -1.69852,2.06862 -2.88462,3.20802 -0.0664,0.0638 -0.133,0.1274 -0.1992,0.1908 -1.3236,1.26142 -2.26948,2.104 -3.25156,3.23276 -0.86444,0.99026 -1.37836,1.82344 -1.69284,2.5362 -0.29772,0.67478 -0.35288,1.09382 -0.32158,1.10342 0.004,0.001 0.01,-0.002 0.018,-0.012 -0.004,0.0436 0.01,0.0744 0.0454,0.0962 -0.0396,0.004 -0.0666,0.01 -0.0666,0.018 0,-0.0336 0.86528,0.22898 2.3771,0.1078 0.73886,-0.7362 1.73986,-1.65392 2.846,-2.76166 0.7852,-0.79602 1.64346,-1.71288 2.44472,-2.71604 0.2254,-0.2822 0.4415,-0.56524 0.64836,-0.84998 1.03188,-1.41732 1.7358,-2.74742 2.11264,-4.0953 0.70674,-2.5269 -0.1554,-4.00006 -0.25902,-4.19846 -0.002,-0.004 -0.002,-0.006 -0.004,-0.01 -0.002,-0.01 -0.004,-0.016 -0.006,-0.016 z m -15.7374,11.42404 c -3.99116,0.001 -14.4592,2.17404 -14.4592,2.17404 l -6.11026,8.27096 c 0,0 6.93592,-1.26616 15.19308,-2.75246 8.2572,-1.48628 8.36736,2.80752 8.36736,2.80752 l 0.0826,-5.72504 -2.89006,0.0826 v -2.00924 l 2.8565,-0.0258 c -0.29264,-0.0698 0.4756,-2.05684 -1.89392,-2.71682 -0.26338,-0.0734 -0.6559,-0.106 -1.14604,-0.1058 z m 12.07382,0.39868 c 0,0 -3.6331,3.46804 -5.33956,5.6149 -1.70648,2.14688 -1.71486,4.48572 -1.71486,4.48572 0,0 0.95788,-2.4764 3.24236,-2.77916 2.2845,-0.30276 4.4589,-0.014 6.89478,0.49536 2.43586,0.50918 13.4316,2.2019 13.4316,2.2019 l -6.00012,-8.20216 z m -7.01762,2.46986 c -0.002,0.006 -0.004,0.012 -0.006,0.018 5e-4,-0.006 10e-4,-0.01 10e-4,-0.016 10e-4,2.6e-4 0.002,-1.2e-4 0.004,-2.4e-4 z m 1.26512,1.98902 -1.37616,0.014 0.1376,2.91752 c 0,0 0.2478,-1.66524 0.74322,-2.2983 z"
       id="path853"
       inkscape:connector-curvature="0" />
    <rect
       style="opacity:1;fill:white;fill-opacity:1;stroke:#ccc;stroke-width:1.27414572;stroke-linecap:round;stroke-linejoin:miter;stroke-miterlimit:4;stroke-dasharray:none;stroke-dashoffset:0;stroke-opacity:1;paint-order:fill markers stroke"
       id="rect881"
       width="348.75958"
       height="643.29053"
       x="980.17535"
       y="-264.20111"
       inkscape:export-filename="/home/brunolgb/App/meu_compromisso/assets/splash.png"
       inkscape:export-xdpi="112"
       inkscape:export-ydpi="112" />
    <rect
       style="opacity:1;fill:#469d28;fill-opacity:1;stroke:none;stroke-width:0.73272455;stroke-linecap:round;stroke-linejoin:miter;stroke-miterlimit:4;stroke-dasharray:none;stroke-dashoffset:0;stroke-opacity:1;paint-order:fill markers stroke"
       id="rect883"
       width="50.243973"
       height="50.243973"
       x="861.12909"
       y="76.081062"
       inkscape:export-filename="/home/brunolgb/App/meu_compromisso/assets/icon.png"
       inkscape:export-xdpi="112"
       inkscape:export-ydpi="112"
       ry="5.746295" />
    <path
       inkscape:connector-curvature="0"
       id="path885"
       d="m 889.50449,81.029088 c 0,0 0.0139,1.77396 -1.49774,3.64973 -1.51224,1.875769 -6.19445,5.481945 -7.88118,7.066886 -1.68674,1.584958 -3.50482,3.729249 -3.99836,5.909022 -0.49353,2.179775 -0.22615,2.549944 -0.22615,3.351944 0,0.80199 0.10658,0.93184 0.10658,0.93184 l 0.0271,-0.32783 c 0,0 0.25218,-2.72546 2.36061,-4.993833 2.10841,-2.268373 5.84543,-5.307456 6.97962,-6.383473 1.13417,-1.076034 2.80635,-2.791842 3.70787,-5.292856 0.90152,-2.501032 0.42171,-3.91143 0.42171,-3.91143 z m 0.034,4.223488 c -0.0446,-0.0011 -0.0724,0.971726 -0.90339,2.29382 -0.49049,0.776423 -1.10188,1.512659 -1.98232,2.433836 -0.80761,0.844068 -1.6375,1.624258 -2.65625,2.568435 -0.85339,0.79076 -1.86479,1.715548 -2.78762,2.612631 -1.6e-4,1.56e-4 -0.0703,0.06857 -0.0705,0.06874 -0.95446,0.930549 -1.81198,1.825115 -2.58285,2.77424 -0.7755,0.953639 -1.39107,1.875893 -1.8252,2.850252 -0.46547,1.042 -0.63561,2.02722 -0.56341,2.90156 0.13817,1.60408 0.85791,2.34394 1.14371,2.64648 -0.0139,-0.0205 -0.0334,-0.0491 -0.05,-0.0734 0.0249,0.0346 0.0467,0.0647 0.0665,0.0911 -0.005,-0.007 -0.0104,-0.0104 -0.0174,-0.0177 0.0597,0.0845 0.10138,0.14008 0.10919,0.16091 2.1e-4,0.004 4.3e-4,0.005 8.6e-4,0.008 0.0415,0.40215 0.16665,0.76558 0.32973,1.07049 0.22665,0.42276 0.52943,0.75489 0.79305,0.99651 0.59967,0.54989 1.06659,0.76741 1.24121,0.84535 0.007,0.004 0.0357,0.0224 0.0357,0.0224 l -8.7e-4,-0.007 c 0.0262,0.0122 0.0439,0.0201 0.0423,0.0228 0.002,-0.004 -0.0174,-0.0174 -0.0439,-0.0359 l -0.0471,-0.40452 c 0.0104,0.0122 0.0197,0.0233 0.0292,0.0344 -0.24691,-0.38438 -0.58668,-1.07765 -0.63281,-2.11175 -0.0315,-0.64255 0.13505,-1.37346 0.55567,-2.11657 0.39165,-0.6914 0.929,-1.31378 1.61074,-1.98726 0.68812,-0.67849 1.39748,-1.28047 2.2395,-1.99726 0.75766,-0.6447 1.62087,-1.376779 2.4192,-2.142561 0.74577,-0.714991 1.50047,-1.519795 2.14615,-2.433142 0.5991,-0.847073 1.1111,-1.813626 1.40934,-2.874905 0.24226,-1.099555 0.23842,-2.283838 -0.008,-3.455398 -0.009,0.02378 -0.0174,0.04756 -0.0249,0.07135 -0.004,-0.01215 -0.008,-0.03975 -0.008,-0.03975 0,0 -0.0266,0.106757 -0.0782,0.276091 -0.0292,0.07482 -0.0587,0.149632 -0.0904,0.223893 -0.3292,0.771875 -0.78985,1.497696 -1.29035,2.17349 -0.64621,0.977557 -1.40254,1.874431 -2.15887,2.705968 -1.77238,1.947982 -3.60695,3.615048 -5.13687,5.227644 -0.8043,0.84728 -1.49105,1.62752 -2.08364,2.46699 -0.55825,0.78783 -0.96819,1.54221 -1.16113,2.34613 -0.088,0.36826 -0.11734,0.72913 -0.0887,1.07182 -0.0483,-0.22181 -0.36731,-1.21037 -0.0199,-2.67133 0.18483,-0.78335 0.55807,-1.5965 1.16416,-2.48409 0.55473,-0.81084 1.22254,-1.571529 2.03247,-2.399087 0.79203,-0.808659 1.59454,-1.550659 2.50839,-2.401776 0.0697,-0.06492 0.37831,-0.351896 0.44803,-0.416887 1.79712,-1.674981 3.20783,-3.07033 4.35788,-4.738888 0.71284,-1.034303 1.17996,-2.005768 1.45499,-2.926615 0.49115,-1.647571 0.28186,-2.739645 0.20219,-3.094284 -0.004,-0.08714 -0.0156,-0.136093 -0.0264,-0.136266 z m -9.73856,23.864484 c 0.15293,0.23797 0.27037,0.35811 0.2599,0.36559 0.0616,-0.0441 -0.0697,-0.14564 -0.2599,-0.36559 z M 889.534,90.081555 c 0.004,0.04219 0.007,0.08436 0.0104,0.126545 -0.007,-0.03281 -0.0139,-0.06301 -0.0186,-0.08749 0.002,-0.01389 0.005,-0.02603 0.009,-0.03906 z m 3.08721,2.943366 c -0.002,0.0035 -8.7e-4,0.0069 0.004,0.01215 -0.005,-0.0052 -0.005,-0.01041 -0.004,-0.01215 z m 0,0 c -0.008,0.0069 -0.004,0.0191 0.0139,0.03889 -0.0139,-0.02187 -0.0186,-0.03507 -0.0139,-0.03889 z m 0.0139,0.03889 c 0.0948,0.158485 0.60917,0.793191 0.77652,1.909428 0.071,0.458947 0.028,1.002936 -0.20097,1.542377 -0.20701,0.491565 -0.53297,0.942441 -0.94499,1.418105 -0.43133,0.495733 -0.89076,0.938156 -1.41506,1.4507 -0.27455,0.26757 -0.55928,0.54765 -0.83895,0.834889 -0.87184,0.89549 -1.58862,1.75518 -2.12827,2.71397 -0.46397,0.8271 -0.73775,1.64018 -0.87639,2.37747 -0.34143,1.82343 0.0828,2.9133 0.0684,2.91527 0.0139,-0.002 0.0122,-0.0724 0.005,-0.19489 0.004,0.0199 0.008,0.04 0.0122,0.0573 -0.0293,0.35437 0.0699,0.53472 0.079,0.53283 0.0295,-0.007 -0.0368,-0.31925 0.14061,-0.81689 0.097,-0.27078 0.24365,-0.54617 0.47482,-0.88651 0.45032,-0.6616 0.95731,-1.2073 1.74377,-2.01684 0.87516,-0.89802 2.34796,-2.29365 3.36735,-3.57832 0.29748,-0.37489 0.57189,-0.75459 0.82138,-1.14516 0.81385,-1.265478 1.27169,-2.526228 1.2149,-3.759029 -0.0371,-0.732904 -0.27923,-1.365283 -0.58298,-1.845218 -0.68958,-1.084001 -1.45019,-1.395643 -1.66473,-1.502001 l -0.063,-0.046 c 0,0 0.0104,0.01562 0.0122,0.01857 -0.004,-0.0017 -0.008,-0.0052 -0.0104,-0.0069 0.004,0.0035 0.009,0.0087 0.0156,0.01389 0.009,0.01215 0.0139,0.02031 0.0382,0.05781 -0.0182,-0.01771 -0.0338,-0.03368 -0.0443,-0.04565 z m 2.50015,2.889954 c 0.0656,0.712212 0.0122,1.435013 -0.16786,2.125024 -0.11196,0.6475 -0.34314,1.266872 -0.63919,1.836672 -0.65785,1.269269 -1.66427,2.372869 -2.56035,3.336969 -1.18691,1.27333 -2.1074,2.19549 -2.98499,3.38681 -1.09932,1.48988 -1.62451,2.86094 -1.79011,4.05895 -0.0104,0.0801 -0.0122,0.15693 -0.0122,0.22582 -2.3e-4,0.0323 -2.1e-4,0.0643 2e-4,0.0958 0,0.0104 1.6e-4,0.0212 4.4e-4,0.0317 3e-5,0.004 1.1e-4,0.008 2.2e-4,0.0122 0.0645,1.30749 0.11683,2.08278 0.1505,2.18191 -0.007,0.0293 -0.0122,0.0496 -0.0122,0.05 h 2.2e-4 c 0.0523,0.0199 0.78629,-2.16014 3.15086,-4.8527 0.95115,-1.0829 2.18406,-2.21454 3.42886,-3.58798 0.4773,-0.52617 0.96124,-1.10962 1.37075,-1.75951 0.37359,-0.59286 0.68666,-1.25771 0.87144,-1.9777 0.19213,-0.75374 0.23813,-1.552969 0.15224,-2.353307 -0.15623,-0.888735 -0.46555,-1.759814 -0.86525,-2.612857 -0.0313,-0.06648 -0.0626,-0.132622 -0.0946,-0.198376 z m 1.29542,4.790955 c -0.0382,-0.004 -0.0925,0.40054 -0.29857,1.06375 -0.21079,0.67848 -0.57821,1.56947 -1.26943,2.55133 -0.66782,0.94861 -1.4742,1.79544 -2.50367,2.78436 -0.0576,0.0554 -0.11543,0.11058 -0.17289,0.16561 -1.1488,1.09484 -1.96977,1.82614 -2.82215,2.80583 -0.75028,0.85948 -1.19633,1.58263 -1.46928,2.20126 -0.2584,0.58567 -0.30628,0.94937 -0.27911,0.9577 0.004,8.7e-4 0.008,-0.002 0.0156,-0.0104 -0.004,0.0379 0.008,0.0645 0.0394,0.0835 -0.0344,0.004 -0.0578,0.008 -0.0578,0.0156 0,-0.0292 0.751,0.19874 2.06317,0.0936 0.64129,-0.63897 1.51009,-1.43549 2.47015,-2.39694 0.6815,-0.6909 1.42642,-1.48668 2.12186,-2.35736 0.19564,-0.24493 0.3832,-0.49059 0.56274,-0.73773 0.89561,-1.23015 1.50657,-2.38459 1.83364,-3.55446 0.61341,-2.19319 -0.13488,-3.4718 -0.22481,-3.644 -0.002,-0.004 -0.002,-0.005 -0.004,-0.009 -0.002,-0.008 -0.004,-0.0139 -0.005,-0.0139 z m -13.65908,9.91535 c -3.46408,8.7e-4 -12.54968,1.88694 -12.54968,1.88694 l -5.30333,7.17867 c 0,0 6.01995,-1.09895 13.18665,-2.38896 7.16674,-1.29 7.26234,2.43675 7.26234,2.43675 l 0.0717,-4.96897 -2.50839,0.0717 v -1.74389 l 2.47926,-0.0224 c -0.25399,-0.0606 0.41279,-1.78521 -1.64381,-2.35803 -0.22859,-0.0637 -0.56927,-0.092 -0.99468,-0.0918 z m 10.47932,0.34604 c 0,0 -3.1533,3.01003 -4.6344,4.87338 -1.48112,1.86336 -1.4884,3.89332 -1.4884,3.89332 0,0 0.83138,-2.14935 2.81417,-2.41213 1.9828,-0.26278 3.87005,-0.0122 5.98424,0.42994 2.11417,0.44193 11.65779,1.9111 11.65779,1.9111 l -5.20773,-7.11895 z m -6.09086,2.14368 c -0.002,0.005 -0.004,0.0104 -0.005,0.0156 4.3e-4,-0.005 8.7e-4,-0.008 8.7e-4,-0.0139 8.7e-4,2.2e-4 0.002,-10e-5 0.004,-2.1e-4 z m 1.09806,1.72634 -1.19443,0.0122 0.11943,2.53223 c 0,0 0.21508,-1.44533 0.64506,-1.99478 z"
       style="fill:white;stroke:none;stroke-width:0.05757871px;stroke-linecap:butt;stroke-linejoin:miter;stroke-opacity:1"
       inkscape:export-filename="/home/brunolgb/App/meu_compromisso/assets/icon.png"
       inkscape:export-xdpi="112"
       inkscape:export-ydpi="112" />
    <path
       style="fill:#034d00;fill-opacity:1;stroke-width:0.26458177"
       d="m 1153.749,-18.882356 c -1.4609,0.0199 -2.6294,1.22084 -2.6094,2.68174 l 0.1181,8.6410354 c 0.02,1.461147 1.2207,2.629377 2.6817,2.60944 1.4612,-0.01997 2.6294,-1.220855 2.6095,-2.681727 l -0.1181,-8.6410584 c -0.02,-1.46087 -1.2209,-2.6294 -2.6818,-2.60943 z m -28.1318,7.932978 c -0.4262,0.01693 -0.8544,0.13723 -1.2465,0.371071 -1.2555,0.7477214 -1.667,2.3717464 -0.9179,3.6274344 l 4.4231,7.42404999 c 0.5017,0.84202901 1.397,1.30445501 2.3112,1.29196401 0.4489,-0.0061 0.902,-0.126846 1.3155,-0.373004 1.2554,-0.74773601 1.6669,-2.37176901 0.9177,-3.627452 l -4.4224,-7.424036 c -0.5144,-0.8631024 -1.4428,-1.3272304 -2.3806,-1.2900034 z m 56.4699,-0.771656 c -0.9385,-0.01151 -1.8536,0.477909 -2.3439,1.354544 l -4.2185,7.5421254 c -0.7134,1.275379 -0.2577,2.88726599 1.0177,3.60067699 0.42,0.23479901 0.8763,0.34307901 1.3251,0.33697001 0.9142,-0.01249 1.7972,-0.49926201 2.2756,-1.35465201 l 4.2185,-7.54214199 c 0.7133,-1.275352 0.2577,-2.8872484 -1.0176,-3.6006594 -0.3987,-0.223026 -0.8303,-0.331601 -1.2569,-0.336843 z M 1148.364,0.72465539 c -2.8889,0.03832 -5.8498,1.52079601 -7.3145,4.90426701 -0.5804,1.341025 0.04,2.898151 1.3773,3.478972 1.3409,0.580725 2.8985,-0.03577 3.4789,-1.376794 0.8726,-2.015536 2.8555,-1.858008 3.7823,-1.492044 0.8313,0.327591 2.1062,1.212936 1.3052,3.45928 l -7.1799,20.1375116 c -3.0102,0.581728 -5.5208,3.040231 -6.3453,6.466265 -1.18,4.902432 -2.2424,9.623029 -3.2693,14.188283 -0.5198,2.310694 -1.0394,4.621149 -1.5758,6.962826 -0.3264,1.424343 0.564,2.843219 1.9886,3.169311 1.4248,0.327438 2.8436,-0.56346 3.1699,-1.988062 0.5379,-2.348325 1.059,-4.666185 1.58,-6.983591 1.0226,-4.546145 2.0802,-9.246903 3.2513,-14.110504 0.329,-1.366935 1.3133,-2.674462 2.7737,-2.536186 0.026,0.0036 0.052,0.0061 0.079,0.0089 1.3458,0.171314 2.3134,1.39594 2.1636,2.749321 -0.1511,1.367507 -0.4042,4.033456 -0.6486,6.611675 -0.2427,2.557563 -0.4935,5.202779 -0.6406,6.528333 -0.8065,7.277388 -0.5258,8.145726 1.9129,12.753082 0.4633,0.875355 0.9883,1.867487 1.625,3.146903 2.8249,5.577913 2.4678,13.281268 -1.1235,24.243536 -3.8314,11.69369 -23.785,19.02889 -40.703,20.89535 -1.4524,0.16035 -2.5002,1.46757 -2.34,2.91993 0.1507,1.36623 1.3162,2.37433 2.6628,2.35593 0.085,-0.001 0.1712,-0.007 0.2577,-0.0159 19.1703,-2.11528 40.5659,-10.51349 45.1507,-24.507693 0.5447,-1.662276 1.0186,-3.261963 1.4265,-4.805156 0.4498,1.531476 0.9672,3.117339 1.5571,4.764392 1.1062,3.087395 3.094,6.005604 5.9088,8.673537 0.5213,0.49433 1.1905,0.73417 1.856,0.72506 0.689,-0.009 1.3732,-0.28615 1.8844,-0.82526 1.0054,-1.06051 0.9603,-2.735064 -0.1002,-3.740356 -2.2069,-2.091996 -3.7436,-4.318357 -4.567,-6.61739 -3.89,-10.860016 -4.4574,-18.550849 -1.778,-24.220403 0.5936,-1.279575 1.0914,-2.285833 1.5307,-3.173504 2.3118,-4.671993 2.5683,-5.547954 1.5632,-12.800578 -0.1833,-1.323143 -0.5069,-3.964998 -0.8199,-6.519744 -0.3143,-2.566097 -0.6394,-5.219427 -0.8279,-6.580116 -0.091,-0.654444 0.082,-1.308923 0.4872,-1.843353 0.396,-0.523784 0.9637,-0.865086 1.6018,-0.964055 0.026,-0.0033 0.051,-0.007 0.077,-0.01079 1.4566,-0.179725 2.4761,1.101437 2.8424,2.45942 1.3021,4.823739 2.4861,9.488717 3.6313,13.999939 0.5859,2.308096 1.1714,4.615719 1.7751,6.954256 0.3653,1.414897 1.8081,2.2651 3.223,1.900717 1.415,-0.365171 2.2657,-1.808084 1.9008,-3.222968 -0.6016,-2.331961 -1.1856,-4.632954 -1.7698,-6.934176 -1.1497,-4.530245 -2.3386,-9.214217 -3.6508,-14.07614 -0.9184,-3.402993 -3.4945,-5.792264 -6.5197,-6.290956 l -7.7286,-19.9333946 c -0.862,-2.223343 0.3886,-3.143703 1.2108,-3.494154 0.9162,-0.390927 2.8938,-0.602534 3.8211,1.388646 l 16.2455,34.9791506 c 7.5806,17.457272 7.7251,17.791317 8.4163,43.723106 0.031,1.204047 0.8733,2.234338 2.0467,2.506469 l 12.8333,2.978214 c 1.425,0.328759 2.8456,-0.556051 3.1762,-1.979389 0.3303,-1.423539 -0.5559,-2.844987 -1.9793,-3.175623 l -10.8421,-2.515515 c -0.6839,-24.959948 -1.1718,-26.084106 -8.7972,-43.644506 L 1167.1147,5.2728964 c -2.1655,-4.64967601 -7.1256,-5.54216401 -10.693,-4.022471 -0.8571,0.365223 -1.6709,0.890999 -2.3752,1.554465 -0.7222,-0.643969 -1.5505,-1.147295 -2.4173,-1.488965 -1.0147,-0.39993501 -2.134,-0.60606401 -3.2646,-0.59110001 z m -42.9394,9.22323701 c -0.9384,-0.01156 -1.8539,0.4777516 -2.3444,1.3545616 -0.7134,1.275354 -0.2576,2.886746 1.0177,3.600155 l 7.5422,4.218539 c 0.42,0.234799 0.8761,0.343061 1.3251,0.33697 0.9143,-0.01252 1.7973,-0.499262 2.2756,-1.354669 0.7134,-1.275377 0.2576,-2.887267 -1.0178,-3.600695 l -7.542,-4.217983 c -0.3984,-0.222786 -0.8298,-0.3316096 -1.2564,-0.3368646 z m 97.4196,-1.331253 c -0.4263,0.01687 -0.8549,0.137404 -1.2471,0.371084 l -7.4241,4.4225016 c -1.2554,0.748011 -1.667,2.371758 -0.9178,3.627453 0.5018,0.841999 1.3972,1.30447 2.3118,1.291969 0.4486,-0.0061 0.9022,-0.126869 1.3154,-0.373028 l 7.424,-4.423034 c 1.2554,-0.748011 1.667,-2.371249 0.9177,-3.6269556 -0.5143,-0.862732 -1.4422,-1.32709 -2.38,-1.290015 z m -63.6952,5.1320516 c -0.9377,0.0449 -1.8223,0.589147 -2.2593,1.493956 -0.6354,1.315322 -0.084,2.897059 1.2318,3.532651 0.3825,0.184759 0.7876,0.269362 1.1851,0.263918 0.9704,-0.01327 1.8972,-0.562092 2.3481,-1.4957 l 10e-4,-0.0016 c 0.6356,-1.315578 0.084,-2.896515 -1.2324,-3.532117 -0.4109,-0.198872 -0.8481,-0.281548 -1.2743,-0.261138 z m 15.0823,2.625501 5.5268,14.255712 c -2.5182,1.579953 -4.0177,4.540227 -3.5837,7.670391 0.1826,1.318947 0.5047,3.951593 0.8165,6.497076 0.3154,2.57533 0.6415,5.23816 0.8308,6.602806 0.82,5.918106 0.82,5.918149 -1.0645,9.727531 -0.4306,0.87034 -0.9664,1.953009 -1.5802,3.275431 -0.097,0.205648 -0.1905,0.413667 -0.2809,0.622967 -0.094,-0.200859 -0.1901,-0.400736 -0.2903,-0.598104 -0.6579,-1.321699 -1.2229,-2.389725 -1.677,-3.247478 -1.9879,-3.756426 -1.988,-3.7565 -1.33,-9.694807 0.1512,-1.367486 0.4042,-4.033433 0.6488,-6.611647 0.2425,-2.55757 0.4936,-5.202761 0.6405,-6.528341 0.3479,-3.140879 -1.2327,-6.059024 -3.7925,-7.56962 z m -19.1394,7.08297 c -1.0313,-0.0087 -2.0166,0.589543 -2.4518,1.595289 l -6.9267,16.114306 c -7.143,17.762485 -7.5997,18.899235 -7.6013,43.868602 l -10.7697,2.810824 c -1.4143,0.369664 -2.261,1.814482 -1.8919,3.22852 0.3139,1.202334 1.4052,1.99432 2.594,1.978064 0.2096,-0.0028 0.4225,-0.03065 0.6346,-0.08566 l 12.7476,-3.327284 c 1.1654,-0.30435 1.9784,-1.357496 1.9775,-2.56198 -0.018,-25.941 0.1177,-26.278849 7.2184,-43.93677 l 6.8739,-15.985899 c 0.5806,-1.340776 -0.04,-2.898696 -1.3768,-3.479496 -0.3353,-0.145124 -0.6841,-0.215636 -1.0278,-0.218507 z m -36.9004,14.757923 c -1.4612,0.01996 -2.6294,1.220855 -2.6094,2.681753 0.02,1.460872 1.2206,2.629395 2.6818,2.609433 l 8.6405,-0.118078 c 1.4611,-0.01997 2.6293,-1.2206 2.6094,-2.681727 -0.02,-1.460898 -1.2205,-2.629404 -2.6818,-2.609458 z m 104.0145,-1.421358 c -1.4609,0.01996 -2.6294,1.220854 -2.6095,2.681727 0.02,1.460897 1.2209,2.62942 2.6817,2.60944 l 8.6406,-0.118059 c 1.4608,-0.01998 2.6293,-1.220873 2.6094,-2.681746 -0.02,-1.460898 -1.2205,-2.629384 -2.6817,-2.60944 z m -28.9658,65.997423 c -1.0307,0.009 -2.0047,0.62455 -2.4227,1.63781 -0.5574,1.35076 0.086,2.89807 1.4375,3.45541 0.3418,0.14111 0.6962,0.20546 1.0441,0.20069 1.0265,-0.014 1.9945,-0.62884 2.4108,-1.63765 0.5569,-1.35104 -0.087,-2.89758 -1.4369,-3.45489 l -10e-5,4e-4 v -0.001 c -0.3376,-0.13941 -0.6876,-0.20346 -1.0311,-0.20043 z m 9.9012,4.01781 c -1.1277,-0.008 -2.1782,0.71166 -2.5392,1.84251 -0.4439,1.39203 0.3247,2.88041 1.7168,3.32445 6.2768,2.00171 13.2796,3.36439 20.2503,3.94099 0.087,0.007 0.1724,0.0101 0.2575,0.009 1.3466,-0.0184 2.4841,-1.05774 2.5974,-2.4273 0.1203,-1.4562 -0.9622,-2.73456 -2.4184,-2.8549 -6.5791,-0.54409 -13.1762,-1.82645 -19.0786,-3.70892 -0.261,-0.0831 -0.5256,-0.12391 -0.7858,-0.1257 z"
       id="path2"
       inkscape:connector-curvature="0" />
    <path
       inkscape:export-ydpi="112"
       inkscape:export-xdpi="112"
       inkscape:export-filename="/home/brunolgb/App/meu_compromisso/assets/icon.png"
       style="fill:#469d28;fill-opacity:1;stroke:none;stroke-width:0.09768584px;stroke-linecap:butt;stroke-linejoin:miter;stroke-opacity:1"
       d="m 1160.0739,231.6973 c 0,0 0.024,3.00963 -2.5412,6.19198 -2.5655,3.18236 -10.5091,9.30048 -13.3709,11.98942 -2.8615,2.68899 -5.9461,6.3269 -6.7833,10.02502 -0.8373,3.69814 -0.3839,4.32615 -0.3839,5.6868 0,1.36062 0.1809,1.58092 0.1809,1.58092 l 0.045,-0.55619 c 0,0 0.4278,-4.6239 4.0049,-8.47236 3.577,-3.84843 9.9172,-9.00441 11.8413,-10.82995 1.9242,-1.82554 4.7612,-4.73653 6.2907,-8.97966 1.5295,-4.24316 0.7155,-6.63598 0.7155,-6.63598 z m 0.058,7.16541 c -0.076,-0.002 -0.1221,1.6486 -1.5327,3.89161 -0.8321,1.31726 -1.8695,2.56631 -3.3631,4.12916 -1.3703,1.43201 -2.7781,2.75565 -4.5065,4.3575 -1.4479,1.34157 -3.1639,2.91053 -4.7294,4.43248 -4e-4,2.7e-4 -0.1188,0.11639 -0.1205,0.11656 -1.6193,1.57873 -3.0741,3.09643 -4.382,4.70666 -1.3157,1.61792 -2.36,3.18258 -3.0966,4.83565 -0.7896,1.76781 -1.0783,3.4393 -0.9558,4.92268 0.2345,2.72142 1.4554,3.97664 1.9403,4.48991 -0.024,-0.0348 -0.055,-0.0833 -0.085,-0.12452 0.042,0.0587 0.079,0.10977 0.1136,0.15455 -0.017,-0.0119 -0.017,-0.0177 -0.028,-0.03 0.102,0.14336 0.172,0.23765 0.1852,0.27299 4e-4,0.007 8e-4,0.008 0,0.0136 0.072,0.68228 0.2827,1.29886 0.5594,1.81615 0.3847,0.71725 0.8982,1.28072 1.3455,1.69065 1.0173,0.93292 1.8096,1.30195 2.1058,1.43418 0.017,0.007 0.061,0.038 0.061,0.038 v -0.0119 c 0.044,0.0206 0.075,0.0341 0.071,0.0387 0,-0.007 -0.028,-0.0295 -0.075,-0.0609 l -0.079,-0.68629 c 0.017,0.0206 0.034,0.0396 0.049,0.0584 -0.4189,-0.65212 -0.9954,-1.8283 -1.0735,-3.58271 -0.054,-1.09013 0.2289,-2.33016 0.9428,-3.59089 0.6643,-1.17301 1.576,-2.22891 2.7326,-3.37151 1.1674,-1.1511 2.3709,-2.1724 3.7995,-3.38848 1.2855,-1.09377 2.7499,-2.33579 4.1042,-3.63498 1.2653,-1.21305 2.5457,-2.57843 3.6413,-4.12799 1.0163,-1.43711 1.885,-3.07692 2.3909,-4.87744 0.411,-1.86548 0.4044,-3.87469 -0.017,-5.86231 -0.017,0.0404 -0.028,0.0807 -0.042,0.12097 0,-0.0205 -0.017,-0.0674 -0.017,-0.0674 0,0 -0.045,0.18113 -0.1324,0.4684 -0.049,0.12691 -0.1,0.25386 -0.1526,0.37984 -0.5585,1.30955 -1.3401,2.54095 -2.1893,3.68747 -1.0963,1.65849 -2.3794,3.1801 -3.6625,4.59085 -3.007,3.30486 -6.1195,6.13315 -8.715,8.86902 -1.3647,1.43747 -2.5296,2.76119 -3.535,4.18541 -0.9472,1.3366 -1.6427,2.61646 -1.9701,3.98035 -0.1493,0.62478 -0.199,1.23702 -0.151,1.81841 -0.082,-0.37631 -0.6232,-2.05347 -0.034,-4.53208 0.3138,-1.32899 0.9469,-2.70855 1.9752,-4.21441 0.9411,-1.37564 2.0741,-2.66619 3.4482,-4.0702 1.3437,-1.37194 2.7053,-2.63079 4.2558,-4.07478 0.1187,-0.11011 0.6417,-0.59699 0.76,-0.70725 3.0489,-2.84171 5.4422,-5.20901 7.3935,-8.03983 1.2092,-1.75475 2.0017,-3.40291 2.4684,-4.96519 0.8333,-2.7952 0.4781,-4.64797 0.3429,-5.24964 0,-0.14777 -0.027,-0.23088 -0.044,-0.23118 z m -16.5222,40.48758 c 0.2595,0.40373 0.4588,0.60755 0.4409,0.62024 0.1055,-0.0748 -0.1187,-0.24708 -0.4409,-0.62024 z m 16.5145,-32.29492 c 0,0.0716 0.017,0.14319 0.017,0.2147 -0.017,-0.0557 -0.024,-0.10694 -0.032,-0.14845 0,-0.0236 0,-0.0441 0.017,-0.0663 z m 5.2376,4.99361 c 0,0.007 0,0.0119 0,0.0205 -0.017,-0.008 -0.017,-0.0177 0,-0.0205 z m 0,0 c -0.017,0.0119 0,0.0324 0.024,0.066 -0.024,-0.0372 -0.032,-0.0595 -0.024,-0.066 z m 0.024,0.066 c 0.1611,0.26886 1.0335,1.3457 1.3173,3.23946 0.1204,0.77862 0.048,1.70154 -0.341,2.61672 -0.3512,0.83399 -0.9041,1.59891 -1.6033,2.40592 -0.7317,0.84104 -1.5111,1.59163 -2.4006,2.46121 -0.4659,0.45394 -0.9489,0.92912 -1.4235,1.41644 -1.479,1.51925 -2.6951,2.97776 -3.6106,4.60441 -0.7872,1.40323 -1.2517,2.78266 -1.4868,4.03353 -0.5794,3.09356 0.1408,4.94259 0.1154,4.94594 0.024,-0.003 0.02,-0.12284 0,-0.33065 0,0.0338 0.017,0.0679 0.02,0.0972 -0.049,0.60121 0.1187,0.90719 0.134,0.90398 0.049,-0.0119 -0.062,-0.54163 0.2386,-1.38591 0.1646,-0.45939 0.4133,-0.9266 0.8055,-1.50402 0.764,-1.12244 1.6241,-2.04825 2.9585,-3.42169 1.4847,-1.52354 3.9833,-3.89132 5.7129,-6.07084 0.5046,-0.63603 0.9702,-1.28021 1.3935,-1.94283 1.3808,-2.14697 2.1575,-4.28591 2.0612,-6.37744 -0.062,-1.24342 -0.4737,-2.31629 -0.9892,-3.13052 -1.17,-1.83908 -2.4603,-2.36779 -2.8242,-2.54824 l -0.1066,-0.078 c 0,0 0.017,0.0264 0.02,0.0315 0,-0.003 -0.017,-0.008 -0.017,-0.0119 0,0.007 0.017,0.0153 0.027,0.0236 0.017,0.0206 0.024,0.0345 0.065,0.0981 -0.031,-0.0301 -0.058,-0.0572 -0.075,-0.0776 z m 4.2415,4.90298 c 0.1123,1.2083 0.02,2.43457 -0.2847,3.60524 -0.19,1.09852 -0.5822,2.14933 -1.0845,3.11603 -1.1161,2.15339 -2.8236,4.02571 -4.3438,5.66136 -2.0136,2.16029 -3.5754,3.7248 -5.0643,5.74594 -1.865,2.52767 -2.756,4.85376 -3.037,6.88626 -0.017,0.13589 -0.02,0.26625 -0.02,0.38312 -4e-4,0.0548 -4e-4,0.10908 3e-4,0.16253 0,0.0177 4e-4,0.036 8e-4,0.0538 0,0.007 2e-4,0.0136 3e-4,0.0206 0.1089,2.21823 0.1983,3.53357 0.2554,3.70175 -0.017,0.0497 -0.02,0.0841 -0.02,0.0848 h 3e-4 c 0.089,0.0338 1.3341,-3.6648 5.3458,-8.23291 1.6136,-1.8372 3.7053,-3.7571 5.8172,-6.08722 0.8098,-0.89269 1.6309,-1.88254 2.3256,-2.98512 0.6339,-1.00582 1.1648,-2.13378 1.4784,-3.35529 0.3261,-1.27876 0.4041,-2.63472 0.2584,-3.99254 -0.2652,-1.5078 -0.7899,-2.98562 -1.4681,-4.43287 -0.052,-0.11284 -0.1066,-0.22501 -0.1611,-0.33655 z m 2.1979,8.12816 c -0.065,-0.007 -0.1561,0.67954 -0.5067,1.80471 -0.3575,1.15109 -0.9809,2.6627 -2.1535,4.3285 -1.1332,1.60937 -2.5011,3.04606 -4.2477,4.72383 -0.099,0.094 -0.1958,0.18761 -0.2934,0.28097 -1.9489,1.85747 -3.3418,3.09816 -4.788,4.76026 -1.2728,1.45816 -2.0296,2.68503 -2.4926,3.73457 -0.4384,0.99363 -0.5196,1.61067 -0.4734,1.6248 0,0.001 0.017,-0.003 0.027,-0.0177 0,0.0643 0.017,0.10943 0.066,0.14167 -0.058,0.007 -0.099,0.0136 -0.099,0.0264 0,-0.0496 1.274,0.33717 3.5001,0.15879 1.088,-1.08404 2.5621,-2.43539 4.1909,-4.06655 1.1562,-1.17216 2.4199,-2.52225 3.5997,-3.99941 0.3321,-0.41554 0.6502,-0.83231 0.9549,-1.2516 1.5194,-2.08702 2.5559,-4.04561 3.1108,-6.03037 1.0407,-3.72088 -0.2289,-5.89011 -0.3814,-6.18226 0,-0.007 0,-0.008 0,-0.0153 0,-0.0136 0,-0.0236 0,-0.0236 z m -23.1736,16.822 c -5.877,10e-4 -21.2912,3.20131 -21.2912,3.20131 l -8.9974,12.17906 c 0,0 10.2131,-1.86444 22.3718,-4.05302 12.159,-2.18856 12.3211,4.13409 12.3211,4.13409 l 0.1222,-8.43016 -4.2557,0.12164 v -2.95862 l 4.2062,-0.038 c -0.431,-0.10286 0.7002,-3.02872 -2.7888,-4.00055 -0.3879,-0.10807 -0.9659,-0.15608 -1.6876,-0.15574 z m 17.7789,0.58707 c 0,0 -5.3498,5.1067 -7.8626,8.268 -2.5128,3.1613 -2.5252,6.60526 -2.5252,6.60526 0,0 1.4106,-3.64651 4.7744,-4.09233 3.364,-0.44583 6.5658,-0.0206 10.1526,0.72941 3.5869,0.74977 19.7782,3.24231 19.7782,3.24231 l -8.8351,-12.07774 z m -10.3337,3.63689 c 0,0.008 0,0.0177 0,0.0264 9e-4,-0.008 0,-0.0136 0,-0.0236 0,3.8e-4 0,-1.7e-4 0,-3.6e-4 z m 1.863,2.92885 -2.0263,0.0206 0.2026,4.29609 c 0,0 0.3649,-2.45209 1.0944,-3.38427 z"
       id="path854"
       inkscape:connector-curvature="0" />
    <g
       id="g869"
       transform="translate(5.6368472,28.865109)">
      <path
         d="m 1055.2546,6.7180014 a 94.07888,94.07888 0 0 1 89.6748,-90.6207084 94.07888,94.07888 0 0 1 97.6524,81.9615635"
         sodipodi:open="true"
         sodipodi:end="6.1551025"
         sodipodi:start="3.1772918"
         sodipodi:ry="94.07888"
         sodipodi:rx="94.07888"
         sodipodi:cy="10.075824"
         sodipodi:cx="1149.2736"
         sodipodi:type="arc"
         id="path860"
         style="opacity:1;fill:none;fill-opacity:1;stroke:white;stroke-width:0.26458335;stroke-linecap:round;stroke-linejoin:miter;stroke-miterlimit:4;stroke-dasharray:none;stroke-dashoffset:0;stroke-opacity:1;paint-order:fill markers stroke" />
      <text
         id="text858"
         style="font-style:normal;font-variant:normal;font-weight:normal;font-stretch:normal;font-size:32.88864136px;line-height:1.25;font-family:Brayles;-inkscape-font-specification:'Brayles, Normal';font-variant-ligatures:normal;font-variant-caps:normal;font-variant-numeric:normal;font-feature-settings:normal;text-align:start;letter-spacing:0px;word-spacing:0px;writing-mode:lr-tb;text-anchor:start;fill:#034d00;fill-opacity:1;stroke:none;stroke-width:0.82221615"
         xml:space="preserve"><textPath
           startOffset="70"
           id="textPath862"
           xlink:href="#path860"><tspan
   id="tspan856"
   style="font-style:normal;font-variant:normal;font-weight:normal;font-stretch:normal;font-size:32.88864136px;font-family:Brayles;-inkscape-font-specification:'Brayles, Normal';font-variant-ligatures:normal;font-variant-caps:normal;font-variant-numeric:normal;font-feature-settings:normal;text-align:start;writing-mode:lr-tb;text-anchor:start;fill:#034d00;fill-opacity:1;stroke-width:0.82221615">Compromisso</tspan></textPath></text>
    </g>
    <text
       xml:space="preserve"
       style="font-style:normal;font-variant:normal;font-weight:normal;font-stretch:normal;font-size:19.30858612px;line-height:1.25;font-family:'Gobold Extra1';-inkscape-font-specification:'Gobold Extra1, Normal';font-variant-ligatures:normal;font-variant-caps:normal;font-variant-numeric:normal;font-feature-settings:normal;text-align:start;letter-spacing:0px;word-spacing:0px;writing-mode:lr-tb;text-anchor:start;fill:#d79007;fill-opacity:1;stroke:none;stroke-width:0.48271617;stroke-opacity:1"
       x="1138.0797"
       y="-98.002716"
       id="text873"><tspan
         sodipodi:role="line"
         id="tspan871"
         x="1138.0797"
         y="-98.002716"
         style="font-style:normal;font-variant:normal;font-weight:normal;font-stretch:normal;font-size:19.30858612px;font-family:'Gobold Extra1';-inkscape-font-specification:'Gobold Extra1, Normal';font-variant-ligatures:normal;font-variant-caps:normal;font-variant-numeric:normal;font-feature-settings:normal;text-align:start;writing-mode:lr-tb;text-anchor:start;fill:#d79007;fill-opacity:1;stroke:none;stroke-width:0.48271617;stroke-opacity:1">MEU</tspan></text>
    <text
       xml:space="preserve"
       style="font-style:normal;font-variant:normal;font-weight:bold;font-stretch:normal;font-size:7.05555582px;line-height:1.25;font-family:sans-serif;-inkscape-font-specification:'sans-serif, Bold';font-variant-ligatures:normal;font-variant-caps:normal;font-variant-numeric:normal;font-feature-settings:normal;text-align:start;letter-spacing:0px;word-spacing:0px;writing-mode:lr-tb;text-anchor:start;fill:gray;fill-opacity:1;stroke:none;stroke-width:0.26458335;"
       x="1050.5012"
       y="330.25168"
       id="text877"><tspan
         sodipodi:role="line"
         id="tspan875"
         x="1050.5012"
         y="330.25168"
         style="font-style:normal;font-variant:normal;font-weight:bold;font-stretch:normal;font-size:7.05555582px;font-family:sans-serif;-inkscape-font-specification:'sans-serif, Bold';font-variant-ligatures:normal;font-variant-caps:normal;font-variant-numeric:normal;font-feature-settings:normal;text-align:start;letter-spacing:2.64583325px;writing-mode:lr-tb;text-anchor:start;stroke-width:0.26458335;fill:gray;">IGREJA ADVENTISTA DO STIMO DIA</tspan></text>
  </g>
</svg>
