<?xml version="1.0" encoding="UTF-8" standalone="no"?>
<!-- Created with Inkscape (http://www.inkscape.org/) -->

<svg
   xmlns:dc="http://purl.org/dc/elements/1.1/"
   xmlns:cc="http://creativecommons.org/ns#"
   xmlns:rdf="http://www.w3.org/1999/02/22-rdf-syntax-ns#"
   xmlns:svg="http://www.w3.org/2000/svg"
   xmlns="http://www.w3.org/2000/svg"
   xmlns:xlink="http://www.w3.org/1999/xlink"
   xmlns:sodipodi="http://sodipodi.sourceforge.net/DTD/sodipodi-0.dtd"
   xmlns:inkscape="http://www.inkscape.org/namespaces/inkscape"
   width="793.70081"
   height="1122.5197"
   viewBox="0 0 210 297"
   version="1.1"
   id="svg8"
   inkscape:version="0.92.3 (2405546, 2018-03-11)"
   sodipodi:docname="projetos.svg">
  <defs
     id="defs2" />
  <sodipodi:namedview
     id="base"
     pagecolor="#ffffff"
     bordercolor="#666666"
     borderopacity="1.0"
     inkscape:pageopacity="0.0"
     inkscape:pageshadow="2"
     inkscape:zoom="1.4"
     inkscape:cx="1003.3072"
     inkscape:cy="662.80489"
     inkscape:document-units="px"
     inkscape:current-layer="layer1"
     showgrid="false"
     inkscape:window-width="1280"
     inkscape:window-height="716"
     inkscape:window-x="0"
     inkscape:window-y="25"
     inkscape:window-maximized="1"
     units="px"
     showborder="false"
     showguides="true"
     inkscape:guide-bbox="true"
     inkscape:lockguides="false"
     inkscape:snap-global="true" />
  <metadata
     id="metadata5">
    <rdf:RDF>
      <cc:Work
         rdf:about="">
        <dc:format>image/svg+xml</dc:format>
        <dc:type
           rdf:resource="http://purl.org/dc/dcmitype/StillImage" />
        <dc:title />
      </cc:Work>
    </rdf:RDF>
  </metadata>
  <g
     inkscape:label="Camada 1"
     inkscape:groupmode="layer"
     id="layer1">
    <g
       transform="matrix(1.0057299,0,0,1.0057299,-419.78009,-147.73604)"
       id="g1272">
      <circle
         style="opacity:1;fill:#7ee200;fill-opacity:1;stroke:none;stroke-width:1.41737282;stroke-linecap:square;stroke-linejoin:miter;stroke-miterlimit:4;stroke-dasharray:none;stroke-dashoffset:0;stroke-opacity:1;paint-order:fill markers stroke"
         id="circle1268"
         cx="545.79761"
         cy="213.84523"
         r="24.190477" />
      <path
         sodipodi:nodetypes="ccc"
         inkscape:connector-curvature="0"
         id="path1270"
         d="m 536.79731,214.30121 6.73133,9.65799 16.04039,-20.36589"
         style="opacity:1;fill:none;fill-opacity:1;stroke:#076300;stroke-width:5.29166651;stroke-linecap:round;stroke-linejoin:miter;stroke-miterlimit:4;stroke-dasharray:none;stroke-dashoffset:0;stroke-opacity:1;paint-order:fill markers stroke" />
    </g>
    <g
       id="g896"
       transform="translate(-1.9998994e-6,0.0054209)">
      <circle
         r="24.190477"
         cy="67.190475"
         cx="61.610119"
         id="path834"
         style="opacity:1;fill:#e9b100;fill-opacity:1;stroke:none;stroke-width:1.41737282;stroke-linecap:square;stroke-linejoin:miter;stroke-miterlimit:4;stroke-dasharray:none;stroke-dashoffset:0;stroke-opacity:1;paint-order:fill markers stroke" />
      <rect
         ry="1.6063988"
         y="56.264339"
         x="44.51022"
         height="20.965908"
         width="33.92355"
         id="rect840"
         style="opacity:1;fill:none;fill-opacity:1;stroke:white;stroke-width:2.64583325;stroke-linecap:round;stroke-linejoin:miter;stroke-miterlimit:4;stroke-dasharray:none;stroke-dashoffset:0;stroke-opacity:1;paint-order:fill markers stroke" />
      <path
         sodipodi:nodetypes="cc"
         inkscape:transform-center-x="7.0994407"
         inkscape:transform-center-y="-4.0988642"
         inkscape:connector-curvature="0"
         id="path844"
         d="m 48.539348,59.115426 12.795607,9.054409"
         style="opacity:1;fill:none;fill-opacity:1;stroke:white;stroke-width:1.58873761;stroke-linecap:round;stroke-linejoin:miter;stroke-miterlimit:4;stroke-dasharray:none;stroke-dashoffset:0;stroke-opacity:1;paint-order:fill markers stroke" />
      <path
         sodipodi:nodetypes="cc"
         inkscape:transform-center-x="-7.0994407"
         style="opacity:1;fill:none;fill-opacity:1;stroke:white;stroke-width:1.58873761;stroke-linecap:round;stroke-linejoin:miter;stroke-miterlimit:4;stroke-dasharray:none;stroke-dashoffset:0;stroke-opacity:1;paint-order:fill markers stroke"
         d="M 73.998456,59.402849 61.609033,68.169835"
         id="path846"
         inkscape:connector-curvature="0"
         inkscape:transform-center-y="-4.0988642" />
      <path
         sodipodi:nodetypes="cc"
         style="opacity:1;fill:none;fill-opacity:1;stroke:white;stroke-width:1.58873761;stroke-linecap:round;stroke-linejoin:miter;stroke-miterlimit:4;stroke-dasharray:none;stroke-dashoffset:0;stroke-opacity:1;paint-order:fill markers stroke"
         d="M 48.567516,74.409974 59.002774,67.156307"
         id="path848"
         inkscape:connector-curvature="0"
         inkscape:transform-center-y="4.0988642"
         inkscape:transform-center-x="7.0994407" />
      <path
         sodipodi:nodetypes="cc"
         inkscape:transform-center-y="4.0988642"
         inkscape:connector-curvature="0"
         id="path850"
         d="M 74.390586,74.409972 63.740896,67.040653"
         style="opacity:1;fill:none;fill-opacity:1;stroke:white;stroke-width:1.58873761;stroke-linecap:round;stroke-linejoin:miter;stroke-miterlimit:4;stroke-dasharray:none;stroke-dashoffset:0;stroke-opacity:1;paint-order:fill markers stroke"
         inkscape:transform-center-x="-7.0994407" />
    </g>
    <g
       id="g870"
       transform="translate(0.37300181,0.0054209)">
      <circle
         r="24.190477"
         cy="67.190475"
         cx="196.30664"
         id="circle854"
         style="opacity:1;fill:#e2001b;fill-opacity:1;stroke:none;stroke-width:1.41737282;stroke-linecap:square;stroke-linejoin:miter;stroke-miterlimit:4;stroke-dasharray:none;stroke-dashoffset:0;stroke-opacity:1;paint-order:fill markers stroke" />
      <g
         transform="translate(-0.22710438,-1.385444)"
         id="g864">
        <path
           inkscape:connector-curvature="0"
           id="path856"
           d="M 184.64025,81.07077 208.56087,56.081069"
           style="opacity:1;fill:none;fill-opacity:1;stroke:#631100;stroke-width:5.29166651;stroke-linecap:round;stroke-linejoin:miter;stroke-miterlimit:4;stroke-dasharray:none;stroke-dashoffset:0;stroke-opacity:1;paint-order:fill markers stroke"
           sodipodi:nodetypes="cc" />
        <use
           x="0"
           y="0"
           xlink:href="#path856"
           id="use860"
           transform="matrix(-1,0,0,1,393.06749,-4.233301e-8)"
           width="100%"
           height="100%" />
      </g>
    </g>
    <g
       id="g1001"
       transform="translate(-1.4468712,0.0054209)">
      <circle
         r="24.190477"
         cy="67.190475"
         cx="265.52267"
         id="circle917"
         style="opacity:1;fill:#0095eb;fill-opacity:1;stroke:none;stroke-width:1.41737282;stroke-linecap:square;stroke-linejoin:miter;stroke-miterlimit:4;stroke-dasharray:none;stroke-dashoffset:0;stroke-opacity:1;paint-order:fill markers stroke" />
      <path
         d="m 265.69582,55.126057 a 12.063556,12.063556 0 0 1 10.74171,6.924742 12.063556,12.063556 0 0 1 -1.50872,12.690945"
         sodipodi:open="true"
         sodipodi:end="0.67658212"
         sodipodi:start="4.726745"
         sodipodi:ry="12.063556"
         sodipodi:rx="12.063556"
         sodipodi:cy="67.18837"
         sodipodi:cx="265.52264"
         sodipodi:type="arc"
         style="opacity:1;fill:none;fill-opacity:1;stroke:#00416c;stroke-width:4.76249981;stroke-linecap:round;stroke-linejoin:miter;stroke-miterlimit:4;stroke-dasharray:none;stroke-dashoffset:0;stroke-opacity:1;paint-order:fill markers stroke"
         id="circle940" />
      <path
         inkscape:connector-curvature="0"
         id="path944"
         d="m 266.53616,59.591847 -4.42934,-4.429337 4.68547,-4.685465"
         style="opacity:1;fill:none;fill-opacity:1;stroke:#00416c;stroke-width:4.76249981;stroke-linecap:round;stroke-linejoin:miter;stroke-miterlimit:4;stroke-dasharray:none;stroke-dashoffset:0;stroke-opacity:1;paint-order:fill markers stroke" />
      <path
         id="path958"
         style="opacity:1;fill:none;fill-opacity:1;stroke:#00416c;stroke-width:4.76249981;stroke-linecap:round;stroke-linejoin:miter;stroke-miterlimit:4;stroke-dasharray:none;stroke-dashoffset:0;stroke-opacity:1;paint-order:fill markers stroke"
         sodipodi:type="arc"
         sodipodi:cx="265.52264"
         sodipodi:cy="67.18837"
         sodipodi:rx="12.063556"
         sodipodi:ry="12.063556"
         sodipodi:start="1.5974836"
         sodipodi:end="3.711081"
         sodipodi:open="true"
         d="M 265.20074,79.24763 A 12.063556,12.063556 0 0 1 254.86334,72.837142 12.063556,12.063556 0 0 1 255.363,60.683686" />
      <path
         style="opacity:1;fill:none;fill-opacity:1;stroke:#00416c;stroke-width:4.76249981;stroke-linecap:round;stroke-linejoin:miter;stroke-miterlimit:4;stroke-dasharray:none;stroke-dashoffset:0;stroke-opacity:1;paint-order:fill markers stroke"
         d="m 264.27018,83.412453 4.42933,-4.429336 -4.68546,-4.685465"
         id="path960"
         inkscape:connector-curvature="0" />
    </g>
    <path
       style="color:black;font-style:normal;font-variant:normal;font-weight:normal;font-stretch:normal;font-size:medium;line-height:normal;font-family:sans-serif;font-variant-ligatures:normal;font-variant-position:normal;font-variant-caps:normal;font-variant-numeric:normal;font-variant-alternates:normal;font-feature-settings:normal;text-indent:0;text-align:start;text-decoration:none;text-decoration-line:none;text-decoration-style:solid;text-decoration-color:black;letter-spacing:normal;word-spacing:normal;text-transform:none;writing-mode:lr-tb;direction:ltr;text-orientation:mixed;dominant-baseline:auto;baseline-shift:baseline;text-anchor:start;white-space:normal;shape-padding:0;clip-rule:nonzero;display:inline;overflow:visible;visibility:visible;opacity:0.98999999;isolation:auto;mix-blend-mode:normal;color-interpolation:sRGB;color-interpolation-filters:linearRGB;solid-color:black;solid-opacity:1;vector-effect:none;fill:#007108;fill-opacity:1;fill-rule:nonzero;stroke:none;stroke-width:1.62813723;stroke-linecap:round;stroke-linejoin:miter;stroke-miterlimit:4;stroke-dasharray:none;stroke-dashoffset:0;stroke-opacity:1;paint-order:fill markers stroke;color-rendering:auto;image-rendering:auto;shape-rendering:auto;text-rendering:auto;enable-background:accumulate"
       d="m -74.864244,51.146272 c -1.15141,-0.004 -1.87483,0.83783 -2.34558,1.46916 l -0.85317,1.14412 h -7.35047 v 0.90485 2.17248 c -2.53905,0.10112 -4.57648,2.20081 -4.57648,4.76405 v 19.05104 c 0,2.62744 2.14075,4.76819 4.76819,4.76819 h 28.89179 c 0.37097,0.79639 0.884,1.54236 1.53995,2.19832 3.01959,3.01958 7.94047,3.01958 10.96005,0 3.01961,-3.01961 3.01961,-7.94047 0,-10.96008 -0.97017,-0.97017 -2.13691,-1.62719 -3.37344,-1.97403 v -13.08344 c 0,-2.62746 -2.14019,-4.76819 -4.76766,-4.76819 h -5.086 l -3.1445,-4.21731 c -0.46998,-0.63029 -1.19335,-1.47757 -2.3487,-1.46916 l -3.7455,0.0274 z m -0.005,1.62781 8.57723,0.0274 3.75378,-0.0274 c 0.26201,-0.002 0.65418,0.30892 1.03148,0.81494 l 3.63336,4.87153 h 5.90248 c 1.75364,0 3.13987,1.38675 3.13987,3.14038 v 12.80904 c -0.15939,-0.01 -0.31891,-0.0165 -0.47853,-0.0165 -1.98514,0 -3.9705,0.75517 -5.48029,2.26496 -1.93169,1.9317 -2.62546,4.64108 -2.08565,7.13343 h -28.34609 c -1.75363,0 -3.13986,-1.38625 -3.13986,-3.13986 v -19.05104 c 0,-1.75363 1.38623,-3.14038 3.13986,-3.14038 h 5.68442 l 3.63286,-4.87153 c 0.3765,-0.50497 0.76909,-0.81578 1.03508,-0.81494 z m -8.73332,2.79569 h 4.18992 l -0.94155,1.26297 h -3.24837 z m 15.00632,4.44314 c -6.01252,0 -10.90218,4.88918 -10.90218,10.90165 0,6.01253 4.88966,10.90168 10.90218,10.90168 6.01247,0 10.90165,-4.88915 10.90165,-10.90168 0,-6.01247 -4.88918,-10.90165 -10.90165,-10.90165 z m 14.30557,0.70849 a 1.638989,1.638989 0 0 0 -1.63917,1.63917 1.638989,1.638989 0 0 0 1.63917,1.63866 1.638989,1.638989 0 0 0 1.63918,-1.63866 1.638989,1.638989 0 0 0 -1.63918,-1.63917 z m -14.30557,0.7121 c 5.24452,0 9.48055,4.23654 9.48055,9.48106 0,5.24455 -4.23603,9.48058 -9.48055,9.48058 -5.24457,0 -9.48108,-4.23603 -9.48108,-9.48058 0,-5.24452 4.23651,-9.48106 9.48108,-9.48106 z m 0,2.45566 c -3.87456,0 -7.02543,3.15088 -7.02543,7.0254 0,3.87456 3.15087,7.02543 7.02543,7.02543 3.87453,0 7.0254,-3.15087 7.0254,-7.02543 0,-3.87452 -3.15087,-7.0254 -7.0254,-7.0254 z m 0,0.91571 c 3.37966,0 6.10918,2.73006 6.10918,6.10969 0,3.37968 -2.72952,6.10921 -6.10918,6.10921 -3.37968,0 -6.1097,-2.72953 -6.1097,-6.10921 0,-3.37963 2.73002,-6.10969 6.1097,-6.10969 z m 19.28667,11.20708 c 1.56477,0 3.1297,0.59962 4.32843,1.79832 2.39739,2.39741 2.39739,6.25893 0,8.65632 -2.39742,2.39741 -6.25944,2.39741 -8.65685,0 -2.39739,-2.39739 -2.39739,-6.25891 0,-8.65632 1.19869,-1.1987 2.76365,-1.79832 4.32842,-1.79832 z m -0.002,2.31251 a 0.54276664,0.54276664 0 0 0 -0.53539,0.5488 l -0.009,2.72282 -2.68819,-0.0176 a 0.54276664,0.54276664 0 0 0 -0.0543,0 h -5e-4 a 0.54276664,0.54276664 0 0 0 0.047,1.08419 l 2.69235,0.0186 -0.009,2.69234 a 0.54297368,0.54297368 0 1 0 1.08571,0.004 l 0.009,-2.68872 2.72386,0.0186 a 0.54297974,0.54297974 0 1 0 0.008,-1.08575 l -2.72799,-0.0181 0.009,-2.72801 a 0.54276664,0.54276664 0 0 0 -0.55086,-0.55086 z"
       id="path998"
       inkscape:connector-curvature="0"
       inkscape:export-filename="/home/brunolgb/PROJECTS/igreja/assets/add-image.png"
       inkscape:export-xdpi="112"
       inkscape:export-ydpi="112" />
    <g
       id="g1352"
       transform="matrix(0.76154757,0,0,0.76154757,-55.966065,9.2474215)">
      <circle
         style="opacity:1;fill:none;fill-opacity:1;stroke:#007209;stroke-width:5.29166651;stroke-linecap:round;stroke-linejoin:miter;stroke-miterlimit:4;stroke-dasharray:none;stroke-dashoffset:0;stroke-opacity:1;paint-order:fill markers stroke"
         id="circle1333"
         cx="-234.70537"
         cy="38.780991"
         r="80.297104" />
      <path
         inkscape:connector-curvature="0"
         style="opacity:0.98999999;fill:none;fill-opacity:1;stroke:#007209;stroke-width:1.04088831;stroke-linecap:round;stroke-linejoin:miter;stroke-miterlimit:4;stroke-dasharray:none;stroke-dashoffset:0;stroke-opacity:1;paint-order:fill markers stroke"
         d="m -236.10706,-34.346422 c -8.55301,-0.07319 -15.2748,3.361298 -17.46316,5.671212 -3.78523,3.995536 -4.62645,7.360221 -4.62645,7.360221 0,0 -8.83223,0.841004 -10.09399,11.040122 -1.26173,10.19912493 8.93742,39.955478 8.93742,39.955478 -2.08768,-15.494478 4.31827,-38.1857625 4.31827,-38.1857625 0,0 7.13751,-6.8400665 12.49066,-5.6504785 5.35313,1.189586 5.05573,-0.892074 16.6542,-0.892074 11.59848,0 17.10015,11.1522587 19.33065,20.66895 2.23045,9.516691 1.41273,24.683897 1.41273,24.683897 0,0 7.4089,-18.289042 7.61923,-23.8617545 0.21026,-5.57271977 -1.0515,-19.9777475 -17.97994,-33.2260925 -7.14168,-5.589144 -14.35824,-7.510305 -20.59962,-7.563718 z"
         id="path1303" />
      <path
         style="opacity:0.98999999;fill:none;fill-opacity:1;stroke:#007209;stroke-width:1.04088831;stroke-linecap:round;stroke-linejoin:miter;stroke-miterlimit:4;stroke-dasharray:none;stroke-dashoffset:0;stroke-opacity:1;paint-order:fill markers stroke"
         d="m -254.50929,-8.8205175 c 0,0 -6.40587,22.6911425 -4.31816,38.1856195 2.08767,15.49448 1.41325,15.215123 2.60284,17.445597 1.18958,2.230477 9.73974,17.546402 17.76945,19.107735 8.02971,1.561333 9.96278,0.594796 15.76202,-3.717456 5.79924,-4.312251 11.89587,-8.698854 14.72113,-15.538975 2.82528,-6.840126 2.82528,-16.356817 2.82528,-16.356817 0,0 0.81781,-15.167233 -1.41265,-24.6839242 -2.23046,-9.5166948 -7.73233,-20.6690678 -19.33077,-20.6690678 -11.59848,0 -11.30108,2.081778 -16.65421,0.892192 -5.35316,-1.189588 -11.96493,5.3350965 -11.96493,5.3350965 z"
         id="path1305"
         inkscape:connector-curvature="0"
         sodipodi:nodetypes="csssscccssc" />
      <path
         style="opacity:1;fill:none;fill-opacity:1;stroke:#007209;stroke-width:1.04088831;stroke-linecap:round;stroke-linejoin:miter;stroke-miterlimit:4;stroke-dasharray:none;stroke-dashoffset:0;stroke-opacity:1;paint-order:fill markers stroke"
         d="m -258.19661,-21.315077 c 0,0 4.52127,-10.093974 17.9799,-6.098442 13.45865,3.995531 17.03359,12.091741 17.03359,12.091741"
         id="path1307"
         inkscape:connector-curvature="0" />
      <path
         style="opacity:1;fill:none;fill-opacity:1;stroke:#007209;stroke-width:1.04088831;stroke-linecap:round;stroke-linejoin:miter;stroke-miterlimit:4;stroke-dasharray:none;stroke-dashoffset:0;stroke-opacity:1;paint-order:fill markers stroke"
         d="m -258.19661,-21.315077 c 0,0 -3.82724,4.036798 -2.93506,8.943841 0.8922,4.9070465 4.16356,12.04456443 4.16356,12.04456443"
         id="path1309"
         inkscape:connector-curvature="0" />
      <path
         style="opacity:1;fill:none;fill-opacity:1;stroke:#007209;stroke-width:1.04088831;stroke-linecap:round;stroke-linejoin:miter;stroke-miterlimit:4;stroke-dasharray:none;stroke-dashoffset:0;stroke-opacity:1;paint-order:fill markers stroke"
         d="m -248.9384,-12.891682 c -1.57632,-3.595488 -3.22414,-7.153677 -9.25821,-8.423395"
         id="path1311"
         inkscape:connector-curvature="0"
         sodipodi:nodetypes="cc" />
      <path
         style="opacity:1;fill:none;fill-opacity:1;stroke:#007209;stroke-width:1.04088831;stroke-linecap:round;stroke-linejoin:miter;stroke-miterlimit:4;stroke-dasharray:none;stroke-dashoffset:0;stroke-opacity:1;paint-order:fill markers stroke"
         d="m -258.19661,-21.315077 c 0,0 6.98361,-5.992978 18.10576,-1.390695 6.46838,2.676573 8.47582,7.955362 8.47582,7.955362"
         id="path1313"
         inkscape:connector-curvature="0"
         sodipodi:nodetypes="csc" />
      <path
         style="opacity:1;fill:none;fill-opacity:1;stroke:#007209;stroke-width:1.04088831;stroke-linecap:round;stroke-linejoin:miter;stroke-miterlimit:4;stroke-dasharray:none;stroke-dashoffset:0;stroke-opacity:1;paint-order:fill markers stroke"
         d="m -258.19661,-21.315077 c 0,0 8.14297,-2.134183 14.2396,0.914133 6.09664,3.048314 8.02973,5.799235 8.02973,5.799235"
         id="path1315"
         inkscape:connector-curvature="0" />
      <path
         style="opacity:1;fill:none;fill-opacity:1;stroke:#007209;stroke-width:1.04088831;stroke-linecap:round;stroke-linejoin:miter;stroke-miterlimit:4;stroke-dasharray:none;stroke-dashoffset:0;stroke-opacity:1;paint-order:fill markers stroke"
         d="m -258.19661,-21.315077 c 0,0 8.66341,0.765432 11.4887,2.921561 2.82526,2.156124 3.42004,4.014852 3.42004,4.014852"
         id="path1317"
         inkscape:connector-curvature="0" />
      <path
         style="opacity:1;fill:none;fill-opacity:1;stroke:#007209;stroke-width:1.04088831;stroke-linecap:round;stroke-linejoin:miter;stroke-miterlimit:4;stroke-dasharray:none;stroke-dashoffset:0;stroke-opacity:1;paint-order:fill markers stroke"
         d="m -255.03503,-8.5050815 c 0,0 -1.71003,-1.115236 -2.45352,-4.9813925 -0.74349,-3.866156 -0.70806,-7.828603 -0.70806,-7.828603"
         id="path1319"
         inkscape:connector-curvature="0" />
      <path
         style="opacity:1;fill:none;fill-opacity:1;stroke:#007209;stroke-width:1.04088831;stroke-linecap:round;stroke-linejoin:miter;stroke-miterlimit:4;stroke-dasharray:none;stroke-dashoffset:0;stroke-opacity:1;paint-order:fill markers stroke"
         d="m -251.46626,-11.553395 c 0,0 -3.52984,-5.108152 -5.13009,-7.434918 -1.60026,-2.326764 -1.60026,-2.326764 -1.60026,-2.326764"
         id="path1321"
         inkscape:connector-curvature="0" />
      <path
         style="opacity:0.98999999;fill:none;fill-opacity:1;stroke:#007209;stroke-width:2.08177662;stroke-linecap:round;stroke-linejoin:miter;stroke-miterlimit:4;stroke-dasharray:none;stroke-dashoffset:0;stroke-opacity:1;paint-order:fill markers stroke"
         d="m -236.10706,-34.346422 c -8.55301,-0.07319 -15.2748,3.361298 -17.46316,5.671212 -3.78523,3.995536 -4.62645,7.360221 -4.62645,7.360221 0,0 -8.83223,0.841004 -10.09399,11.040122 -1.26173,10.19912493 8.93742,39.955478 8.93742,39.955478 2.0877,15.494476 1.93897,14.899658 3.12857,17.130134 1.18959,2.230475 9.7398,17.546287 17.76951,19.107619 8.02971,1.561333 9.96269,0.594941 15.76193,-3.717311 5.79921,-4.312252 11.896,-8.698999 14.72126,-15.539121 2.82527,-6.840125 3.66639,-17.408247 3.66639,-17.408247 0,0 6.56775,-17.237584 6.77808,-22.8102965 0.21026,-5.57271977 -1.0515,-19.9777475 -17.97994,-33.2260925 -7.14168,-5.589144 -14.35824,-7.510305 -20.59962,-7.563718 z"
         id="path1323"
         inkscape:connector-curvature="0"
         sodipodi:nodetypes="scccccsscccss" />
      <path
         sodipodi:nodetypes="cccc"
         style="opacity:1;fill:none;fill-opacity:1;stroke:#007209;stroke-width:2.08177662;stroke-linecap:round;stroke-linejoin:miter;stroke-miterlimit:4;stroke-dasharray:none;stroke-dashoffset:0;stroke-opacity:1;paint-order:fill markers stroke"
         d="m -252.41358,53.969173 0.42057,7.780776 c 0,0 -24.9195,11.776306 -30.70252,14.720383 -3.32152,1.690959 -7.02459,6.711805 -9.17674,15.221917"
         id="path1325"
         inkscape:connector-curvature="0" />
      <path
         sodipodi:nodetypes="cccc"
         style="opacity:1;fill:none;fill-opacity:1;stroke:#007209;stroke-width:2.08177662;stroke-linecap:round;stroke-linejoin:miter;stroke-miterlimit:4;stroke-dasharray:none;stroke-dashoffset:0;stroke-opacity:1;paint-order:fill markers stroke"
         d="m -212.91227,54.389756 -0.42055,7.780772 c 0,0 24.91949,11.77631 30.70252,14.720387 2.95387,1.50379 6.20951,5.641114 8.40772,12.52407"
         id="use1327"
         inkscape:connector-curvature="0" />
    </g>
    <g
       id="g888"
       transform="matrix(0.87938294,0,0,0.87940009,158.59201,7.2466862)"
       inkscape:export-filename="/home/brunolgb/PROJECTS/igreja/assets/add.png"
       inkscape:export-xdpi="112"
       inkscape:export-ydpi="112">
      <path
         inkscape:connector-curvature="0"
         id="path868"
         d="m 196.59231,40.662644 c 7.02597,0 14.05266,2.69235 19.43508,8.07463 10.76452,10.76461 10.76452,28.10322 0,38.86773 -10.76465,10.76461 -28.1055,10.76461 -38.87011,0 -10.76452,-10.76451 -10.76452,-28.10312 0,-38.86773 5.38223,-5.38228 12.40906,-8.07463 19.43503,-8.07463 z"
         style="color:black;font-style:normal;font-variant:normal;font-weight:normal;font-stretch:normal;font-size:medium;line-height:normal;font-family:sans-serif;font-variant-ligatures:normal;font-variant-position:normal;font-variant-caps:normal;font-variant-numeric:normal;font-variant-alternates:normal;font-feature-settings:normal;text-indent:0;text-align:start;text-decoration:none;text-decoration-line:none;text-decoration-style:solid;text-decoration-color:black;letter-spacing:normal;word-spacing:normal;text-transform:none;writing-mode:lr-tb;direction:ltr;text-orientation:mixed;dominant-baseline:auto;baseline-shift:baseline;text-anchor:start;white-space:normal;shape-padding:0;clip-rule:nonzero;display:inline;overflow:visible;visibility:visible;opacity:0.98999999;isolation:auto;mix-blend-mode:normal;color-interpolation:sRGB;color-interpolation-filters:linearRGB;solid-color:black;solid-opacity:1;vector-effect:none;fill:#540080;fill-opacity:1;fill-rule:nonzero;stroke:none;stroke-width:7.31049681;stroke-linecap:round;stroke-linejoin:miter;stroke-miterlimit:4;stroke-dasharray:none;stroke-dashoffset:0;stroke-opacity:1;paint-order:fill markers stroke;color-rendering:auto;image-rendering:auto;shape-rendering:auto;text-rendering:auto;enable-background:accumulate" />
      <path
         inkscape:connector-curvature="0"
         id="path864"
         d="m 196.58333,51.046044 a 2.4370758,2.4370758 0 0 0 -2.40395,2.46416 l -0.0404,12.22573 -12.07024,-0.079 a 2.4370758,2.4370758 0 0 0 -0.24381,0 h -0.002 a 2.4370758,2.4370758 0 0 0 0.21103,4.86812 l 12.08892,0.0835 -0.0404,12.08888 a 2.4380054,2.4380054 0 1 0 4.87494,0.018 l 0.0404,-12.07262 12.2304,0.0835 a 2.4380327,2.4380327 0 1 0 0.0359,-4.87512 l -12.24894,-0.0813 0.0404,-12.24904 a 2.4370758,2.4370758 0 0 0 -2.47342,-2.47341 z"
         style="color:black;font-style:normal;font-variant:normal;font-weight:normal;font-stretch:normal;font-size:medium;line-height:normal;font-family:sans-serif;font-variant-ligatures:normal;font-variant-position:normal;font-variant-caps:normal;font-variant-numeric:normal;font-variant-alternates:normal;font-feature-settings:normal;text-indent:0;text-align:start;text-decoration:none;text-decoration-line:none;text-decoration-style:solid;text-decoration-color:black;letter-spacing:normal;word-spacing:normal;text-transform:none;writing-mode:lr-tb;direction:ltr;text-orientation:mixed;dominant-baseline:auto;baseline-shift:baseline;text-anchor:start;white-space:normal;shape-padding:0;clip-rule:nonzero;display:inline;overflow:visible;visibility:visible;opacity:0.98999999;isolation:auto;mix-blend-mode:normal;color-interpolation:sRGB;color-interpolation-filters:linearRGB;solid-color:black;solid-opacity:1;vector-effect:none;fill:white;fill-opacity:1;fill-rule:nonzero;stroke:none;stroke-width:7.31049681;stroke-linecap:round;stroke-linejoin:miter;stroke-miterlimit:4;stroke-dasharray:none;stroke-dashoffset:0;stroke-opacity:1;paint-order:fill markers stroke;color-rendering:auto;image-rendering:auto;shape-rendering:auto;text-rendering:auto;enable-background:accumulate" />
    </g>
    <circle
       style="opacity:1;fill:none;fill-opacity:1;stroke:#007209;stroke-width:4.02985573;stroke-linecap:round;stroke-linejoin:miter;stroke-miterlimit:4;stroke-dasharray:none;stroke-dashoffset:0;stroke-opacity:1;paint-order:fill markers stroke"
       id="circle852"
       cx="-403.28275"
       cy="38.780991"
       r="61.150063" />
    <g
       id="g935"
       transform="matrix(0.48375653,0,0,0.48375653,-19.62099,38.02274)">
      <path
         inkscape:connector-curvature="0"
         id="path898"
         d="M -818.69641,76.639874 V -4.2470302 l -17.45062,-4.6758809 43.53096,-52.3985219"
         style="opacity:1;fill:none;fill-opacity:1;stroke:#007209;stroke-width:6.61458349;stroke-linecap:round;stroke-linejoin:miter;stroke-miterlimit:4;stroke-dasharray:none;stroke-dashoffset:0;stroke-opacity:1;paint-order:fill markers stroke" />
      <path
         style="opacity:1;fill:none;fill-opacity:1;stroke:#007209;stroke-width:6.61458349;stroke-linecap:round;stroke-linejoin:miter;stroke-miterlimit:4;stroke-dasharray:none;stroke-dashoffset:0;stroke-opacity:1;paint-order:fill markers stroke"
         d="M -766.53569,76.639874 V -4.2470302 l 17.45062,-4.6758809 -43.53096,-52.3985219"
         id="use900"
         inkscape:connector-curvature="0" />
      <path
         inkscape:connector-curvature="0"
         id="path902"
         d="m -819.83034,41.866065 -20.03274,-20.032739 -22.86757,22.867559"
         style="opacity:1;fill:none;fill-opacity:1;stroke:#007209;stroke-width:6.61458349;stroke-linecap:round;stroke-linejoin:miter;stroke-miterlimit:4;stroke-dasharray:none;stroke-dashoffset:0;stroke-opacity:1;paint-order:fill markers stroke" />
      <path
         style="opacity:1;fill:none;fill-opacity:1;stroke:#007209;stroke-width:6.61458349;stroke-linecap:round;stroke-linejoin:miter;stroke-miterlimit:4;stroke-dasharray:none;stroke-dashoffset:0;stroke-opacity:1;paint-order:fill markers stroke"
         d="m -766.34672,41.866065 20.03274,-20.032739 22.86757,22.867559"
         id="path904"
         inkscape:connector-curvature="0" />
      <path
         sodipodi:nodetypes="cccc"
         inkscape:connector-curvature="0"
         id="path906"
         d="m -799.75107,-2.879925 0.38588,-18.06049 c 1.34655,-6.959837 12.30731,-7.013875 13.50618,0 v 18.0429608"
         style="opacity:1;fill:none;fill-opacity:1;stroke:#007209;stroke-width:6.61458349;stroke-linecap:round;stroke-linejoin:miter;stroke-miterlimit:4;stroke-dasharray:none;stroke-dashoffset:0;stroke-opacity:1;paint-order:fill markers stroke" />
      <path
         sodipodi:nodetypes="cc"
         style="opacity:1;fill:none;fill-opacity:1;stroke:#007209;stroke-width:6.61458349;stroke-linecap:square;stroke-linejoin:miter;stroke-miterlimit:4;stroke-dasharray:none;stroke-dashoffset:0;stroke-opacity:1;paint-order:fill markers stroke"
         d="M -732.13987,47.157732 V 87.223207"
         id="path910"
         inkscape:connector-curvature="0" />
      <path
         inkscape:connector-curvature="0"
         id="path912"
         d="m -834.57141,91.002968 h 83.15475"
         style="opacity:1;fill:none;fill-opacity:1;stroke:#007209;stroke-width:6.61458349;stroke-linecap:square;stroke-linejoin:miter;stroke-miterlimit:4;stroke-dasharray:none;stroke-dashoffset:0;stroke-opacity:1;paint-order:fill markers stroke" />
      <path
         inkscape:connector-curvature="0"
         id="path914"
         d="M -792.61601,-61.321433 V -87.868124"
         style="opacity:1;fill:none;fill-opacity:1;stroke:#007209;stroke-width:6.61458349;stroke-linecap:square;stroke-linejoin:miter;stroke-miterlimit:4;stroke-dasharray:none;stroke-dashoffset:0;stroke-opacity:1;paint-order:fill markers stroke" />
      <path
         inkscape:connector-curvature="0"
         id="path916"
         d="m -803.41218,-76.375534 h 20.84703"
         style="opacity:1;fill:none;fill-opacity:1;stroke:#007209;stroke-width:6.61458349;stroke-linecap:square;stroke-linejoin:miter;stroke-miterlimit:4;stroke-dasharray:none;stroke-dashoffset:0;stroke-opacity:1;paint-order:fill markers stroke" />
      <path
         style="opacity:1;fill:none;fill-opacity:1;stroke:#007209;stroke-width:6.61458349;stroke-linecap:round;stroke-linejoin:miter;stroke-miterlimit:4;stroke-dasharray:none;stroke-dashoffset:0;stroke-opacity:1;paint-order:fill markers stroke"
         d="m -799.75107,57.218289 0.38588,-18.06049 c 1.34655,-6.959837 12.30731,-7.013875 13.50618,0 V 57.20076"
         id="path918"
         inkscape:connector-curvature="0"
         sodipodi:nodetypes="cccc" />
      <path
         inkscape:connector-curvature="0"
         id="path920"
         d="M -853.09225,47.157732 V 87.223207"
         style="opacity:1;fill:none;fill-opacity:1;stroke:#007209;stroke-width:6.61458349;stroke-linecap:square;stroke-linejoin:miter;stroke-miterlimit:4;stroke-dasharray:none;stroke-dashoffset:0;stroke-opacity:1;paint-order:fill markers stroke"
         sodipodi:nodetypes="cc" />
    </g>
    <rect
       style="opacity:1;fill:#8300a4;fill-opacity:1;stroke:none;stroke-width:0.39912251;stroke-linecap:round;stroke-linejoin:miter;stroke-miterlimit:4;stroke-dasharray:none;stroke-dashoffset:0;stroke-opacity:1;paint-order:fill markers stroke"
       id="rect868"
       width="16.933332"
       height="16.933332"
       x="-55.562492"
       y="289.02682" />
    <rect
       style="opacity:1;fill:white;fill-opacity:1;stroke:none;stroke-width:0.39263228;stroke-linecap:round;stroke-linejoin:miter;stroke-miterlimit:4;stroke-dasharray:none;stroke-dashoffset:0;stroke-opacity:1;paint-order:fill markers stroke"
       id="rect870"
       width="14.998096"
       height="1.0079364"
       x="-54.594872"
       y="291.20395"
       ry="0.50396818" />
    <use
       x="0"
       y="0"
       xlink:href="#rect870"
       id="use874"
       transform="translate(0,5.7855548)"
       width="100%"
       height="100%" />
    <use
       x="0"
       y="0"
       xlink:href="#rect870"
       id="use876"
       transform="translate(0,11.571111)"
       width="100%"
       height="100%" />
    <rect
       y="289.29904"
       x="-30.488247"
       height="16.933332"
       width="16.933332"
       id="rect896"
       style="opacity:1;fill:#8300a4;fill-opacity:1;stroke:none;stroke-width:0.39912251;stroke-linecap:round;stroke-linejoin:miter;stroke-miterlimit:4;stroke-dasharray:none;stroke-dashoffset:0;stroke-opacity:1;paint-order:fill markers stroke" />
    <g
       id="g1525"
       transform="matrix(0.43763374,0,0,0.43763374,-104.82192,232.9906)">
      <path
         inkscape:connector-curvature="0"
         id="path1475"
         transform="scale(0.26458333)"
         d="m 716.46289,495.21875 -59.95508,40.44531 c 0.36284,15.72809 0.75716,31.83039 1.11524,47.5586 3.41378,2.27418 6.82184,4.2089 10.22851,6.5039 l -10.32617,7.26563 0.0586,16.61719 0.008,1.0039 h 0.0293 0.0234 0.004 l -0.0274,0.0176 v -0.002 l -0.004,0.002 13.58789,8.98242 44.52148,-30.46094 43.94532,30.1875 13.375,-9.04492 h 0.0117 v -0.008 l 0.0254,-0.0176 -0.0215,-0.0156 v -0.004 l 0.0234,-0.81836 0.004,-0.13672 0.51758,-16.89648 -32.32031,-22.20117 31.80078,-21.91016 v -0.041 h 0.0293 l 0.0312,-1.0039 0.51758,-16.7793 z m -0.008,2.41992 55.17969,37.86328 -0.47852,15.45899 -41.3418,-28.39649 V 568.75 l 7.82032,5.37109 v 0.002 l 0.82617,0.56836 1.05859,0.72851 32.05664,22.01563 -0.47656,15.47265 -50.74414,-34.85742 -4.62305,-3.17578 v -2.57422 -13.22461 -46.18359 l -0.002,-0.002 -44.03125,30.12305 v 14.39258 l 41.94922,-28.70313 v 47.59376 l -8.86524,6.06445 v 0.004 l -45.19922,30.92188 -0.0566,-15.26172 10.09961,-7.10351 15.77539,-11.09571 14.17774,-9.70117 v -15.99609 l -39.99414,27.36328 -0.20703,-8.85742 -0.8418,-35.92383 z m 56.57226,54.60938 h 0.0586 v 0.0371 z m -115.40625,30.51562 0.002,0.0684 -0.002,0.004 z"
         style="opacity:1;fill:#31005f;fill-opacity:1;stroke:none;stroke-width:1.13598001;stroke-linecap:square;stroke-linejoin:miter;stroke-miterlimit:4;stroke-dasharray:none;stroke-dashoffset:0;stroke-opacity:1;paint-order:fill markers stroke" />
      <path
         id="path1477"
         d="m 189.56206,131.66667 -15.32414,10.33787 0.27752,11.84836 10.58177,-7.23987 v 4.2323 l -3.75118,2.56678 -6.84609,4.8152 0.015,4.03799 14.30454,-9.78699 v -12.5925 l -11.09906,7.59437 v -3.80805 l 11.64995,-7.97004 5e-4,5e-4 v 12.21941 3.49901 0.68109 l 14.64923,10.06295 0.1261,-4.09379 -8.76173,-6.01773 -0.2186,-0.15037 v -5.3e-4 l -2.06911,-1.4211 v -12.21991 l 10.93834,7.51324 0.12661,-4.0902 z m 14.96808,14.44873 0.0155,0.0103 v -0.01 z m -30.53458,8.07392 v 0.0191 l 5.3e-4,-5.3e-4 z m 30.55008,8.11424 -0.006,0.21754 0.006,0.005 z m -30.55008,0.31263 v 0.005 l 0.007,-0.005 z"
         style="opacity:1;fill:white;fill-opacity:1;stroke:none;stroke-width:0.30056137;stroke-linecap:square;stroke-linejoin:miter;stroke-miterlimit:4;stroke-dasharray:none;stroke-dashoffset:0;stroke-opacity:1;paint-order:fill markers stroke"
         inkscape:connector-curvature="0" />
    </g>
    <rect
       style="opacity:1;fill:#8300a4;fill-opacity:1;stroke:none;stroke-width:0.39912251;stroke-linecap:round;stroke-linejoin:miter;stroke-miterlimit:4;stroke-dasharray:none;stroke-dashoffset:0;stroke-opacity:1;paint-order:fill markers stroke"
       id="rect873"
       width="16.933332"
       height="16.933332"
       x="-3.3684552"
       y="289.29904" />
    <path
       style="opacity:1;fill:none;fill-opacity:1;stroke:white;stroke-width:0.89239609;stroke-linecap:round;stroke-linejoin:miter;stroke-miterlimit:4;stroke-dasharray:none;stroke-dashoffset:0;stroke-opacity:1;paint-order:fill markers stroke"
       d="m 7.8972196,292.24108 -5.5246243,5.52462 5.5246243,5.52463"
       id="path883"
       inkscape:connector-curvature="0" />
    <rect
       ry="0.50396818"
       y="291.20395"
       x="-54.594872"
       height="1.0079364"
       width="14.998096"
       id="rect4859"
       style="opacity:1;fill:white;fill-opacity:1;stroke:none;stroke-width:0.39263228;stroke-linecap:round;stroke-linejoin:miter;stroke-miterlimit:4;stroke-dasharray:none;stroke-dashoffset:0;stroke-opacity:1;paint-order:fill markers stroke" />
    <rect
       y="289.02682"
       x="-83.358521"
       height="16.933332"
       width="16.933332"
       id="rect4861"
       style="opacity:1;fill:#e6e6e6;fill-opacity:1;stroke:none;stroke-width:0.39912251;stroke-linecap:round;stroke-linejoin:miter;stroke-miterlimit:4;stroke-dasharray:none;stroke-dashoffset:0;stroke-opacity:1;paint-order:fill markers stroke" />
    <rect
       ry="0.50396818"
       y="291.20395"
       x="-82.3909"
       height="1.0079364"
       width="14.998096"
       id="rect4863"
       style="opacity:1;fill:#ffffff;fill-opacity:1;stroke:none;stroke-width:0.39263228;stroke-linecap:round;stroke-linejoin:miter;stroke-miterlimit:4;stroke-dasharray:none;stroke-dashoffset:0;stroke-opacity:1;paint-order:fill markers stroke" />
    <use
       x="0"
       y="0"
       xlink:href="#rect4869"
       id="use4875"
       transform="translate(0,11.481015)"
       width="100%"
       height="100%" />
    <rect
       style="opacity:1;fill:#007209;fill-opacity:1;stroke:none;stroke-width:0.48571169;stroke-linecap:round;stroke-linejoin:miter;stroke-miterlimit:4;stroke-dasharray:none;stroke-dashoffset:0;stroke-opacity:1;paint-order:fill markers stroke"
       id="rect4869"
       width="14.998096"
       height="1.5424755"
       x="-82.3909"
       y="290.96072"
       ry="0.77123773" />
    <use
       x="0"
       y="0"
       xlink:href="#rect4869"
       id="use4873"
       transform="translate(0,5.9531128)"
       width="100%"
       height="100%" />
    <rect
       style="fill:#007209;stroke-width:0.26458332;fill-opacity:1"
       id="rect4877"
       width="3.7325146"
       height="3.7325146"
       x="-78.335571"
       y="289.86569"
       ry="0.68487817" />
    <use
       x="0"
       y="0"
       xlink:href="#rect4877"
       id="use4885"
       transform="translate(5.8113839,5.953125)"
       width="100%"
       height="100%" />
    <use
       x="0"
       y="0"
       xlink:href="#rect4877"
       id="use4887"
       transform="translate(-1.7953869,11.481027)"
       width="100%"
       height="100%" />
    <rect
       y="376.69122"
       x="-137.5439"
       height="16.933332"
       width="190.5"
       id="rect886"
       style="opacity:1;fill:#e6e6e6;fill-opacity:1;stroke:none;stroke-width:1.33869767;stroke-linecap:round;stroke-linejoin:miter;stroke-miterlimit:4;stroke-dasharray:none;stroke-dashoffset:0;stroke-opacity:1;paint-order:fill markers stroke" />
    <rect
       style="opacity:1;fill:#333333;fill-opacity:1;stroke:none;stroke-width:0.39912251;stroke-linecap:round;stroke-linejoin:miter;stroke-miterlimit:4;stroke-dasharray:none;stroke-dashoffset:0;stroke-opacity:1;paint-order:fill markers stroke"
       id="rect884"
       width="16.933332"
       height="16.933332"
       x="-131.26308"
       y="376.69122" />
    <rect
       y="376.69122"
       x="-77.594734"
       height="16.933332"
       width="16.933332"
       id="rect888"
       style="opacity:1;fill:#333333;fill-opacity:1;stroke:none;stroke-width:0.39912251;stroke-linecap:round;stroke-linejoin:miter;stroke-miterlimit:4;stroke-dasharray:none;stroke-dashoffset:0;stroke-opacity:1;paint-order:fill markers stroke" />
    <rect
       style="opacity:1;fill:#333333;fill-opacity:1;stroke:none;stroke-width:0.39912251;stroke-linecap:round;stroke-linejoin:miter;stroke-miterlimit:4;stroke-dasharray:none;stroke-dashoffset:0;stroke-opacity:1;paint-order:fill markers stroke"
       id="rect890"
       width="16.933332"
       height="16.933332"
       x="-23.926399"
       y="376.69122" />
    <rect
       y="376.69122"
       x="29.741938"
       height="16.933332"
       width="16.933332"
       id="rect892"
       style="opacity:1;fill:#333333;fill-opacity:1;stroke:none;stroke-width:0.39912251;stroke-linecap:round;stroke-linejoin:miter;stroke-miterlimit:4;stroke-dasharray:none;stroke-dashoffset:0;stroke-opacity:1;paint-order:fill markers stroke" />
    <rect
       y="422.12704"
       x="-100.25981"
       height="48.471138"
       width="48.471138"
       id="rect904"
       style="opacity:1;fill:#333333;fill-opacity:1;stroke:none;stroke-width:1.14247572;stroke-linecap:round;stroke-linejoin:miter;stroke-miterlimit:4;stroke-dasharray:none;stroke-dashoffset:0;stroke-opacity:1;paint-order:fill markers stroke" />
    <path
       style="fill:none;fill-opacity:1;stroke:#ff00ff;stroke-width:2.91041667;stroke-linecap:round;stroke-miterlimit:4;stroke-dasharray:none"
       id="path907"
       sodipodi:type="arc"
       sodipodi:cx="-75.503639"
       sodipodi:cy="448.06024"
       sodipodi:rx="13.286661"
       sodipodi:ry="13.286661"
       sodipodi:start="0"
       sodipodi:end="3.1415927"
       sodipodi:open="true"
       d="m -62.216978,448.06024 a 13.286661,13.286661 0 0 1 -6.643331,11.50659 13.286661,13.286661 0 0 1 -13.286661,0 13.286661,13.286661 0 0 1 -6.64333,-11.50659" />
    <rect
       style="fill:none;fill-opacity:1;stroke:#ff00ff;stroke-width:2.91041667;stroke-miterlimit:4;stroke-dasharray:none"
       id="rect909"
       width="14.357298"
       height="28.714596"
       x="-82.682281"
       y="426.97165"
       ry="7.1786489" />
    <g
       id="g917"
       transform="translate(0.06681978)">
      <path
         inkscape:connector-curvature="0"
         id="path911"
         d="m -75.570459,462.0202 v 4.61041"
         style="fill:none;stroke:#ff00ff;stroke-width:2.64583325;stroke-linecap:round;stroke-linejoin:miter;stroke-miterlimit:4;stroke-dasharray:none;stroke-opacity:1" />
      <path
         inkscape:connector-curvature="0"
         id="path913"
         d="m -79.37905,466.64932 h 7.617182"
         style="fill:none;stroke:#ff00ff;stroke-width:2.64583325;stroke-linecap:round;stroke-linejoin:miter;stroke-miterlimit:4;stroke-dasharray:none;stroke-opacity:1" />
    </g>
    <rect
       style="opacity:1;fill:#333333;fill-opacity:1;stroke:none;stroke-width:1.14247572;stroke-linecap:round;stroke-linejoin:miter;stroke-miterlimit:4;stroke-dasharray:none;stroke-dashoffset:0;stroke-opacity:1;paint-order:fill markers stroke"
       id="rect919"
       width="48.471138"
       height="48.471138"
       x="-43.563381"
       y="422.12704" />
    <path
       d="m -5.5205498,448.06024 a 13.286661,13.286661 0 0 1 -6.6433312,11.50659 13.286661,13.286661 0 0 1 -13.286661,0 13.286661,13.286661 0 0 1 -6.64333,-11.50659"
       sodipodi:open="true"
       sodipodi:end="3.1415927"
       sodipodi:start="0"
       sodipodi:ry="13.286661"
       sodipodi:rx="13.286661"
       sodipodi:cy="448.06024"
       sodipodi:cx="-18.807211"
       sodipodi:type="arc"
       id="path921"
       style="fill:none;fill-opacity:1;stroke:#ff00ff;stroke-width:2.9104166;stroke-linecap:round;stroke-miterlimit:4;stroke-dasharray:none" />
    <rect
       ry="7.1786489"
       y="426.97165"
       x="-25.985853"
       height="28.714596"
       width="14.357298"
       id="rect923"
       style="fill:none;fill-opacity:1;stroke:#ff00ff;stroke-width:2.9104166;stroke-miterlimit:4;stroke-dasharray:none" />
    <g
       transform="translate(56.763248)"
       id="g929">
      <path
         style="fill:none;stroke:#ff00ff;stroke-width:2.64583325;stroke-linecap:round;stroke-linejoin:miter;stroke-miterlimit:4;stroke-dasharray:none;stroke-opacity:1"
         d="m -75.570459,462.0202 v 4.61041"
         id="path925"
         inkscape:connector-curvature="0" />
      <path
         style="fill:none;stroke:#ff00ff;stroke-width:2.64583325;stroke-linecap:round;stroke-linejoin:miter;stroke-miterlimit:4;stroke-dasharray:none;stroke-opacity:1"
         d="m -79.37905,466.64932 h 7.617182"
         id="path927"
         inkscape:connector-curvature="0" />
    </g>
    <g
       id="g910"
       transform="matrix(1.0057299,0,0,1.0057299,-419.78009,-88.771754)"
       inkscape:export-filename="/home/solucaocriativa/Development/meu_compromisso/src/assets/confirmed.png"
       inkscape:export-xdpi="96"
       inkscape:export-ydpi="96">
      <circle
         r="24.190477"
         cy="213.84523"
         cx="545.79761"
         id="circle904"
         style="opacity:1;fill:#cccccc;fill-opacity:1;stroke:none;stroke-width:1.41737282;stroke-linecap:square;stroke-linejoin:miter;stroke-miterlimit:4;stroke-dasharray:none;stroke-dashoffset:0;stroke-opacity:1;paint-order:fill markers stroke" />
      <path
         style="opacity:1;fill:none;fill-opacity:1;stroke:#808080;stroke-width:5.29166651;stroke-linecap:round;stroke-linejoin:miter;stroke-miterlimit:4;stroke-dasharray:none;stroke-dashoffset:0;stroke-opacity:1;paint-order:fill markers stroke"
         d="m 536.79731,214.30121 6.73133,9.65799 16.04039,-20.36589"
         id="path908"
         inkscape:connector-curvature="0"
         sodipodi:nodetypes="ccc" />
    </g>
    <g
       transform="translate(0.37300181,58.969707)"
       id="g921">
      <circle
         style="opacity:1;fill:#cccccc;fill-opacity:1;stroke:none;stroke-width:1.41737282;stroke-linecap:square;stroke-linejoin:miter;stroke-miterlimit:4;stroke-dasharray:none;stroke-dashoffset:0;stroke-opacity:1;paint-order:fill markers stroke"
         id="circle912"
         cx="196.30664"
         cy="67.190475"
         r="24.190477" />
      <g
         id="g919"
         transform="translate(-0.22710438,-1.385444)">
        <path
           sodipodi:nodetypes="cc"
           style="opacity:1;fill:none;fill-opacity:1;stroke:#808080;stroke-width:5.29166651;stroke-linecap:round;stroke-linejoin:miter;stroke-miterlimit:4;stroke-dasharray:none;stroke-dashoffset:0;stroke-opacity:1;paint-order:fill markers stroke"
           d="M 184.64025,81.07077 208.56087,56.081069"
           id="path915"
           inkscape:connector-curvature="0" />
        <path
           sodipodi:nodetypes="cc"
           style="opacity:1;fill:none;fill-opacity:1;stroke:#808080;stroke-width:5.29166651;stroke-linecap:round;stroke-linejoin:miter;stroke-miterlimit:4;stroke-dasharray:none;stroke-dashoffset:0;stroke-opacity:1;paint-order:fill markers stroke"
           d="M 208.42724,81.07077 184.50662,56.081069"
           id="use917"
           inkscape:connector-curvature="0" />
      </g>
    </g>
    <g
       transform="translate(-1.4468712,58.969707)"
       id="g934"
       inkscape:export-filename="/home/solucaocriativa/Development/meu_compromisso/src/assets/replaced.png"
       inkscape:export-xdpi="96"
       inkscape:export-ydpi="96">
      <circle
         style="opacity:1;fill:#cccccc;fill-opacity:1;stroke:none;stroke-width:1.41737282;stroke-linecap:square;stroke-linejoin:miter;stroke-miterlimit:4;stroke-dasharray:none;stroke-dashoffset:0;stroke-opacity:1;paint-order:fill markers stroke"
         id="circle923"
         cx="265.52267"
         cy="67.190475"
         r="24.190477" />
      <path
         id="path926"
         style="opacity:1;fill:none;fill-opacity:1;stroke:#808080;stroke-width:4.76249981;stroke-linecap:round;stroke-linejoin:miter;stroke-miterlimit:4;stroke-dasharray:none;stroke-dashoffset:0;stroke-opacity:1;paint-order:fill markers stroke"
         sodipodi:type="arc"
         sodipodi:cx="265.52264"
         sodipodi:cy="67.18837"
         sodipodi:rx="12.063556"
         sodipodi:ry="12.063556"
         sodipodi:start="4.726745"
         sodipodi:end="0.67658212"
         sodipodi:open="true"
         d="m 265.69582,55.126057 a 12.063556,12.063556 0 0 1 10.74171,6.924742 12.063556,12.063556 0 0 1 -1.50872,12.690945" />
      <path
         style="opacity:1;fill:none;fill-opacity:1;stroke:#808080;stroke-width:4.76249981;stroke-linecap:round;stroke-linejoin:miter;stroke-miterlimit:4;stroke-dasharray:none;stroke-dashoffset:0;stroke-opacity:1;paint-order:fill markers stroke"
         d="m 266.53616,59.591847 -4.42934,-4.429337 4.68547,-4.685465"
         id="path928"
         inkscape:connector-curvature="0" />
      <path
         d="M 265.20074,79.24763 A 12.063556,12.063556 0 0 1 254.86334,72.837142 12.063556,12.063556 0 0 1 255.363,60.683686"
         sodipodi:open="true"
         sodipodi:end="3.711081"
         sodipodi:start="1.5974836"
         sodipodi:ry="12.063556"
         sodipodi:rx="12.063556"
         sodipodi:cy="67.18837"
         sodipodi:cx="265.52264"
         sodipodi:type="arc"
         style="opacity:1;fill:none;fill-opacity:1;stroke:#808080;stroke-width:4.76249981;stroke-linecap:round;stroke-linejoin:miter;stroke-miterlimit:4;stroke-dasharray:none;stroke-dashoffset:0;stroke-opacity:1;paint-order:fill markers stroke"
         id="path930" />
      <path
         inkscape:connector-curvature="0"
         id="path932"
         d="m 264.27018,83.412453 4.42933,-4.429336 -4.68546,-4.685465"
         style="opacity:1;fill:none;fill-opacity:1;stroke:#808080;stroke-width:4.76249981;stroke-linecap:round;stroke-linejoin:miter;stroke-miterlimit:4;stroke-dasharray:none;stroke-dashoffset:0;stroke-opacity:1;paint-order:fill markers stroke" />
    </g>
  </g>
</svg>
